{"glyphs":{"�":{"ha":0,"x_min":0,"x_max":0,"o":""},"\u0000":{"ha":0,"x_min":0,"x_max":0,"o":"m 0 0 l 0 0 l 0 0 l 0 0 z "},"\u0001":{"ha":0,"x_min":0,"x_max":0,"o":"m 0 0 l 0 0 l 0 0 l 0 0 z "}," ":{"ha":694,"x_min":0,"x_max":0,"o":"m 0 0 l 0 0 l 0 0 l 0 0 z "},"":{"ha":1389,"x_min":308,"x_max":1081,"o":"m 595 829 l 693 614 l 838 549 l 315 273 l 529 464 l 529 1010 l 308 1078 l 308 266 l 528 111 l 1081 441 l 1081 680 l 595 829 z "},"":{"ha":1389,"x_min":214,"x_max":1176,"o":"m 667 1108 q 621 1078 639 1099 q 598 1028 604 1057 q 600 988 597 1019 q 612 868 602 958 q 623 764 618 807 q 628 719 628 720 q 590 743 627 718 q 500 808 553 769 q 408 876 449 846 q 361 907 366 905 q 326 916 347 914 q 288 911 304 917 q 244 886 263 905 q 218 842 225 867 q 214 800 212 821 q 231 760 217 780 q 270 726 243 741 q 412 661 297 711 q 513 615 471 635 q 555 594 555 595 q 515 576 555 594 q 418 533 475 557 q 318 489 362 509 q 269 467 274 469 q 241 444 255 458 q 221 415 228 429 q 216 398 217 406 q 214 377 214 391 q 216 354 214 361 q 222 335 217 347 q 242 306 231 319 q 269 285 254 293 q 316 273 293 273 q 365 286 339 273 q 413 318 372 289 q 505 384 454 347 q 599 452 571 433 q 628 469 627 472 q 623 424 628 468 q 612 320 618 380 q 599 176 600 202 q 606 130 598 151 q 625 106 613 118 q 652 87 637 94 q 669 81 662 81 q 694 80 677 80 q 720 81 712 80 q 736 87 727 81 q 772 116 758 98 q 791 160 787 134 q 791 198 793 171 q 777 324 788 225 q 766 429 770 385 q 762 473 761 472 q 795 450 762 473 q 873 392 827 426 q 1011 294 986 311 q 1057 274 1036 277 q 1135 296 1097 266 q 1176 369 1172 326 q 1173 401 1177 387 q 1160 431 1169 415 q 1120 466 1146 452 q 977 530 1093 480 q 876 574 918 556 q 833 594 834 593 q 872 612 833 594 q 967 656 911 631 q 1111 721 1090 711 q 1145 743 1131 731 q 1167 772 1160 757 q 1176 806 1175 787 q 1157 873 1177 842 q 1103 913 1137 903 q 1065 916 1086 917 q 1029 907 1043 914 q 981 876 1023 905 q 888 808 940 846 q 800 743 837 770 q 762 716 762 716 q 766 760 761 716 q 777 867 770 804 q 791 1013 791 987 q 783 1059 792 1039 q 764 1084 776 1073 q 738 1103 751 1096 q 701 1111 723 1109 q 667 1108 680 1112 l 667 1108 z "},"":{"ha":1389,"x_min":224,"x_max":1165,"o":"m 1165 639 l 738 1066 q 694 1085 720 1085 q 648 1066 667 1085 l 560 978 l 673 865 q 713 867 692 872 q 750 846 734 863 q 770 810 765 831 q 768 769 774 789 l 876 661 q 916 663 895 667 q 954 643 937 659 q 975 590 975 621 q 954 537 975 559 q 901 515 932 515 q 848 537 869 515 q 827 576 831 553 q 831 618 823 598 l 730 720 l 730 453 q 740 447 735 450 q 750 439 745 444 q 772 387 772 418 q 750 334 772 355 q 697 311 728 311 q 644 334 666 311 q 621 387 621 355 q 644 439 621 418 q 656 449 650 445 q 669 456 662 453 l 669 724 q 656 731 662 727 q 644 741 650 735 q 623 780 627 757 q 628 823 618 803 l 517 935 l 224 640 q 205 596 205 623 q 224 552 205 570 l 651 125 q 695 106 669 106 q 741 125 722 106 l 1165 549 q 1184 594 1184 568 q 1165 639 1184 620 l 1165 639 z "},"":{"ha":1389,"x_min":212,"x_max":1177,"o":"m 694 1139 l 694 1139 q 507 1127 594 1139 q 353 1093 419 1115 q 250 1042 288 1072 q 212 979 212 1013 q 221 912 212 971 q 243 775 231 853 q 270 618 256 697 q 293 488 283 538 q 326 439 296 465 q 408 392 357 414 q 532 356 460 370 q 694 342 605 342 l 694 342 l 694 342 q 857 356 784 342 q 981 392 929 370 q 1063 439 1032 414 q 1096 488 1093 465 q 1119 618 1105 538 q 1145 775 1133 697 q 1168 912 1158 853 q 1177 979 1177 971 q 1139 1042 1177 1013 q 1036 1093 1101 1072 q 882 1127 970 1115 q 694 1139 795 1139 l 694 1139 m 694 449 q 586 494 631 449 q 541 602 541 538 q 586 711 541 666 q 694 755 631 755 q 803 711 758 755 q 848 602 848 666 q 803 494 848 538 q 694 449 758 449 l 694 449 m 694 930 q 475 950 566 930 q 385 997 385 970 q 476 1043 385 1024 q 694 1062 567 1062 q 913 1042 823 1062 q 1004 996 1004 1023 q 913 949 1004 968 q 694 930 822 930 l 694 930 m 1042 381 q 1032 378 1036 381 q 1028 376 1028 376 q 942 328 1028 376 q 694 281 856 281 q 447 328 533 281 q 361 376 361 376 q 357 378 361 376 q 347 381 353 381 q 335 376 340 381 q 330 362 330 372 q 330 359 330 361 q 331 358 331 358 q 354 235 345 283 q 365 178 363 186 q 471 87 377 123 q 694 50 566 50 l 694 50 l 694 50 q 918 87 823 50 q 1024 178 1012 123 q 1035 235 1025 186 q 1058 358 1044 283 q 1059 359 1058 358 q 1059 362 1059 361 q 1054 376 1059 372 q 1042 381 1048 381 l 1042 381 m 783 601 q 758 543 783 567 q 699 518 734 518 q 640 543 665 518 q 616 601 616 567 q 640 661 616 636 q 699 685 665 685 q 758 661 734 685 q 783 601 783 636 l 783 601 z "},"":{"ha":1389,"x_min":221,"x_max":1183,"o":"m 221 1059 q 208 1015 202 1040 q 245 943 213 990 q 279 885 262 918 q 302 829 296 852 q 322 779 309 806 q 346 736 335 751 q 365 695 363 711 q 354 632 366 680 q 345 569 347 602 q 346 514 342 536 q 376 430 351 475 q 420 378 400 385 q 456 396 437 373 q 475 446 475 419 q 477 471 475 469 q 490 456 480 472 q 548 383 507 427 q 593 343 589 339 q 584 366 594 345 q 556 414 574 387 q 523 472 540 441 q 498 519 506 503 q 482 551 488 547 q 464 541 476 555 q 449 516 457 534 q 438 477 441 498 q 417 429 431 434 q 389 463 403 425 q 377 556 377 499 q 389 656 377 613 q 397 701 399 686 q 380 739 395 716 q 356 781 369 753 q 335 837 343 810 q 309 896 326 863 q 277 949 293 929 q 241 1019 241 1000 q 279 1031 241 1039 q 315 1019 294 1028 q 351 1000 336 1009 q 386 982 365 989 q 422 975 407 975 q 534 937 465 975 q 658 842 602 899 q 730 753 701 799 q 807 613 760 707 q 880 476 861 500 q 932 439 898 452 q 1036 388 972 426 q 1099 338 1099 350 q 1080 330 1099 335 q 1036 324 1062 326 q 959 300 967 316 q 996 243 951 283 q 1050 200 1016 225 q 1114 160 1085 175 l 1183 121 l 1150 161 q 1112 200 1137 178 q 1065 236 1088 222 q 1027 262 1043 250 q 1012 278 1012 275 q 1026 288 1012 282 q 1059 296 1040 293 q 1129 311 1111 305 q 1147 326 1147 317 q 1078 392 1147 340 q 964 464 1009 444 q 910 505 928 480 q 844 629 892 529 q 772 763 800 722 q 689 860 745 804 q 564 964 618 930 q 448 1006 510 997 q 401 1020 426 1010 q 362 1039 376 1029 q 283 1069 332 1062 q 221 1059 235 1076 l 221 1059 z "},"":{"ha":1389,"x_min":236,"x_max":1153,"o":"m 694 686 q 515 703 598 686 q 370 747 431 719 q 272 812 308 774 q 236 892 236 849 q 272 974 236 936 q 370 1040 308 1012 q 515 1083 431 1067 q 694 1099 598 1099 q 874 1083 791 1099 q 1019 1040 958 1067 q 1117 974 1081 1012 q 1153 892 1153 936 q 1117 812 1153 849 q 1019 747 1081 774 q 874 703 958 719 q 694 686 791 686 l 694 686 m 694 1053 q 548 1041 621 1053 q 416 1008 475 1029 q 319 958 357 987 q 282 892 282 928 q 319 828 282 857 q 416 777 357 799 q 548 744 475 755 q 694 732 621 732 q 841 744 768 732 q 973 777 914 755 q 1069 828 1032 799 q 1107 892 1107 857 q 1069 958 1107 928 q 973 1008 1032 987 q 841 1041 914 1029 q 694 1053 768 1053 l 694 1053 m 694 503 q 515 519 598 503 q 370 564 431 536 q 272 629 308 591 q 236 709 236 666 l 236 892 q 243 909 236 902 q 259 916 250 916 q 275 909 269 916 q 282 892 282 902 l 282 709 q 319 645 282 674 q 416 594 357 616 q 548 561 475 572 q 694 549 621 549 q 841 561 768 549 q 973 594 914 572 q 1069 645 1032 616 q 1107 709 1107 674 l 1107 892 q 1114 909 1107 902 q 1130 916 1120 916 q 1146 909 1139 916 q 1153 892 1153 902 l 1153 709 q 1117 629 1153 666 q 1019 564 1081 591 q 874 519 958 536 q 694 503 791 503 l 694 503 m 694 297 q 515 313 598 297 q 370 357 431 330 q 272 422 308 385 q 236 503 236 460 l 236 709 q 243 726 236 719 q 259 732 250 732 q 275 726 269 732 q 282 709 282 719 l 282 503 q 319 439 282 468 q 416 389 357 410 q 548 355 475 368 q 694 343 621 343 q 841 355 768 343 q 973 389 914 368 q 1069 439 1032 410 q 1107 503 1107 468 l 1107 709 q 1114 726 1107 719 q 1130 732 1120 732 q 1146 726 1139 732 q 1153 709 1153 719 l 1153 503 q 1117 422 1153 460 q 1019 357 1081 385 q 874 313 958 330 q 694 297 791 297 l 694 297 m 694 92 q 515 108 598 92 q 370 151 431 123 q 272 216 308 179 q 236 297 236 254 l 236 503 q 243 519 236 513 q 259 526 250 526 q 275 519 269 526 q 282 503 282 513 l 282 297 q 319 233 282 262 q 416 182 357 203 q 548 149 475 161 q 694 137 621 137 q 841 149 768 137 q 973 182 914 161 q 1069 233 1032 203 q 1107 297 1107 262 l 1107 503 q 1114 519 1107 513 q 1130 526 1120 526 q 1146 519 1139 526 q 1153 503 1153 513 l 1153 297 q 1117 216 1153 254 q 1019 151 1081 179 q 874 108 958 123 q 694 92 791 92 l 694 92 z "},"":{"ha":1389,"x_min":275,"x_max":1114,"o":"m 694 107 q 532 118 608 107 q 399 148 456 129 q 309 192 342 167 q 275 247 275 217 q 275 313 275 278 q 275 387 275 347 q 280 404 275 395 q 290 420 285 412 q 346 379 308 399 q 437 346 384 359 q 555 324 490 332 q 694 316 621 316 q 833 324 768 316 q 952 346 899 332 q 1043 379 1005 359 q 1099 420 1081 399 q 1109 404 1104 412 q 1114 387 1114 395 q 1114 322 1114 355 q 1114 247 1114 289 q 1080 192 1114 217 q 990 148 1047 167 q 857 118 933 129 q 694 107 781 107 l 694 107 m 694 387 q 532 397 608 387 q 399 427 456 408 q 309 471 342 446 q 275 525 275 496 q 275 592 275 557 q 275 665 275 627 q 277 675 275 670 q 282 686 279 681 l 282 686 q 286 694 283 690 q 290 700 289 697 q 346 658 308 677 q 437 625 384 639 q 555 604 490 612 q 694 595 621 595 q 833 604 768 595 q 952 625 899 612 q 1043 658 1005 639 q 1099 700 1081 677 q 1103 694 1100 697 q 1107 686 1105 690 l 1107 686 q 1112 675 1109 681 q 1114 665 1114 670 q 1114 602 1114 635 q 1114 525 1114 568 q 1080 471 1114 496 q 990 427 1047 446 q 857 397 933 408 q 694 387 781 387 l 694 387 m 694 665 q 532 675 608 665 q 399 705 456 686 q 309 750 342 724 q 275 804 275 776 q 275 838 275 821 q 275 875 275 856 q 275 908 275 891 q 275 944 275 925 q 309 998 275 972 q 399 1043 342 1024 q 532 1073 456 1062 q 694 1084 608 1084 q 857 1073 781 1084 q 990 1043 933 1062 q 1080 998 1047 1024 q 1114 944 1114 972 q 1114 910 1114 928 q 1114 875 1114 892 q 1114 841 1114 859 q 1114 804 1114 823 q 1080 750 1114 776 q 990 705 1047 724 q 857 675 933 686 q 694 665 781 665 l 694 665 m 694 1013 q 497 993 579 1013 q 415 944 415 972 q 497 895 415 916 q 694 875 579 875 q 892 895 810 875 q 974 944 974 916 q 892 993 974 972 q 694 1013 810 1013 l 694 1013 z "},"":{"ha":1389,"x_min":208,"x_max":1181,"o":"m 208 544 l 494 357 l 694 524 l 406 703 l 208 544 m 494 1047 l 208 861 l 406 703 l 694 880 l 494 1047 m 1181 861 l 895 1047 l 694 880 l 983 703 l 1181 861 m 694 524 l 895 357 l 1181 544 l 983 703 l 694 524 m 694 488 l 494 321 l 408 378 l 408 315 l 694 142 l 982 315 l 982 378 l 897 321 l 694 488 z "},"":{"ha":1389,"x_min":208,"x_max":1183,"o":"m 864 528 q 890 521 878 528 q 911 500 902 514 q 927 469 922 486 q 932 433 932 452 q 927 395 932 412 q 911 365 922 378 q 890 343 902 350 q 864 336 878 336 q 837 343 849 336 q 814 365 825 350 q 799 395 804 378 q 793 433 793 412 q 799 469 793 452 q 814 500 804 486 q 837 521 825 514 q 864 528 849 528 l 864 528 m 1104 776 q 1162 682 1142 734 q 1181 570 1181 631 q 1177 495 1181 530 q 1164 429 1173 460 q 1144 372 1156 397 q 1119 327 1133 347 q 1088 290 1104 308 q 1051 259 1072 273 q 1012 233 1031 243 q 977 214 993 222 q 940 203 959 208 q 899 194 921 198 q 861 188 878 190 q 833 184 845 186 q 810 184 822 184 q 785 184 799 184 q 773 184 783 184 q 747 183 764 183 q 718 182 731 182 q 694 182 705 182 q 671 182 684 182 q 642 183 658 182 q 616 184 625 183 q 604 184 606 184 q 578 184 590 184 q 556 184 567 184 q 528 188 544 186 q 490 194 511 190 q 449 202 468 197 q 412 214 430 208 q 377 232 396 221 q 338 259 358 243 q 301 290 317 273 q 270 327 285 308 q 245 372 256 347 q 225 429 233 397 q 212 495 216 460 q 208 570 208 530 q 227 682 208 631 q 285 776 245 734 q 281 799 281 777 q 285 860 281 821 q 296 938 288 901 q 319 1009 305 975 q 428 976 368 1004 q 560 898 488 948 q 618 908 585 905 q 694 911 652 911 q 772 908 739 911 q 827 898 806 905 q 892 939 861 921 q 954 971 924 956 q 1006 992 985 985 q 1042 1002 1028 1000 l 1069 1009 q 1093 938 1084 975 q 1104 860 1101 901 q 1108 799 1108 821 q 1104 776 1108 777 l 1104 776 m 697 231 q 851 241 785 231 q 963 273 917 252 q 1030 338 1008 294 q 1053 448 1053 381 q 1038 517 1053 486 q 996 574 1024 549 q 964 597 981 589 q 926 608 947 605 q 878 612 907 612 q 807 608 848 612 q 739 604 766 605 q 697 602 712 602 q 654 603 677 602 q 605 606 632 604 q 556 609 578 608 q 519 612 534 610 q 488 610 505 612 q 453 604 471 608 q 420 592 435 600 q 393 574 406 585 q 352 518 366 549 q 338 448 338 487 q 360 338 338 381 q 427 273 382 294 q 538 241 472 252 q 692 231 604 231 l 697 231 m 528 528 q 553 521 541 528 q 575 500 564 514 q 590 469 585 486 q 595 433 595 452 q 590 395 595 412 q 575 365 585 378 q 553 343 564 350 q 528 336 541 336 q 500 343 513 336 q 477 365 487 350 q 462 395 467 378 q 457 433 457 412 q 462 469 457 452 q 477 500 467 486 q 500 521 487 514 q 528 528 513 528 l 528 528 z "},"":{"ha":1389,"x_min":208,"x_max":1181,"o":"m 694 1070 q 505 1032 594 1070 q 350 928 416 994 q 245 772 283 861 q 208 583 208 684 q 233 430 208 503 q 302 296 258 357 q 407 190 346 235 q 541 121 468 145 q 566 127 559 118 q 574 145 574 136 q 574 179 574 153 q 574 235 574 205 q 441 253 472 213 q 410 293 410 293 q 374 349 392 335 q 355 363 355 363 q 340 390 321 387 q 358 393 358 393 q 414 367 395 391 q 433 343 433 343 q 509 290 465 288 q 575 302 553 293 q 587 343 578 327 q 605 368 595 359 q 454 423 525 377 q 384 609 384 469 q 397 681 384 648 q 434 739 411 713 q 425 783 430 749 q 438 868 419 818 q 471 867 438 868 q 572 818 503 865 q 633 830 602 826 q 694 834 663 834 q 756 830 726 834 q 817 818 787 826 q 918 867 886 865 q 951 868 951 868 q 964 783 970 818 q 955 739 959 749 q 991 681 978 713 q 1005 609 1005 648 q 935 422 1005 468 q 783 369 864 377 q 806 334 796 357 q 815 278 815 312 q 815 193 815 229 q 815 145 815 156 q 823 126 815 134 q 849 121 830 118 q 982 191 921 145 q 1087 296 1043 236 q 1156 430 1131 357 q 1181 583 1181 503 q 1143 772 1181 684 q 1039 928 1105 861 q 884 1032 972 994 q 694 1070 795 1070 l 694 1070 z "},"":{"ha":1389,"x_min":210,"x_max":1179,"o":"m 694 111 q 506 149 594 111 q 352 253 418 187 q 248 407 286 319 q 210 595 210 495 q 248 784 210 696 q 352 938 286 872 q 506 1042 418 1004 q 694 1080 594 1080 q 883 1042 795 1080 q 1037 938 971 1004 q 1141 784 1103 872 q 1179 595 1179 696 q 1141 407 1179 495 q 1037 253 1103 319 q 883 149 971 187 q 694 111 795 111 l 694 111 m 694 972 q 548 943 617 972 q 428 861 479 913 q 347 741 377 810 q 317 595 317 673 q 347 448 317 517 q 428 329 377 380 q 548 248 479 278 q 694 218 617 218 q 841 248 772 218 q 961 329 910 278 q 1042 448 1012 380 q 1072 595 1072 517 q 1042 741 1072 673 q 961 861 1012 810 q 841 943 910 913 q 694 972 772 972 l 694 972 m 779 562 q 791 558 785 562 q 803 548 798 555 q 810 532 807 541 q 812 514 812 524 q 810 496 812 505 q 803 480 807 487 q 791 470 798 473 q 779 467 785 467 q 765 470 772 467 q 754 480 758 473 q 746 496 749 487 q 743 514 743 505 q 746 533 743 525 q 754 548 749 541 q 765 558 758 555 q 779 562 772 562 l 779 562 m 898 685 q 926 638 917 663 q 936 583 936 613 q 934 545 936 563 q 928 513 932 528 q 918 485 924 498 q 905 463 911 472 q 890 444 898 452 q 871 429 882 435 q 852 415 861 420 q 834 407 842 410 q 817 400 826 403 q 796 396 807 397 q 777 393 785 393 q 764 392 769 392 q 752 391 758 392 q 739 391 746 391 q 733 391 738 391 q 720 391 728 391 q 707 390 713 391 q 694 389 700 389 q 682 390 689 389 q 669 391 675 391 q 656 391 661 391 q 650 391 651 391 q 637 391 643 391 q 625 392 631 391 q 612 393 620 392 q 593 396 604 393 q 572 400 582 397 q 555 407 563 403 q 537 415 547 410 q 518 429 528 420 q 499 444 507 435 q 484 463 491 453 q 471 485 477 472 q 461 513 465 498 q 454 545 457 528 q 452 583 452 563 q 462 638 452 613 q 491 685 472 663 q 490 696 490 686 q 491 727 490 707 q 497 766 492 747 q 509 800 502 784 q 563 784 533 798 q 628 746 593 770 q 656 751 640 749 q 694 753 673 753 q 733 751 716 753 q 761 746 750 749 q 793 766 777 757 q 823 781 808 774 q 849 792 838 788 q 867 798 860 796 l 880 800 q 892 766 887 784 q 898 727 897 747 q 899 696 899 707 q 898 685 899 686 l 898 685 m 696 414 q 772 419 739 414 q 827 435 806 425 q 861 467 850 446 q 872 522 872 488 q 865 556 872 540 q 844 585 859 572 q 828 595 837 591 q 810 602 819 600 q 785 604 800 604 q 750 602 770 604 q 716 599 730 600 q 696 598 703 598 q 674 599 685 598 q 650 601 663 600 q 626 602 636 602 q 608 604 616 602 q 591 603 600 604 q 575 600 583 602 q 558 593 566 597 q 545 585 551 590 q 525 557 532 572 q 518 522 518 541 q 529 468 518 490 q 562 435 540 446 q 616 419 583 425 q 693 414 650 414 l 696 414 m 612 562 q 624 558 618 562 q 635 548 629 555 q 643 532 640 541 q 646 514 646 524 q 643 496 646 505 q 635 480 640 487 q 624 470 629 473 q 612 467 618 467 q 597 470 604 467 q 586 480 591 473 q 579 496 582 487 q 576 514 576 505 q 579 533 576 525 q 586 548 582 541 q 597 558 591 555 q 612 562 604 562 l 612 562 z "},"":{"ha":1389,"x_min":203,"x_max":1184,"o":"m 203 595 q 224 456 203 524 q 280 332 244 389 q 367 230 316 275 q 480 155 418 184 l 245 796 q 214 700 225 750 q 203 595 203 650 l 203 595 m 1025 621 q 1012 699 1025 666 q 985 755 998 731 q 951 814 966 787 q 936 871 936 841 q 959 931 936 905 q 1019 958 982 958 q 1022 958 1020 958 q 1025 958 1024 958 q 875 1052 960 1017 q 694 1086 789 1086 q 570 1071 629 1086 q 458 1026 510 1055 q 361 956 406 997 q 283 865 317 916 q 300 865 293 865 q 316 865 308 865 q 400 868 354 865 q 446 871 446 871 q 468 852 467 872 q 449 830 469 833 q 432 829 449 830 q 393 826 415 827 l 572 294 l 680 617 l 602 826 q 567 829 583 827 q 551 830 551 830 q 533 852 532 831 q 555 871 534 872 q 601 868 555 871 q 684 865 647 865 q 768 868 722 865 q 814 871 814 871 q 836 852 834 872 q 818 830 837 833 q 801 829 818 830 q 761 826 784 827 l 939 298 l 987 463 q 1016 549 1006 510 q 1025 621 1025 589 l 1025 621 m 703 553 l 555 125 q 623 111 589 115 q 694 106 658 106 q 777 113 736 106 q 857 133 818 119 q 855 136 856 134 q 853 140 854 138 l 703 553 l 703 553 m 1124 831 q 1126 807 1126 819 q 1127 781 1127 795 q 1119 701 1127 743 q 1090 605 1111 658 l 940 172 q 1040 248 996 203 q 1117 348 1085 293 q 1166 465 1149 403 q 1184 595 1184 528 q 1168 720 1184 661 q 1124 831 1153 779 l 1124 831 z "},"":{"ha":1389,"x_min":205,"x_max":1184,"o":"m 751 894 q 614 758 673 814 q 552 701 555 701 q 511 729 549 701 q 423 796 473 757 l 302 891 l 205 841 l 205 350 l 302 301 l 415 388 q 498 453 461 425 q 541 484 536 481 q 583 463 552 491 q 751 300 614 435 l 945 104 l 1065 153 l 1184 201 l 1184 990 l 1093 1027 q 1020 1056 1055 1042 q 972 1074 985 1070 l 944 1086 l 751 894 l 751 894 m 943 595 q 941 456 943 514 q 937 399 940 399 q 895 429 935 399 q 810 496 856 460 q 728 564 765 533 q 692 598 690 595 q 729 631 692 601 q 812 698 766 662 q 896 763 857 734 q 937 792 935 792 q 941 734 940 792 q 943 595 943 677 l 943 595 m 384 666 l 454 595 l 384 525 q 332 476 354 496 q 308 456 311 456 q 304 496 305 456 q 302 595 302 537 q 304 695 302 654 q 308 736 305 736 q 332 715 311 736 q 384 666 354 694 l 384 666 z "},"":{"ha":1389,"x_min":534,"x_max":956,"o":"m 534 205 q 547 149 532 172 q 594 117 563 126 q 646 121 620 110 q 685 155 673 132 q 725 255 689 161 q 808 473 761 349 q 909 734 888 685 q 940 793 929 783 q 951 808 947 802 q 956 815 956 814 q 951 823 956 817 q 940 836 947 829 q 857 878 911 861 q 774 887 803 895 q 769 882 770 887 q 768 863 768 876 q 762 826 768 844 q 739 761 757 808 q 726 727 734 747 q 713 692 719 707 q 701 657 708 675 q 689 628 694 639 q 675 593 684 616 q 659 551 666 571 q 638 497 651 530 q 616 437 625 464 q 595 387 605 410 q 582 361 586 365 l 534 205 m 868 863 q 913 837 899 850 q 914 818 926 823 q 861 829 902 814 q 804 857 819 844 q 798 866 799 863 q 800 873 798 869 q 825 876 806 879 q 868 863 844 873 l 868 863 m 800 811 q 832 791 811 799 q 878 783 853 784 q 899 782 890 783 q 907 780 907 781 q 905 777 907 780 q 901 770 903 773 q 890 745 899 766 q 871 696 880 723 q 847 641 854 655 q 829 616 840 627 q 788 587 812 601 q 745 570 764 574 q 725 564 736 567 q 707 556 713 560 q 692 551 699 553 q 685 549 686 549 q 692 579 682 549 q 732 685 703 609 q 753 739 742 709 q 770 783 764 768 q 781 810 776 799 q 788 821 787 821 q 793 818 789 821 q 800 811 796 815 l 800 811 m 836 604 q 810 537 836 602 q 751 382 785 472 q 680 199 696 237 q 654 152 663 160 q 642 142 648 146 q 633 138 636 138 q 631 140 629 138 q 637 142 632 141 q 645 148 642 145 q 648 155 648 151 q 649 160 648 157 q 652 164 650 163 q 656 170 654 165 q 659 180 658 175 q 661 191 659 186 q 665 199 663 197 q 679 234 669 208 q 689 263 689 260 q 691 269 689 264 q 694 279 693 274 q 704 302 697 285 q 718 338 711 319 q 733 376 726 357 q 743 406 741 396 q 751 422 747 415 q 755 431 754 430 q 758 437 757 434 q 760 444 760 441 q 761 453 760 446 q 765 465 762 460 q 780 498 774 486 q 789 526 785 511 q 796 543 793 536 q 800 555 799 551 q 804 567 804 560 q 803 574 804 574 q 798 572 802 574 q 789 567 793 570 q 781 564 781 563 q 789 570 781 564 q 803 581 795 574 q 817 593 811 587 q 833 606 826 602 q 836 604 840 609 l 836 604 m 722 545 q 720 543 722 544 q 716 541 719 541 q 703 526 709 541 q 696 496 696 510 q 696 487 697 491 q 693 483 694 483 q 680 463 688 483 q 670 427 671 444 q 669 409 669 414 q 675 401 670 404 q 686 389 684 397 q 682 373 688 380 q 668 365 678 366 q 654 368 658 363 q 647 372 650 376 q 646 357 644 368 q 646 342 647 346 q 639 336 646 339 q 629 328 633 334 q 621 312 625 321 q 601 258 610 282 q 586 218 591 233 q 580 198 583 210 q 575 178 576 186 q 575 160 574 165 q 583 148 576 155 l 593 136 l 579 145 q 559 170 570 152 q 549 199 549 187 q 557 226 549 202 q 576 279 566 250 q 595 332 587 309 q 602 357 602 355 q 611 370 602 359 q 632 392 620 380 q 652 413 644 404 q 656 422 659 422 q 648 418 654 422 q 637 408 643 414 q 628 401 632 403 q 624 400 624 399 q 644 458 624 410 q 671 514 665 506 q 698 535 678 521 q 722 549 718 549 q 722 548 722 549 q 722 545 722 547 l 722 545 z "},"":{"ha":1389,"x_min":130,"x_max":1259,"o":"m 296 422 q 271 353 296 381 q 213 324 247 324 q 155 353 179 324 q 130 422 130 381 l 130 739 q 155 808 130 780 q 213 837 179 837 q 271 808 247 837 q 296 739 296 780 l 296 422 l 296 422 m 1259 422 q 1234 353 1259 381 q 1176 324 1210 324 q 1118 353 1142 324 q 1093 422 1093 381 l 1093 739 q 1118 808 1093 780 q 1176 837 1142 837 q 1234 808 1210 837 q 1259 739 1259 780 l 1259 422 l 1259 422 m 875 1143 l 928 1238 q 931 1251 932 1245 q 925 1259 930 1256 q 916 1259 921 1261 q 907 1251 910 1256 l 853 1153 q 776 1175 817 1168 q 693 1183 735 1183 q 609 1175 650 1183 q 532 1153 568 1168 l 477 1251 q 468 1259 473 1256 q 458 1259 463 1261 q 454 1251 454 1256 q 456 1238 453 1245 l 509 1143 q 374 1035 426 1104 q 323 882 323 966 q 323 864 323 872 q 326 848 324 856 l 1059 848 q 1061 864 1061 856 q 1062 882 1062 872 q 1010 1035 1062 966 q 875 1143 959 1104 l 875 1143 m 525 978 q 502 987 511 978 q 492 1010 492 997 q 502 1032 492 1023 q 525 1042 511 1042 q 548 1032 538 1042 q 557 1010 557 1023 q 548 987 557 997 q 525 978 538 978 l 525 978 m 863 978 q 840 987 849 978 q 830 1010 830 997 q 840 1032 830 1023 q 863 1042 849 1042 q 884 1032 875 1042 q 894 1010 894 1023 q 884 987 894 997 q 863 978 875 978 l 863 978 m 323 815 l 323 274 l 324 274 q 355 216 327 240 q 420 193 382 193 l 964 193 q 1031 216 1002 193 q 1062 274 1059 240 l 1062 274 l 1062 815 l 323 815 l 323 815 m 640 195 l 640 27 q 616 -41 640 -12 q 557 -69 591 -69 q 499 -41 524 -69 q 475 27 475 -12 l 475 195 l 640 195 m 916 195 l 916 27 q 891 -41 916 -12 q 833 -69 867 -69 q 774 -41 799 -69 q 750 27 750 -12 l 750 195 l 916 195 z "},"":{"ha":1389,"x_min":208,"x_max":1181,"o":"m 600 618 l 208 618 l 208 955 l 600 1010 l 600 618 m 1181 618 l 652 618 l 652 1017 l 1181 1095 l 1181 618 m 600 572 l 208 572 l 208 236 l 600 180 l 600 572 m 1181 572 l 652 572 l 652 174 l 1181 96 l 1181 572 z "},"":{"ha":1389,"x_min":264,"x_max":1139,"o":"m 264 267 l 264 37 l 991 37 l 991 500 l 954 495 l 914 491 l 910 300 l 906 107 l 334 107 l 334 499 l 264 499 l 264 267 l 264 267 m 389 232 l 389 191 l 838 191 l 838 274 l 389 274 l 389 232 l 389 232 m 396 397 l 392 357 l 837 308 l 846 391 l 401 439 l 396 397 l 396 397 m 430 595 l 419 555 l 852 438 l 873 519 l 441 636 l 430 595 l 430 595 m 522 826 l 499 791 l 879 552 l 924 623 l 544 861 l 522 826 l 522 826 m 736 1040 l 701 1016 l 956 647 l 1025 694 l 770 1063 l 736 1040 l 736 1040 m 1016 1147 l 975 1141 l 1057 700 l 1139 716 l 1058 1156 l 1016 1147 l 1016 1147 z "},"":{"ha":1389,"x_min":286,"x_max":1149,"o":"m 1000 560 q 1057 718 998 666 q 1120 773 1116 770 q 1006 864 1070 845 q 916 883 943 883 q 793 861 850 890 q 701 833 735 833 q 620 857 669 833 q 518 882 571 882 q 385 842 446 880 q 286 741 323 804 q 243 600 250 677 q 250 448 236 524 q 292 301 263 372 q 357 178 321 231 q 435 81 392 127 q 533 37 479 35 q 620 61 587 39 q 716 83 652 83 q 813 60 781 83 q 901 38 845 38 q 997 82 958 39 q 1072 175 1036 125 q 1130 283 1112 235 q 1149 335 1147 331 q 1074 385 1147 335 q 1000 560 1001 434 l 1000 560 m 859 975 q 905 1057 888 1010 q 917 1153 922 1104 q 829 1128 875 1152 q 753 1069 783 1104 q 706 991 726 1038 q 693 897 686 944 q 785 916 741 892 q 859 975 829 940 l 859 975 z "},"":{"ha":1389,"x_min":126,"x_max":1263,"o":"m 674 937 q 672 933 674 933 q 670 933 670 933 l 666 933 q 661 936 662 933 q 656 941 659 939 q 654 944 656 941 q 652 951 652 947 q 653 954 652 954 q 656 955 654 955 l 666 951 q 671 943 669 947 q 674 937 674 940 l 674 937 m 594 981 q 588 1008 594 998 q 572 1017 582 1017 q 572 1015 572 1017 q 568 1012 571 1012 l 568 1004 l 582 1004 q 584 992 582 997 q 586 981 586 987 l 594 981 l 594 981 m 750 1004 q 760 998 755 1004 q 768 981 764 991 l 776 981 q 772 988 773 985 q 772 994 772 991 q 771 1002 772 998 q 768 1008 770 1005 q 760 1015 764 1012 q 754 1017 757 1017 q 751 1015 754 1017 q 745 1012 749 1012 q 747 1008 745 1009 q 750 1004 750 1006 l 750 1004 m 617 933 q 612 933 613 933 q 612 937 612 933 q 612 943 612 940 q 617 951 613 947 q 627 953 624 951 q 629 955 629 955 q 634 953 633 955 q 635 951 635 951 q 631 943 635 947 q 621 933 628 939 l 617 933 l 617 933 m 568 937 q 550 954 555 944 q 545 981 545 964 q 547 998 545 991 q 555 1012 548 1005 q 564 1022 557 1019 q 576 1025 570 1025 q 588 1022 583 1025 q 600 1012 593 1019 q 605 992 602 1002 q 608 972 608 982 l 608 963 l 612 963 l 612 968 q 616 975 616 968 q 617 994 617 981 q 616 1015 617 1005 q 608 1035 614 1024 q 593 1050 601 1044 q 572 1057 586 1057 q 554 1050 563 1057 q 541 1035 545 1044 q 532 1010 534 1021 q 530 981 530 998 q 536 955 530 968 q 555 928 541 941 q 561 932 557 932 q 568 937 564 933 l 568 937 m 1122 313 q 1125 315 1124 313 q 1126 319 1126 316 q 1122 334 1126 326 q 1108 353 1118 343 q 1082 369 1099 362 q 1046 378 1066 376 q 1040 378 1043 378 q 1038 378 1038 378 q 1033 379 1034 378 q 1028 380 1032 380 q 1020 380 1025 380 q 1010 381 1015 381 q 1024 439 1020 412 q 1028 491 1028 467 q 1021 548 1028 524 q 1002 593 1015 572 q 975 623 989 613 q 944 637 960 633 q 941 633 941 633 q 940 628 940 632 q 972 608 956 621 q 997 575 987 595 q 1011 531 1008 552 q 1015 487 1015 510 q 1010 441 1015 468 q 993 378 1006 414 q 967 361 979 373 q 944 328 955 349 q 945 324 944 326 q 948 323 945 323 q 951 326 948 323 q 958 334 955 328 q 968 346 964 340 q 979 357 972 351 q 998 365 990 362 q 1015 368 1005 368 q 1047 366 1032 368 q 1073 359 1062 363 q 1093 350 1086 354 q 1104 340 1100 346 q 1110 330 1107 335 q 1116 321 1114 326 q 1119 315 1116 317 q 1122 313 1122 313 l 1122 313 m 713 955 q 710 964 711 958 q 709 977 709 970 q 711 998 709 990 q 719 1017 712 1006 q 732 1026 726 1023 q 745 1029 738 1029 q 762 1024 755 1029 q 776 1012 769 1019 q 783 995 780 1002 q 785 977 785 987 q 779 950 785 960 q 758 937 772 940 q 761 935 758 937 q 768 933 764 933 q 779 930 774 933 q 789 924 783 928 q 795 959 792 944 q 798 990 798 974 q 795 1024 798 1010 q 785 1047 792 1038 q 764 1061 774 1058 q 741 1065 754 1065 q 721 1062 731 1065 q 701 1053 711 1059 q 691 1034 694 1042 q 688 1017 688 1027 q 691 986 688 1000 q 701 959 694 972 q 707 957 704 959 q 713 955 711 955 l 713 955 m 768 884 q 690 840 724 854 q 629 826 656 826 q 584 836 606 826 q 541 861 562 845 q 549 849 545 854 q 555 840 552 844 l 582 812 q 610 793 594 800 q 643 787 627 787 q 693 800 666 787 q 754 836 720 812 l 793 861 q 806 876 800 868 q 811 892 811 883 q 810 899 811 897 q 807 902 810 902 q 787 918 804 909 q 736 937 769 928 q 684 957 707 951 q 648 963 661 963 q 621 957 637 963 q 582 937 605 951 q 549 910 562 924 q 537 884 537 897 q 540 881 537 884 q 545 871 543 878 q 586 845 566 854 q 625 836 606 836 q 686 850 652 836 q 762 897 720 864 l 762 888 q 767 886 766 888 q 768 884 768 884 l 768 884 m 869 -11 q 904 -47 882 -35 q 954 -60 926 -60 q 966 -59 960 -60 q 979 -56 972 -58 q 992 -53 986 -56 q 1002 -47 998 -50 q 1008 -43 1005 -46 q 1015 -38 1012 -41 q 1023 -34 1021 -35 q 1028 -31 1025 -33 l 1104 34 q 1131 54 1116 45 q 1161 72 1145 64 q 1187 85 1175 80 q 1206 94 1199 91 q 1223 100 1215 96 q 1237 110 1230 104 q 1242 121 1240 114 q 1245 134 1245 127 q 1240 152 1245 145 q 1227 164 1234 159 q 1214 174 1221 170 q 1200 179 1207 178 q 1187 187 1195 182 q 1171 202 1180 193 q 1158 222 1164 210 q 1147 250 1152 235 l 1143 275 q 1139 292 1141 285 q 1134 301 1138 298 q 1134 303 1134 302 q 1130 304 1134 304 q 1122 300 1127 304 q 1112 292 1116 297 q 1099 280 1105 286 q 1086 267 1092 274 q 1074 254 1082 260 q 1059 243 1066 248 q 1040 234 1050 237 q 1024 231 1031 231 q 982 238 997 231 q 958 260 967 245 q 947 282 951 270 q 940 309 943 294 q 928 317 933 315 q 918 320 924 320 q 894 303 901 320 q 887 251 887 286 l 887 114 q 884 104 887 110 q 882 87 882 98 q 878 64 879 76 q 878 39 878 53 l 869 -9 l 869 -9 l 869 -11 m 227 14 q 294 -1 258 8 q 369 -26 330 -11 q 434 -47 410 -39 q 468 -54 458 -54 q 510 -44 491 -54 q 545 -15 529 -34 q 549 -1 549 -8 q 549 16 549 7 q 530 87 549 47 q 475 175 511 126 l 444 214 q 433 231 439 221 q 420 254 427 240 q 408 276 414 266 q 396 293 401 286 q 385 309 392 301 q 369 324 378 316 q 351 336 361 331 q 330 345 340 342 q 307 337 316 342 q 292 326 297 332 q 285 313 288 320 q 282 298 282 305 q 279 287 281 292 q 273 279 277 282 q 264 276 270 278 q 251 273 259 274 q 246 273 250 273 q 239 273 243 273 l 227 273 q 197 271 209 273 q 179 266 186 269 q 167 244 171 255 q 163 222 163 233 q 164 208 163 217 q 168 186 165 199 q 172 164 171 174 q 174 148 174 155 q 170 121 174 134 q 157 94 165 107 q 144 68 148 79 q 140 50 140 57 q 165 28 144 37 q 227 14 187 19 l 227 14 m 374 416 q 380 464 374 438 q 399 519 387 490 q 422 570 411 549 q 446 604 434 590 q 444 608 446 608 q 439 609 442 609 l 435 613 q 414 580 426 602 q 388 525 403 557 q 367 467 374 494 q 359 420 359 441 q 363 393 359 406 q 373 369 368 380 q 399 342 381 358 q 444 305 416 326 l 491 275 q 548 220 529 243 q 567 184 567 197 q 564 170 567 176 q 549 155 560 163 q 534 143 543 146 q 519 140 526 140 q 518 139 518 140 q 518 136 518 138 q 522 129 518 136 q 532 110 525 122 q 574 81 545 91 q 643 72 604 72 q 773 102 716 72 q 873 191 830 132 q 873 218 873 208 q 868 233 872 229 l 868 250 q 871 288 868 271 q 882 315 875 304 q 896 330 888 324 q 913 335 903 335 q 926 332 920 335 q 940 326 933 330 q 943 374 943 351 q 944 415 944 396 q 943 471 944 446 q 935 519 941 496 q 926 556 932 540 q 913 586 920 572 q 899 606 906 597 q 886 627 892 616 q 876 646 880 636 q 864 666 871 656 q 859 691 861 680 q 856 719 856 703 q 838 752 845 735 q 819 785 830 769 q 807 818 814 802 q 793 848 800 834 l 754 817 q 693 783 720 793 q 643 772 666 772 q 607 777 623 772 q 581 795 591 781 l 555 817 q 551 794 555 807 q 541 768 548 781 l 513 715 q 498 677 503 692 q 492 652 494 663 q 490 640 491 646 q 488 635 490 635 l 456 568 q 415 473 429 518 q 401 389 401 427 q 402 374 401 382 q 404 358 403 366 q 382 383 389 369 q 374 416 374 397 l 374 416 m 692 -3 q 615 -9 648 -3 q 559 -26 582 -15 l 559 -24 q 523 -55 543 -45 q 477 -65 503 -65 q 435 -59 461 -65 q 376 -39 410 -53 q 310 -19 340 -28 q 252 -4 279 -9 q 243 -1 250 -3 q 228 1 237 0 q 210 4 218 3 q 194 7 201 5 q 179 11 187 8 q 161 16 171 14 q 147 22 153 19 q 136 30 141 26 q 129 39 132 34 q 126 49 126 43 q 127 60 126 54 q 132 72 129 65 q 135 78 133 75 q 140 85 137 81 q 144 93 142 90 q 148 99 146 96 q 151 105 149 102 q 153 111 152 109 q 156 117 155 114 q 159 125 157 121 q 159 131 159 127 q 160 137 160 134 q 159 151 160 141 q 155 179 157 161 q 151 208 152 197 q 149 222 149 218 q 153 249 149 237 q 163 269 156 260 q 178 281 171 277 q 193 285 184 285 l 243 285 q 250 287 245 285 q 263 293 255 289 q 267 302 264 298 q 270 311 269 307 q 273 318 271 315 q 274 323 274 321 q 276 326 275 324 q 277 330 277 328 q 280 335 278 332 q 283 340 282 338 q 279 347 281 343 q 278 357 278 351 q 278 364 278 361 q 279 369 278 368 q 285 398 279 381 q 302 437 290 415 l 319 465 q 336 497 328 483 q 349 525 343 511 q 360 557 354 537 q 373 604 366 578 q 390 651 377 628 q 423 697 403 674 l 456 736 q 485 774 473 757 q 502 803 496 791 q 512 832 509 817 q 515 861 515 848 q 513 888 515 868 q 509 940 511 907 q 503 1006 505 974 q 502 1069 502 1039 q 504 1109 502 1092 q 510 1145 506 1127 q 522 1177 514 1161 q 541 1206 530 1192 q 565 1232 551 1219 q 598 1251 579 1244 q 642 1261 618 1257 q 692 1264 665 1264 q 711 1263 701 1264 q 731 1259 722 1263 q 755 1256 742 1259 q 784 1246 768 1253 q 810 1232 798 1240 q 833 1215 823 1225 q 857 1190 846 1204 q 878 1157 868 1175 q 890 1117 884 1138 q 899 1069 897 1096 q 904 1035 903 1053 q 909 994 905 1017 q 911 960 909 974 q 913 936 913 947 q 917 913 916 926 q 922 883 918 899 q 929 857 925 869 q 940 834 933 844 q 953 808 945 821 q 970 781 960 795 q 994 747 981 765 q 1019 711 1006 730 q 1072 641 1048 677 q 1108 568 1095 605 q 1134 494 1124 536 q 1143 406 1143 452 q 1140 360 1143 382 q 1130 316 1137 338 q 1141 314 1137 316 q 1147 307 1145 312 q 1154 292 1150 302 q 1161 266 1157 282 l 1165 233 q 1173 220 1168 227 q 1187 206 1177 213 q 1201 196 1194 201 q 1218 187 1208 191 q 1234 178 1225 183 q 1249 168 1242 174 q 1259 155 1256 161 q 1263 140 1263 148 q 1259 121 1263 129 q 1249 106 1256 113 q 1236 94 1242 99 q 1218 87 1229 90 q 1198 77 1211 84 q 1165 61 1185 71 q 1132 39 1149 52 q 1099 14 1115 27 l 1054 -24 q 1029 -46 1042 -37 q 1006 -61 1016 -56 q 983 -71 996 -68 q 958 -73 970 -73 l 926 -69 q 882 -49 899 -62 q 856 -16 865 -35 q 760 -6 802 -9 q 692 -3 718 -3 l 692 -3 z "},"":{"ha":1389,"x_min":202,"x_max":1184,"o":"m 605 613 l 689 758 q 691 776 693 766 q 681 789 689 785 l 621 823 q 604 826 613 829 q 590 815 595 823 l 316 338 q 314 321 312 330 q 324 307 316 312 l 384 273 q 401 271 392 269 q 415 281 410 273 l 605 613 l 605 613 m 1164 658 l 964 658 q 998 594 982 624 q 1024 543 1013 564 q 1038 516 1032 528 q 1046 500 1044 505 q 1050 492 1048 496 q 1053 483 1053 488 l 1164 483 q 1178 489 1172 483 q 1184 503 1184 495 l 1184 636 q 1178 652 1184 646 q 1164 658 1172 658 l 1164 658 m 678 658 l 578 483 l 849 483 q 814 555 834 513 q 768 658 795 597 l 678 658 l 678 658 m 452 658 l 222 658 q 208 652 213 658 q 202 636 202 646 l 202 503 q 208 489 202 495 q 222 483 213 483 l 353 483 l 452 658 l 452 658 m 365 247 l 305 281 q 290 282 297 285 q 282 270 283 279 l 273 180 q 276 168 271 171 q 289 171 281 165 l 365 222 q 373 235 373 228 q 365 247 373 241 l 365 247 m 1010 481 q 1010 482 1010 481 q 1009 483 1009 483 l 1009 483 q 995 510 1005 491 q 971 555 985 529 q 971 555 971 555 q 971 555 971 555 q 969 559 970 557 q 967 563 968 562 q 965 566 966 564 q 964 570 964 568 q 962 572 963 571 q 962 575 962 574 q 959 579 960 576 q 956 583 958 582 q 956 585 956 585 q 955 587 955 586 q 952 591 954 589 q 949 597 951 594 q 948 599 948 598 q 947 601 948 600 q 880 724 916 659 q 821 827 845 789 q 731 979 779 894 q 667 1055 684 1063 q 665 1016 656 1050 q 692 939 674 982 q 729 851 709 895 q 760 780 749 807 q 797 696 772 753 q 849 580 822 639 q 900 475 876 521 q 932 425 924 429 q 959 418 949 416 q 981 426 968 420 q 1007 446 993 431 q 1010 481 1021 461 l 1010 481 m 1078 340 l 1050 395 q 1035 408 1044 404 q 1016 406 1025 411 l 982 388 q 971 374 974 384 q 974 355 968 365 l 1009 300 q 1025 288 1015 290 q 1044 292 1035 286 l 1069 305 q 1080 321 1077 311 q 1078 340 1082 331 l 1078 340 m 1069 262 q 1054 241 1062 256 q 1065 199 1046 227 q 1116 164 1084 172 q 1154 138 1149 156 q 1150 222 1154 138 q 1069 262 1146 307 l 1069 262 z "},"":{"ha":1389,"x_min":210,"x_max":1179,"o":"m 210 981 l 210 888 l 787 888 l 787 1073 l 210 1073 l 210 981 l 210 981 m 994 981 l 994 888 l 1179 888 l 1179 1073 l 994 1073 l 994 981 l 994 981 m 210 589 l 210 498 l 1179 498 l 1179 681 l 210 681 l 210 589 l 210 589 m 210 203 l 210 118 l 590 118 l 590 289 l 210 289 l 210 203 l 210 203 m 799 203 l 799 118 l 1179 118 l 1179 289 l 799 289 l 799 203 l 799 203 z "},"":{"ha":1389,"x_min":12,"x_max":1377,"o":"m 338 720 l 338 720 l 338 720 q 323 718 330 718 q 309 720 316 718 l 309 720 q 256 591 283 658 q 202 471 228 524 l 202 471 l 202 471 q 225 473 214 473 q 243 471 236 472 q 243 471 243 471 q 243 471 243 471 l 243 471 q 257 506 250 487 q 273 544 264 525 l 273 544 q 323 544 298 544 q 374 544 349 544 l 374 544 q 389 507 382 525 q 404 471 396 488 l 404 471 q 404 471 404 471 q 404 471 404 471 q 426 473 415 473 q 445 471 437 472 l 445 471 l 445 471 l 445 471 q 394 583 426 506 q 338 720 362 659 l 338 720 m 368 562 q 323 560 346 560 q 279 562 301 560 l 279 562 q 304 627 293 595 q 323 677 316 658 q 345 619 334 648 q 368 562 357 590 l 368 562 l 368 562 m 202 471 l 202 471 q 202 471 202 471 q 202 471 202 471 l 202 471 l 202 471 m 262 754 q 262 754 262 754 q 262 754 262 754 l 262 754 q 241 751 251 751 q 220 754 231 751 q 184 692 212 736 q 137 614 157 648 q 93 687 115 650 q 54 754 71 724 q 33 751 41 751 q 12 754 24 750 q 72 656 38 715 q 119 572 106 597 l 117 438 q 124 439 117 438 q 137 439 132 439 q 151 439 144 439 q 157 438 157 438 l 155 572 q 216 677 180 617 q 262 754 251 738 l 262 754 m 823 724 q 723 687 757 724 q 689 595 689 650 q 725 501 689 536 q 823 467 761 467 q 925 503 891 467 q 959 594 959 540 q 922 690 959 655 q 823 724 886 724 l 823 724 m 823 481 q 755 511 780 481 q 730 594 730 541 q 758 682 730 655 q 822 708 785 708 q 823 708 822 708 q 823 708 823 708 q 890 680 864 708 q 917 595 917 652 q 890 509 917 537 q 823 481 864 481 l 823 481 m 1312 477 q 1297 471 1302 477 q 1293 456 1293 464 q 1299 441 1293 446 q 1314 437 1305 437 q 1327 441 1321 437 q 1333 457 1333 446 q 1327 472 1333 467 q 1312 477 1321 477 l 1312 477 m 1359 750 l 1359 750 l 1359 750 q 1358 750 1359 750 q 1355 750 1356 750 q 1341 745 1348 750 q 1335 730 1335 741 q 1326 617 1331 673 q 1313 507 1321 562 l 1313 507 q 1313 507 1313 507 q 1313 507 1313 507 l 1313 507 l 1313 507 q 1321 507 1317 507 q 1328 505 1325 506 l 1328 505 q 1353 627 1337 559 q 1374 718 1369 694 q 1376 725 1375 722 q 1377 731 1377 728 q 1372 744 1377 739 q 1359 750 1367 749 l 1359 750 m 1128 739 q 1019 703 1063 739 q 974 595 974 666 q 1010 495 974 538 q 1130 452 1046 452 q 1243 489 1200 452 q 1286 594 1286 526 q 1244 699 1286 659 q 1128 739 1203 739 l 1128 739 m 1128 467 q 1049 496 1084 467 q 1015 597 1015 525 q 1052 696 1015 670 q 1128 723 1089 723 q 1211 692 1179 723 q 1244 594 1244 661 q 1207 494 1244 522 q 1128 467 1171 467 l 1128 467 m 635 720 q 637 663 636 692 q 639 604 639 633 q 568 602 604 602 q 499 604 533 602 q 500 663 499 633 q 502 720 500 692 q 481 718 492 718 q 460 720 471 718 q 463 595 463 658 q 460 471 463 533 q 481 473 471 473 q 502 471 491 473 l 502 471 l 502 471 q 500 528 500 499 q 499 586 499 557 q 568 587 533 587 q 639 587 604 587 q 637 528 639 557 q 635 471 636 499 l 635 471 l 635 471 q 656 473 646 473 q 677 471 667 473 q 674 595 674 533 q 677 720 674 658 q 656 718 666 718 q 635 720 646 718 l 635 720 z "},"":{"ha":1389,"x_min":206,"x_max":1183,"o":"m 1183 751 q 1182 753 1183 753 q 1181 755 1181 754 q 1181 756 1181 755 q 1181 757 1181 757 q 1181 759 1181 758 q 1180 760 1180 760 q 1179 761 1180 761 q 1179 762 1179 761 q 1178 763 1179 762 q 1177 765 1177 764 q 1177 766 1177 765 q 1176 766 1177 766 q 1175 768 1176 768 q 1175 769 1175 769 q 1174 770 1175 770 q 1173 772 1173 770 q 1173 772 1173 772 q 1171 773 1172 773 q 1170 774 1171 774 q 1169 774 1169 774 q 1168 777 1169 776 q 1166 777 1168 777 q 1166 778 1166 777 q 1165 779 1165 779 q 1165 779 1165 779 q 1164 779 1165 779 l 718 1077 q 694 1084 707 1084 q 671 1077 682 1084 l 225 779 q 224 779 224 779 q 224 779 224 779 q 223 778 224 779 q 222 777 222 777 q 220 777 221 777 q 220 774 220 776 q 219 774 220 774 q 218 773 218 774 q 216 772 217 773 q 216 772 216 772 q 215 770 216 770 q 214 769 214 770 q 214 768 214 769 q 213 766 213 768 q 212 766 212 766 q 212 765 212 765 q 211 763 212 764 q 210 762 210 762 q 210 761 210 761 q 209 760 209 761 q 208 759 209 760 q 208 757 208 758 q 208 756 208 757 q 208 755 208 755 q 207 753 208 754 q 206 751 206 753 q 206 751 206 751 q 206 750 206 750 q 206 747 206 749 q 206 745 206 746 l 206 446 q 206 444 206 445 q 206 441 206 442 q 206 440 206 441 q 206 439 206 439 q 207 437 206 438 q 208 435 208 437 q 208 435 208 435 q 208 434 208 434 q 208 432 208 433 q 209 430 209 431 q 210 429 209 430 q 210 429 210 429 q 211 427 210 427 q 212 426 212 426 q 212 425 212 425 q 213 423 212 425 q 214 422 213 423 q 214 420 214 422 q 215 420 214 420 q 216 419 216 419 q 216 418 216 419 q 218 416 217 418 q 219 416 218 416 q 220 415 220 416 q 220 414 220 415 q 222 414 221 414 q 223 413 222 414 q 224 412 224 412 q 224 412 224 412 q 225 411 224 411 l 671 114 q 683 109 677 110 q 694 107 689 107 q 706 109 700 107 q 718 114 712 110 l 1164 411 q 1165 412 1165 411 q 1165 412 1165 412 q 1166 413 1165 412 q 1166 414 1166 414 q 1168 414 1168 414 q 1169 415 1169 415 q 1170 416 1169 416 q 1171 416 1171 416 q 1173 418 1172 418 q 1173 419 1173 419 q 1174 420 1173 419 q 1175 420 1175 420 q 1175 422 1175 422 q 1176 423 1176 423 q 1177 425 1177 425 q 1177 426 1177 425 q 1178 427 1177 426 q 1179 429 1179 427 q 1179 429 1179 429 q 1180 430 1180 430 q 1181 432 1180 431 q 1181 434 1181 433 q 1181 435 1181 434 q 1181 435 1181 435 q 1182 437 1181 437 q 1183 439 1183 438 q 1183 440 1183 439 q 1183 441 1183 441 q 1183 444 1183 442 q 1183 446 1183 445 l 1183 745 q 1183 747 1183 746 q 1183 750 1183 749 q 1183 751 1183 750 q 1183 751 1183 751 l 1183 751 m 694 496 l 547 595 l 694 694 l 844 595 l 694 496 l 694 496 m 652 768 l 471 646 l 323 745 l 652 963 l 652 768 l 652 768 m 395 595 l 290 525 l 290 666 l 395 595 l 395 595 m 471 545 l 652 423 l 652 227 l 323 446 l 471 545 l 471 545 m 736 423 l 918 545 l 1066 446 l 736 227 l 736 423 l 736 423 m 994 595 l 1099 666 l 1099 525 l 994 595 l 994 595 m 918 646 l 736 768 l 736 963 l 1066 745 l 918 646 l 918 646 z "},"":{"ha":1389,"x_min":12,"x_max":1377,"o":"m 277 623 l 161 623 q 157 621 159 623 q 156 617 156 618 l 156 560 q 157 556 156 557 q 161 555 159 555 l 206 555 l 206 486 q 197 484 206 486 q 168 481 189 481 q 117 500 144 481 q 90 594 90 519 q 119 690 90 670 q 182 709 148 709 q 226 705 212 709 q 248 699 240 701 q 253 700 251 699 q 255 704 255 701 l 267 758 q 267 761 267 760 q 266 762 267 762 q 240 772 262 765 q 168 780 218 780 q 62 744 111 780 q 12 590 12 708 q 67 441 12 473 q 179 410 122 410 q 253 423 227 410 q 279 437 279 437 q 281 439 281 438 q 282 441 282 441 l 282 617 q 280 621 282 618 q 277 623 278 623 l 277 623 m 859 768 l 793 768 q 790 766 792 768 q 788 762 788 764 l 788 636 l 688 636 l 688 762 q 686 766 688 764 q 682 768 685 768 l 617 768 q 613 766 614 768 q 612 762 612 764 l 612 422 q 613 419 612 420 q 617 418 614 418 l 682 418 q 686 419 685 418 q 688 422 688 420 l 688 567 l 788 567 l 788 422 q 789 419 788 420 q 793 418 791 418 l 859 418 q 863 419 861 418 q 864 422 864 420 l 864 762 q 863 766 864 764 q 859 768 861 768 l 859 768 m 354 760 q 324 747 336 760 q 312 718 312 735 q 324 688 312 700 q 354 675 336 675 q 384 688 372 675 q 396 718 396 700 q 384 747 396 735 q 354 760 372 760 l 354 760 m 391 651 q 389 654 391 652 q 385 656 388 656 l 321 656 q 317 654 319 656 q 316 650 316 652 q 316 551 316 650 q 316 426 316 453 q 319 419 316 420 q 326 418 321 418 q 342 418 326 418 q 382 418 359 418 q 389 420 388 418 q 391 426 391 422 q 391 461 391 435 q 391 494 391 487 q 391 576 391 500 q 391 651 391 651 l 391 651 m 1109 655 l 1046 655 q 1042 654 1043 655 q 1040 650 1040 652 l 1040 484 q 1029 478 1040 484 q 1001 472 1017 472 q 977 480 983 472 q 971 505 971 488 q 971 586 971 522 q 971 650 971 650 q 970 654 971 652 q 966 655 968 655 l 901 655 q 897 654 898 655 q 895 650 895 652 q 895 597 895 650 q 895 494 895 545 q 920 427 895 444 q 985 410 945 410 q 1038 422 1016 410 q 1061 434 1061 434 q 1062 427 1061 434 q 1063 419 1063 420 q 1065 418 1063 419 q 1069 416 1066 416 l 1109 416 q 1114 418 1112 416 q 1115 422 1115 420 l 1115 650 q 1114 654 1115 652 q 1109 655 1112 655 l 1109 655 m 1286 663 q 1242 655 1259 663 q 1225 647 1225 647 l 1225 762 q 1223 766 1225 764 q 1219 768 1221 768 l 1154 768 q 1150 766 1152 768 q 1149 762 1149 764 l 1149 422 q 1150 418 1149 420 q 1154 416 1152 416 q 1177 416 1154 416 q 1199 416 1199 416 q 1202 418 1200 416 q 1204 420 1203 419 q 1206 429 1204 422 q 1207 435 1207 435 q 1226 423 1207 435 q 1283 411 1245 411 q 1352 439 1328 411 q 1377 545 1377 467 q 1345 644 1377 624 q 1286 663 1313 663 l 1286 663 m 1260 472 q 1234 477 1244 472 q 1223 483 1223 483 l 1223 590 q 1233 595 1223 590 q 1256 601 1242 600 q 1288 592 1274 602 q 1302 541 1302 582 q 1293 484 1302 498 q 1260 472 1283 471 l 1260 472 m 578 473 q 572 473 576 473 q 560 472 567 472 q 536 479 543 472 q 529 498 529 487 q 529 551 529 509 q 529 593 529 593 l 578 593 q 581 594 579 593 q 583 598 583 595 l 583 651 q 581 654 583 652 q 578 656 579 656 l 529 656 l 529 720 q 528 723 529 722 q 525 724 526 724 l 458 724 q 456 723 457 724 q 454 720 454 722 l 454 654 q 437 650 454 654 q 419 646 420 646 q 416 643 418 644 q 415 640 415 642 l 415 598 q 416 594 415 595 q 420 593 418 593 l 454 593 q 454 564 454 593 q 454 492 454 536 q 485 424 454 437 q 543 411 515 411 q 566 414 553 411 q 581 418 578 416 q 583 419 582 418 q 583 422 583 420 l 583 468 q 582 472 583 471 q 578 473 581 473 l 578 473 z "},"":{"ha":1389,"x_min":209,"x_max":1180,"o":"m 694 47 q 673 51 684 47 q 652 60 662 54 l 518 138 q 507 151 503 146 q 514 156 510 155 q 544 167 534 163 q 575 183 553 171 q 581 184 578 184 q 585 183 583 184 l 688 122 q 694 121 690 121 q 700 122 699 121 l 1101 353 q 1106 358 1104 355 q 1108 363 1108 361 l 1108 827 q 1106 833 1108 830 q 1101 838 1104 837 l 701 1069 q 694 1072 697 1072 q 688 1069 690 1072 l 288 838 q 283 833 285 837 q 281 827 281 830 l 281 363 q 283 358 281 361 q 288 353 285 355 l 397 290 q 468 286 442 267 q 494 331 494 304 l 494 788 q 497 795 494 792 q 505 799 500 799 l 556 799 q 564 795 560 799 q 567 788 567 792 l 567 331 q 536 238 567 271 q 449 205 506 205 q 413 208 431 205 q 357 231 395 212 l 251 290 q 220 322 232 302 q 209 363 209 342 l 209 827 q 220 869 209 849 q 251 901 232 888 l 652 1131 q 694 1142 671 1142 q 736 1131 718 1142 l 1138 901 q 1168 869 1157 888 q 1180 827 1180 849 l 1180 363 q 1168 322 1180 342 q 1138 290 1157 302 l 736 60 q 716 51 727 54 q 694 47 705 47 l 694 47 m 818 366 q 646 415 686 366 q 606 515 606 464 q 610 523 606 519 q 617 526 613 526 l 670 526 q 677 524 674 526 q 681 517 681 521 q 713 457 686 477 q 818 437 739 437 q 910 452 882 437 q 939 502 939 468 q 917 535 939 521 q 798 559 895 549 q 667 591 715 567 q 620 682 620 616 q 668 777 620 743 q 802 811 716 811 q 947 777 898 811 q 1002 671 996 743 q 1002 666 1002 669 q 1000 662 1001 663 q 995 659 997 661 q 990 658 993 658 l 939 658 q 931 661 935 658 q 928 667 928 663 q 891 725 918 709 q 802 741 864 741 q 715 722 732 741 q 699 685 699 703 q 721 653 699 663 q 837 631 743 643 q 974 594 929 618 q 1019 505 1019 570 q 966 403 1019 439 q 818 366 914 366 l 818 366 z "},"":{"ha":1389,"x_min":18,"x_max":1371,"o":"m 231 583 q 229 589 231 586 q 225 593 227 591 l 129 648 q 127 649 127 648 q 125 650 126 650 q 123 650 123 650 q 123 650 123 650 q 121 649 122 650 q 118 648 119 648 l 23 593 q 19 589 20 591 q 18 583 18 586 l 18 435 q 18 433 18 434 q 20 431 19 431 q 23 430 22 430 q 26 431 24 430 l 83 464 q 87 468 85 465 q 88 473 88 471 l 88 543 q 90 548 88 545 q 94 552 91 551 l 118 566 q 121 567 119 567 q 123 567 122 567 q 126 567 125 567 q 129 566 127 567 l 153 552 q 157 548 156 551 q 159 543 159 545 l 159 473 q 161 468 159 471 q 165 464 163 465 l 221 431 q 224 430 222 430 q 228 431 227 430 q 229 433 228 431 q 231 435 231 434 l 231 583 l 231 583 m 738 785 q 735 787 736 787 q 732 785 734 787 q 730 784 731 785 q 730 781 730 783 l 730 635 q 729 633 730 633 q 727 631 728 632 q 726 631 727 631 q 723 631 724 631 l 700 646 q 694 647 697 647 q 688 646 690 647 l 593 590 q 589 586 590 589 q 587 581 587 583 l 587 471 q 589 465 587 468 q 593 460 590 463 l 688 406 q 694 404 690 404 q 700 406 697 404 l 795 460 q 799 465 798 463 q 800 471 800 468 l 800 745 q 799 750 800 747 q 795 754 798 753 l 738 785 l 738 785 m 730 506 q 729 505 730 506 q 728 505 728 505 l 696 486 q 694 484 694 484 q 692 486 693 484 l 659 505 q 659 505 659 505 q 658 506 658 506 l 658 544 q 659 546 658 545 q 659 547 659 547 l 692 566 q 694 566 693 566 q 696 566 694 566 l 728 547 q 729 546 728 547 q 730 544 730 545 l 730 506 l 730 506 m 1078 545 q 1082 549 1081 547 q 1084 555 1084 552 l 1084 582 q 1082 587 1084 585 q 1078 591 1081 590 l 983 647 q 979 648 982 648 q 972 647 975 648 l 878 591 q 873 587 875 590 q 872 582 872 585 l 872 472 q 873 467 872 469 q 878 463 875 464 l 972 408 q 978 407 975 407 q 983 408 981 407 l 1040 439 q 1042 442 1042 441 q 1043 445 1043 444 q 1042 448 1043 446 q 1040 450 1042 449 l 945 505 q 943 507 944 506 q 941 510 941 509 l 941 544 q 943 547 941 545 q 945 549 944 548 l 975 566 q 977 567 975 567 q 981 566 979 567 l 1010 549 q 1013 547 1012 548 q 1013 544 1013 545 l 1013 517 q 1014 514 1013 515 q 1016 513 1015 513 q 1019 511 1017 511 q 1021 513 1020 511 l 1078 545 l 1078 545 m 403 647 q 409 648 406 648 q 415 647 412 648 l 510 593 q 514 589 513 591 q 515 582 515 586 l 515 472 q 514 467 515 469 q 510 463 513 464 l 415 407 q 409 406 412 406 q 403 407 406 406 l 308 463 q 304 467 305 464 q 302 472 302 469 l 302 582 q 304 589 302 586 q 308 593 305 591 l 403 647 l 403 647 m 1263 406 q 1259 406 1261 406 q 1253 408 1256 407 l 1223 426 q 1221 429 1221 429 q 1223 430 1222 430 q 1230 433 1227 431 q 1237 437 1232 434 q 1238 437 1237 437 q 1238 437 1238 437 l 1261 422 q 1263 422 1263 422 q 1264 422 1264 422 l 1355 475 q 1356 475 1355 475 q 1356 476 1356 476 l 1356 581 q 1356 581 1356 581 q 1355 583 1355 582 l 1264 635 q 1263 635 1264 635 q 1261 635 1263 635 l 1172 583 q 1171 581 1172 582 q 1171 581 1171 581 l 1171 476 q 1171 475 1171 476 q 1172 475 1172 475 l 1196 460 q 1213 458 1207 454 q 1218 469 1218 463 l 1218 571 q 1219 573 1218 572 q 1221 574 1219 574 l 1233 574 q 1234 573 1233 574 q 1234 571 1234 572 l 1234 469 q 1227 448 1234 456 q 1208 441 1221 441 q 1200 441 1204 441 q 1188 446 1196 442 l 1164 460 q 1157 467 1160 463 q 1154 476 1154 472 l 1154 581 q 1157 589 1154 585 q 1164 597 1160 594 l 1253 648 q 1263 651 1259 651 q 1272 648 1268 651 l 1362 597 q 1369 589 1367 594 q 1371 581 1371 585 l 1371 476 q 1369 467 1371 472 q 1362 460 1367 463 l 1272 408 q 1268 406 1271 407 q 1263 406 1265 406 l 1263 406 m 1291 477 q 1253 488 1261 477 q 1244 510 1244 499 q 1244 512 1244 511 q 1246 513 1245 513 l 1257 513 q 1259 512 1259 513 q 1260 511 1260 511 q 1267 497 1261 502 q 1291 492 1274 492 q 1312 496 1305 492 q 1318 507 1318 499 q 1314 515 1318 511 q 1286 521 1309 518 q 1257 528 1268 522 q 1246 548 1246 533 q 1257 569 1246 562 q 1287 576 1268 576 q 1320 569 1309 576 q 1332 545 1331 562 q 1332 545 1332 545 q 1332 544 1332 544 q 1331 543 1331 543 q 1329 543 1331 543 l 1318 543 q 1316 543 1317 543 q 1316 544 1316 544 q 1307 557 1313 553 q 1287 562 1301 562 q 1268 557 1272 562 q 1264 548 1264 552 q 1269 541 1264 544 q 1295 536 1274 538 q 1326 528 1316 533 q 1336 509 1336 522 q 1324 486 1336 494 q 1291 477 1313 477 l 1291 477 m 977 551 q 978 551 978 551 q 979 551 978 551 l 997 540 q 998 539 998 540 q 998 538 998 538 l 998 517 q 998 516 998 517 q 997 515 998 515 l 979 505 q 978 505 978 505 q 977 505 978 505 l 959 515 q 958 516 958 515 q 958 517 958 517 l 958 538 q 958 539 958 538 q 959 540 958 540 l 977 551 l 977 551 z "},"":{"ha":1389,"x_min":202,"x_max":1181,"o":"m 1100 1035 l 1100 218 l 283 218 l 283 1035 l 1100 1035 l 1100 1035 m 1181 1116 l 202 1116 l 202 137 l 1181 137 l 1181 1116 l 1181 1116 m 796 873 l 911 873 l 749 568 l 749 384 l 647 384 l 647 568 l 477 873 l 598 873 l 699 661 l 796 873 l 796 873 z "},"":{"ha":1389,"x_min":20,"x_max":1378,"o":"m 956 465 q 956 482 956 465 q 972 532 955 499 q 1002 557 990 564 q 1015 551 1015 551 q 1022 536 1015 551 q 1012 496 1029 521 q 975 469 994 472 q 956 467 956 467 l 956 465 m 774 435 q 718 388 754 382 q 682 393 682 393 q 681 414 682 393 q 696 488 680 435 q 740 537 712 543 q 768 532 768 532 q 781 510 768 532 q 774 435 795 488 l 774 435 m 726 731 q 747 778 726 731 q 776 785 769 825 q 737 663 784 746 q 690 579 690 579 q 709 668 692 605 q 726 731 726 731 l 726 731 m 142 467 q 168 538 144 517 q 205 549 193 560 q 212 517 217 538 q 186 481 208 496 q 153 466 163 467 q 142 465 142 465 l 142 467 m 1378 477 q 1366 494 1377 495 q 1355 492 1355 492 q 1335 479 1355 492 q 1293 469 1314 467 q 1272 504 1271 471 q 1272 537 1272 537 q 1274 568 1272 537 q 1261 602 1275 598 q 1236 596 1249 606 q 1223 586 1223 586 q 1208 567 1223 586 q 1184 519 1194 548 l 1181 518 q 1183 553 1181 518 q 1180 600 1184 587 q 1160 604 1177 605 q 1141 593 1143 602 q 1123 530 1137 583 q 1108 449 1109 477 q 1078 427 1108 449 q 1016 400 1047 406 q 972 408 983 395 q 962 420 962 420 q 1020 448 962 420 q 1076 547 1078 476 q 1025 610 1072 617 q 971 598 978 604 q 933 565 963 593 q 892 471 903 537 q 892 461 892 468 q 891 454 891 454 q 865 438 891 454 q 821 416 840 422 q 845 482 821 416 q 804 589 869 548 q 755 585 776 606 q 735 563 735 563 q 790 642 735 563 q 825 803 845 720 q 799 850 817 842 q 762 852 781 859 q 724 829 735 841 q 712 817 712 817 q 688 770 712 817 q 655 646 663 723 q 637 496 647 570 q 628 422 628 422 q 614 411 628 422 q 585 399 600 400 q 572 429 570 397 q 574 460 574 460 q 581 510 574 460 q 589 571 589 560 q 584 591 587 583 q 567 602 581 598 q 540 595 552 606 q 528 583 528 583 q 500 541 528 583 q 468 488 472 498 l 465 483 l 463 487 q 477 543 463 487 q 464 601 491 600 q 420 581 437 602 q 403 560 403 560 q 382 524 403 560 q 359 483 361 488 l 357 486 q 365 529 357 486 q 370 587 373 572 q 358 603 368 602 q 349 604 349 604 q 336 603 349 604 q 317 591 323 602 q 300 522 313 579 q 285 439 288 465 q 250 418 285 439 q 186 396 216 397 q 153 409 156 396 q 149 422 149 422 q 217 459 149 422 q 255 570 285 496 q 226 595 241 589 q 187 602 210 602 q 141 587 165 602 q 99 530 117 571 q 86 494 90 511 q 81 464 83 477 q 66 463 81 464 q 42 469 52 461 q 26 474 31 479 q 20 469 20 469 q 12 454 20 469 q 20 430 3 438 q 60 420 38 423 q 81 418 81 418 l 81 418 q 92 387 83 406 q 123 351 102 368 q 201 341 155 327 q 248 355 248 355 l 282 374 q 286 358 282 374 q 308 338 290 342 q 340 350 327 335 q 387 444 354 365 q 410 488 406 483 q 414 494 414 494 l 416 494 q 408 439 416 494 q 404 365 399 385 q 427 341 410 343 q 445 339 445 339 q 455 344 445 339 q 476 387 465 349 q 503 458 487 425 q 518 492 518 492 l 522 492 q 518 436 522 492 q 529 355 514 380 q 568 336 543 330 q 594 343 594 343 q 612 353 594 343 q 633 366 629 362 q 660 350 633 366 q 728 338 686 334 q 860 376 822 357 q 898 396 898 396 q 917 368 898 396 q 985 336 936 340 q 1072 355 1042 332 q 1103 378 1103 378 q 1105 361 1103 378 q 1128 336 1108 345 q 1160 357 1147 328 q 1172 387 1172 387 l 1217 509 l 1221 509 q 1227 467 1221 509 q 1267 418 1234 426 q 1333 427 1299 408 q 1367 446 1367 446 q 1374 453 1367 446 q 1378 477 1381 460 l 1378 477 z "},"":{"ha":1389,"x_min":11,"x_max":1371,"o":"m 355 909 q 355 855 355 909 q 355 727 355 802 l 355 547 l 346 530 q 320 495 338 513 q 285 468 302 477 q 249 454 264 457 q 212 450 233 450 q 155 460 179 450 q 107 494 130 471 q 66 561 77 524 q 65 637 56 598 q 79 674 69 658 q 106 708 88 690 q 157 743 130 734 q 220 751 183 753 q 259 745 243 750 q 293 730 275 741 q 304 722 300 724 q 311 720 309 719 q 311 727 311 720 q 313 743 312 734 q 316 761 315 753 q 319 772 317 769 q 315 777 319 774 q 300 787 312 780 q 258 800 277 796 q 212 804 240 804 q 163 800 182 804 q 118 783 144 796 q 51 728 79 764 q 11 647 23 693 q 7 597 7 629 q 12 548 7 566 q 61 461 26 498 q 148 407 96 425 q 174 399 165 400 q 210 399 183 399 q 245 399 235 399 q 267 404 255 400 q 302 418 286 410 q 335 438 319 426 q 347 447 342 444 q 353 450 353 450 q 353 444 353 450 q 354 430 354 438 l 354 408 l 419 407 l 419 911 l 387 911 q 364 911 373 911 q 355 909 355 910 l 355 909 m 882 859 l 882 819 l 932 819 l 932 898 l 882 898 l 882 859 l 882 859 m 564 880 q 562 876 563 879 q 563 869 562 873 l 563 861 l 650 860 l 735 860 l 736 865 q 738 871 738 868 q 738 876 738 875 q 724 881 736 880 q 652 882 712 882 q 591 882 617 883 q 564 880 566 882 l 564 880 m 1092 880 q 1088 873 1089 878 q 1090 864 1088 868 q 1105 861 1090 861 q 1177 860 1120 860 l 1263 860 l 1265 865 q 1267 872 1267 869 q 1265 878 1267 875 q 1252 882 1263 882 q 1179 883 1241 883 q 1113 882 1133 883 q 1092 880 1093 882 l 1092 880 m 612 803 q 556 784 582 796 q 511 753 530 772 q 474 709 488 732 q 450 654 460 685 q 445 630 446 640 q 444 601 444 620 q 448 553 444 571 q 465 510 453 536 q 479 484 473 492 q 502 460 486 475 q 541 428 522 439 q 585 407 559 416 q 611 399 602 400 q 648 399 620 399 q 686 399 677 399 q 712 407 694 400 q 815 481 777 430 q 853 601 853 533 q 850 648 854 628 q 833 693 845 667 q 817 720 823 711 q 795 745 811 728 q 770 767 780 760 q 746 781 761 774 q 724 791 736 787 q 703 799 711 796 q 656 804 684 803 q 612 803 629 806 l 612 803 m 700 745 q 750 714 727 735 q 787 666 773 693 q 788 538 818 602 q 688 454 758 475 q 648 450 673 450 q 609 454 624 450 q 541 497 570 467 q 502 568 511 528 q 520 680 488 627 q 610 749 552 732 q 654 751 625 753 q 700 745 684 750 l 700 745 m 1138 803 q 1039 754 1080 791 q 981 661 998 718 q 975 637 975 647 q 974 600 974 627 q 977 553 974 568 q 989 517 979 538 q 1040 448 1005 477 q 1118 404 1074 419 q 1169 397 1138 399 q 1222 401 1200 396 q 1356 503 1312 423 q 1371 669 1400 582 q 1318 750 1355 716 q 1232 799 1282 784 q 1185 804 1213 803 q 1138 803 1157 806 l 1138 803 m 1214 749 q 1271 720 1244 742 q 1312 670 1298 699 q 1325 636 1321 651 q 1329 601 1329 621 q 1319 547 1329 572 q 1290 500 1309 522 q 1259 475 1275 486 q 1223 457 1244 465 q 1201 452 1210 453 q 1176 450 1192 450 q 1120 460 1145 450 q 1072 492 1095 471 q 1046 525 1057 507 q 1031 562 1036 543 q 1026 605 1025 579 q 1032 647 1027 631 q 1072 711 1044 685 q 1135 747 1099 736 q 1174 752 1150 751 q 1214 749 1198 753 l 1214 749 m 906 793 l 882 793 l 882 608 q 880 427 882 454 q 865 376 878 400 q 855 359 863 369 q 841 343 848 350 q 829 331 834 336 q 825 324 825 326 q 840 300 825 321 q 857 279 856 279 q 884 311 863 279 q 916 361 906 342 q 930 412 929 388 q 932 600 932 437 l 932 795 l 906 793 l 906 793 z "},"":{"ha":1389,"x_min":7,"x_max":1381,"o":"m 168 777 l 168 722 l 164 722 q 125 724 145 726 q 87 716 104 723 q 26 671 47 704 q 7 591 5 637 q 13 555 8 571 q 26 528 18 540 q 60 496 39 507 q 111 480 80 484 q 172 478 133 476 q 241 487 210 480 l 244 488 l 244 834 l 168 834 l 168 777 l 168 777 m 163 662 l 168 661 l 168 540 l 161 538 q 123 541 138 537 q 99 555 109 544 q 87 574 91 563 q 84 600 84 586 q 96 642 84 625 q 127 662 107 658 q 146 663 134 663 q 163 662 157 663 l 163 662 m 289 796 l 289 758 l 365 758 l 365 796 l 363 834 l 327 834 l 289 834 l 289 796 l 289 796 m 494 724 q 454 718 473 723 q 416 705 434 712 l 410 701 l 410 673 q 410 650 410 656 q 411 644 410 644 q 460 663 441 658 q 499 666 479 667 q 511 665 509 666 q 517 663 514 665 q 522 656 521 661 q 524 643 524 651 q 524 635 524 639 q 524 632 524 632 q 508 630 521 632 q 487 627 495 628 q 424 606 446 620 q 396 567 401 591 q 395 547 395 560 q 396 526 395 533 q 405 505 399 514 q 419 491 411 496 q 475 477 439 479 q 586 484 510 475 l 593 484 l 593 571 q 592 635 593 606 q 591 667 591 663 q 576 705 589 692 q 538 722 564 718 q 517 724 532 723 q 494 724 502 724 l 494 724 m 528 557 l 528 533 l 517 530 q 492 529 506 529 q 475 532 479 529 q 462 543 465 534 q 464 562 458 552 q 473 570 467 566 q 487 576 479 574 q 507 580 492 578 q 525 582 521 582 l 528 583 l 528 557 l 528 557 m 730 724 q 682 719 709 723 q 633 708 655 715 l 629 708 l 629 480 l 705 480 l 705 570 l 705 659 l 713 661 q 723 663 718 662 q 736 663 728 663 q 751 663 747 663 q 758 661 754 662 q 767 654 764 658 q 773 644 770 650 q 775 627 774 640 q 776 560 776 613 l 776 480 l 850 480 l 850 570 q 849 646 849 631 q 848 667 849 662 q 841 684 845 677 q 830 699 837 692 q 803 715 818 709 q 765 723 788 722 q 749 724 754 724 q 730 724 743 724 l 730 724 m 1233 723 q 1177 698 1200 718 q 1145 648 1154 678 q 1138 622 1139 633 q 1137 591 1137 610 q 1137 574 1137 581 q 1139 562 1138 567 q 1164 511 1146 532 q 1211 481 1183 491 q 1264 475 1234 473 q 1316 486 1294 476 q 1360 522 1343 498 q 1381 581 1377 547 q 1373 653 1385 620 q 1336 704 1360 686 q 1315 715 1325 711 q 1290 723 1305 720 q 1261 724 1279 724 q 1233 723 1242 724 l 1233 723 m 1275 662 q 1291 650 1284 658 q 1302 628 1298 642 q 1304 617 1303 623 q 1305 600 1305 612 q 1304 583 1305 587 q 1302 572 1303 578 q 1292 551 1298 559 q 1276 538 1286 543 q 1269 536 1272 536 q 1259 536 1265 536 q 1249 536 1252 536 q 1242 538 1246 536 q 1227 550 1233 543 q 1217 568 1221 557 q 1213 595 1214 578 q 1215 623 1213 612 q 1223 644 1218 635 q 1236 658 1227 652 q 1255 665 1244 663 q 1275 662 1265 666 l 1275 662 m 1017 723 q 978 716 996 720 q 945 705 960 712 q 892 660 910 689 q 875 590 875 631 q 892 524 875 551 q 940 486 909 496 q 981 479 959 479 q 1020 484 1002 479 q 1027 486 1024 486 q 1031 487 1031 487 q 1029 475 1031 487 q 1027 458 1028 464 q 1013 436 1023 445 q 989 423 1004 427 q 960 420 981 420 q 928 423 939 420 q 907 428 918 425 q 888 435 897 431 l 880 439 l 880 370 l 894 366 q 926 358 910 361 q 960 355 941 355 q 1033 369 1002 355 q 1081 408 1063 382 q 1094 434 1089 419 q 1101 468 1099 449 q 1103 549 1103 477 q 1101 644 1103 621 l 1101 661 l 1109 661 l 1119 661 l 1131 686 q 1140 705 1137 697 q 1143 713 1143 712 q 1128 716 1142 713 q 1101 720 1115 719 q 1081 722 1092 722 q 1054 723 1070 723 q 1030 723 1040 723 q 1017 723 1020 723 l 1017 723 m 1029 646 q 1030 620 1029 637 q 1031 586 1031 602 l 1031 544 l 1027 543 q 1002 540 1015 540 q 982 543 990 540 q 960 561 967 548 q 951 594 952 574 q 954 622 951 610 q 966 643 958 633 q 989 658 975 652 q 1023 663 1004 663 l 1028 665 l 1029 646 l 1029 646 m 289 632 q 286 506 289 534 q 273 457 283 477 q 254 434 267 445 q 224 414 241 423 q 217 410 218 411 q 217 408 216 410 q 227 404 217 408 q 252 392 237 399 l 285 376 l 292 380 q 342 423 326 397 q 362 492 358 449 q 363 531 362 498 q 363 612 363 564 l 365 719 l 289 719 l 289 632 l 289 632 z "},"":{"ha":1389,"x_min":14,"x_max":1375,"o":"m 14 633 l 14 406 l 393 406 l 393 330 l 696 330 l 696 406 l 1375 406 l 1375 861 l 14 861 l 14 633 l 14 633 m 393 633 l 393 481 l 316 481 l 316 708 l 243 708 l 243 481 l 88 481 l 88 785 l 393 785 l 393 633 l 393 633 m 772 633 l 770 481 l 623 483 l 623 406 l 467 406 l 467 785 l 772 785 l 772 633 l 772 633 m 1301 633 l 1301 481 l 1225 481 l 1225 708 l 1149 708 l 1149 480 l 1073 483 l 1073 708 l 998 708 l 998 481 l 846 481 l 846 785 l 1301 785 l 1301 633 l 1301 633 m 623 633 l 623 559 l 693 559 l 693 708 l 623 708 l 623 633 l 623 633 z "},"":{"ha":1389,"x_min":16,"x_max":1373,"o":"m 608 807 l 589 804 l 589 481 l 640 481 l 640 644 l 650 651 q 659 659 654 655 q 667 665 665 662 q 692 669 677 669 q 715 663 707 669 q 728 640 726 656 q 731 560 731 624 l 731 481 l 787 481 l 787 559 q 784 644 787 623 q 770 681 781 666 q 719 711 754 707 q 655 694 684 715 q 647 688 651 690 q 642 685 643 685 q 641 703 642 685 q 640 747 640 722 q 636 806 639 800 q 608 807 633 811 l 608 807 m 1286 773 q 1276 770 1280 772 q 1271 768 1272 769 q 1269 758 1271 766 q 1265 738 1267 749 q 1259 707 1261 712 q 1251 703 1257 703 q 1233 699 1238 703 q 1223 681 1227 694 q 1219 670 1221 675 q 1218 663 1218 665 q 1224 663 1218 663 q 1238 662 1230 662 l 1260 662 l 1260 600 q 1261 551 1260 574 q 1263 521 1261 528 q 1298 482 1268 492 q 1360 487 1328 472 l 1373 492 l 1369 507 q 1365 519 1367 514 q 1363 525 1363 524 q 1357 524 1362 525 q 1347 522 1352 524 q 1333 520 1336 519 q 1324 524 1329 521 l 1317 530 l 1316 595 l 1314 662 l 1367 662 l 1367 705 l 1316 705 l 1314 741 q 1311 773 1314 769 q 1286 773 1308 777 l 1286 773 m 16 689 l 16 667 l 153 667 l 153 712 l 16 712 l 16 689 l 16 689 m 202 689 l 202 667 l 247 667 l 247 712 l 202 712 l 202 689 l 202 689 m 420 708 q 407 703 415 707 q 392 696 399 700 q 378 685 382 690 q 368 670 373 680 q 359 618 355 646 q 382 575 363 590 l 392 567 l 381 557 q 368 535 370 547 q 370 513 365 524 q 374 503 372 507 q 380 498 377 499 q 382 492 384 495 q 370 479 381 490 q 354 456 358 467 q 353 430 350 446 q 366 405 355 416 q 392 387 376 393 q 412 382 403 382 q 444 381 422 381 q 533 401 502 380 q 564 463 564 423 q 559 489 564 479 q 538 506 553 499 q 513 514 526 511 q 461 519 500 517 q 432 522 445 519 q 416 525 419 524 q 414 530 415 526 q 412 536 412 533 q 420 550 412 547 q 454 555 429 553 q 506 566 487 556 q 536 597 525 575 q 541 610 540 604 q 543 631 543 617 q 542 650 543 642 q 541 662 541 659 q 542 669 540 667 q 552 673 544 670 l 566 674 l 564 692 q 558 711 563 709 q 534 703 553 712 q 517 696 521 697 q 509 699 513 694 q 468 710 495 707 q 420 708 441 713 l 420 708 m 472 670 q 489 657 484 665 q 494 635 494 650 q 494 617 495 621 q 486 605 492 613 q 473 595 477 597 q 454 593 469 593 q 427 597 437 591 q 411 613 416 602 q 420 663 399 643 q 472 670 442 682 l 472 670 m 505 473 q 517 451 521 467 q 494 426 513 435 q 477 419 484 420 q 452 418 469 418 q 418 422 429 418 q 403 438 407 427 q 401 458 399 448 q 412 475 404 469 q 425 481 418 480 q 457 480 431 481 q 487 477 473 479 q 505 473 500 476 l 505 473 m 886 707 q 829 668 849 697 q 810 594 810 639 q 814 554 810 571 q 830 521 819 537 q 919 479 859 480 q 1009 518 979 477 q 1033 592 1032 547 q 1012 669 1034 637 q 958 705 994 694 q 886 707 922 716 l 886 707 m 939 667 q 966 644 956 662 q 977 594 977 625 q 975 575 977 586 q 972 557 974 564 q 922 519 960 521 q 869 556 883 518 q 865 595 865 570 q 869 633 865 620 q 897 665 878 655 q 939 667 916 674 l 939 667 m 1104 707 q 1065 684 1078 700 q 1051 643 1051 667 q 1065 603 1051 617 q 1114 578 1078 589 q 1147 564 1138 570 q 1161 551 1157 559 q 1160 534 1164 541 q 1146 522 1156 526 q 1117 521 1137 519 q 1082 526 1097 522 q 1062 530 1066 532 q 1054 514 1058 528 q 1050 499 1050 502 q 1054 494 1050 496 q 1105 480 1069 483 q 1162 486 1141 477 q 1199 510 1185 492 q 1213 551 1213 528 q 1199 589 1213 575 q 1150 616 1185 604 q 1133 622 1142 618 q 1119 627 1123 625 q 1103 643 1105 633 q 1108 662 1100 652 q 1131 670 1116 669 q 1168 666 1146 671 q 1184 663 1176 665 q 1194 663 1192 662 q 1197 668 1195 663 q 1200 680 1199 673 q 1203 693 1203 690 q 1199 699 1203 696 q 1156 709 1188 707 q 1104 707 1124 712 l 1104 707 m 16 597 l 16 574 l 247 574 l 247 618 l 16 618 l 16 597 l 16 597 m 16 505 l 16 484 l 106 484 l 106 525 l 16 525 l 16 505 l 16 505 m 156 505 l 156 484 l 247 484 l 247 525 l 156 525 l 156 505 l 156 505 z "},"":{"ha":1389,"x_min":14,"x_max":1375,"o":"m 14 269 l 14 487 l 232 487 l 232 704 l 449 704 l 449 922 l 667 922 l 667 269 l 14 269 m 722 922 q 976 871 857 922 q 1183 730 1095 819 q 1324 523 1272 642 q 1375 269 1375 404 l 722 269 l 722 922 l 722 922 z "},"":{"ha":1389,"x_min":203,"x_max":1185,"o":"m 968 1069 q 871 1044 928 1058 q 773 1020 814 1031 l 673 994 l 644 943 l 616 891 l 494 891 l 203 601 l 494 311 l 613 311 l 643 258 q 669 219 655 236 q 689 201 682 202 q 787 174 703 197 q 997 117 872 151 q 1051 104 1028 109 q 1074 99 1074 99 q 1085 134 1076 100 q 1108 214 1095 168 q 1136 317 1120 259 q 1161 411 1152 376 l 1184 496 l 1156 544 q 1136 581 1145 564 q 1127 601 1127 597 q 1136 621 1127 604 q 1157 658 1145 637 l 1185 707 l 1165 777 q 1111 962 1135 883 q 1077 1062 1086 1040 l 1065 1090 l 968 1069 l 968 1069 m 922 939 q 897 892 921 936 q 838 791 872 848 l 755 648 l 582 648 q 460 650 510 648 q 412 654 411 651 q 447 689 415 655 q 521 769 479 723 q 612 860 586 838 q 662 886 639 882 q 715 898 675 888 q 793 918 754 907 q 900 944 873 940 q 922 939 926 948 l 922 939 m 1029 860 q 1046 804 1034 846 q 1070 713 1058 761 l 1101 598 l 1074 500 q 1052 416 1063 460 q 1034 351 1040 372 q 1021 317 1028 330 q 1012 308 1015 304 q 983 353 1009 311 q 925 453 958 396 q 867 562 884 524 q 852 609 849 600 q 881 665 856 620 q 935 761 906 711 q 987 850 963 811 q 1013 891 1010 890 q 1021 882 1016 891 q 1029 860 1025 872 l 1029 860 m 798 475 q 900 298 873 346 q 922 248 926 251 q 877 256 921 245 q 773 281 833 266 l 627 320 l 521 427 q 447 506 479 472 q 414 544 415 540 q 458 549 412 548 q 582 551 503 551 l 754 548 l 798 475 l 798 475 z "},"":{"ha":1389,"x_min":300,"x_max":1089,"o":"m 1058 647 l 1050 661 q 1020 775 1050 738 q 949 836 990 812 q 973 844 962 840 q 987 864 985 849 q 1016 879 1009 869 q 1024 899 1023 888 q 1044 913 1031 903 q 1054 943 1057 924 q 1069 959 1065 949 q 1072 982 1074 968 q 1086 1004 1082 994 q 1084 1024 1089 1015 q 1095 1052 1097 1042 q 1086 1070 1092 1062 q 1087 1105 1096 1089 q 1051 1116 1078 1120 q 1021 1134 1039 1134 q 998 1134 1002 1134 q 987 1143 994 1139 q 963 1143 979 1146 q 940 1154 952 1154 q 914 1149 928 1153 q 888 1156 899 1161 q 865 1147 878 1150 q 840 1148 848 1153 q 823 1139 833 1143 q 795 1137 804 1143 q 776 1120 785 1130 l 761 1120 q 715 1072 731 1103 q 694 1024 700 1042 q 673 1072 689 1042 q 627 1120 658 1103 l 613 1120 q 593 1137 602 1130 q 566 1139 585 1143 q 549 1148 556 1143 q 524 1147 541 1153 q 508 1153 515 1149 q 492 1157 500 1157 l 492 1157 q 484 1154 488 1156 q 475 1149 479 1153 q 449 1154 461 1153 q 426 1143 437 1154 q 402 1143 410 1146 q 391 1134 395 1139 q 368 1134 387 1134 q 338 1116 350 1134 q 302 1105 311 1120 q 302 1070 293 1089 q 294 1052 297 1062 q 305 1024 292 1042 q 303 1004 300 1015 q 317 982 307 994 q 319 959 315 968 q 335 943 324 949 q 345 913 332 924 q 365 899 358 903 q 373 879 366 888 q 401 864 380 869 q 416 844 404 849 q 439 836 427 840 q 369 775 399 812 q 339 661 339 738 l 331 647 q 260 541 285 618 q 300 389 235 463 q 311 348 304 366 q 324 311 317 330 q 380 201 334 237 q 442 160 426 164 q 493 125 467 142 q 555 96 519 109 q 623 48 587 62 q 693 34 658 34 q 694 34 694 34 q 696 34 694 34 q 766 48 731 34 q 834 96 802 62 q 896 125 869 109 q 947 160 922 142 q 1009 201 963 164 q 1065 311 1055 237 q 1078 348 1072 330 q 1089 389 1085 366 q 1129 541 1154 463 q 1058 647 1104 618 l 1058 647 m 1002 665 q 968 669 1001 648 q 899 722 935 690 q 837 782 863 753 q 825 812 811 811 q 951 785 899 826 q 1002 665 1004 745 l 1002 665 m 770 1092 q 774 1081 772 1085 q 777 1076 776 1077 q 795 1095 787 1085 q 814 1114 803 1104 q 813 1103 814 1108 q 819 1093 812 1097 q 833 1109 825 1101 q 852 1122 841 1116 q 850 1108 848 1112 q 854 1101 852 1104 q 872 1115 863 1108 q 897 1128 882 1122 q 889 1118 892 1123 q 892 1107 886 1112 q 911 1117 901 1112 q 941 1126 921 1122 q 931 1116 937 1120 q 930 1105 925 1111 q 954 1112 941 1109 q 978 1118 966 1115 q 968 1107 972 1112 q 970 1097 964 1101 q 996 1105 981 1101 q 1027 1104 1012 1108 l 1013 1090 q 1031 1089 1013 1089 q 1065 1089 1050 1089 q 1054 1072 1059 1081 q 1046 1048 1048 1062 q 1054 1048 1047 1047 q 1067 1048 1061 1048 q 1050 1025 1061 1032 q 1036 1012 1039 1019 q 1046 1009 1040 1009 q 1059 1012 1053 1009 q 1044 992 1054 1001 q 1025 974 1035 983 q 1032 972 1028 972 q 1046 972 1036 971 q 1027 955 1038 963 q 1006 939 1017 947 q 1014 937 1008 937 q 1027 936 1020 936 q 1003 918 1016 925 q 977 905 990 911 q 988 900 983 901 q 998 901 993 899 q 975 888 989 892 q 945 878 960 883 q 951 872 948 873 q 962 869 955 871 q 927 861 945 860 q 902 857 909 861 q 908 850 905 853 q 917 844 911 846 q 841 852 892 842 q 776 916 789 863 q 850 977 802 944 q 978 1053 898 1010 q 860 1002 916 1031 q 758 935 804 974 q 724 1013 703 960 q 770 1092 745 1066 l 770 1092 m 694 841 l 694 841 q 772 817 734 841 q 811 765 811 792 q 779 723 810 741 q 694 705 747 705 q 611 727 643 707 q 579 772 579 747 q 614 817 579 791 q 694 841 650 842 l 694 841 m 430 869 q 439 872 437 871 q 446 878 442 873 q 416 888 431 883 q 393 901 401 892 q 403 900 397 899 q 415 905 408 901 q 388 918 401 911 q 363 936 374 925 q 377 937 370 936 q 385 939 384 937 q 363 955 373 947 q 345 972 354 963 q 359 972 354 971 q 366 974 363 972 q 347 992 357 983 q 331 1012 336 1001 q 345 1009 338 1009 q 355 1012 351 1009 q 342 1025 353 1019 q 324 1048 331 1032 q 338 1048 331 1048 q 346 1048 345 1047 q 338 1071 343 1062 q 326 1088 332 1080 q 360 1089 342 1089 q 377 1090 378 1089 l 365 1104 q 395 1105 380 1108 q 422 1097 410 1101 q 423 1107 427 1101 q 414 1118 419 1112 q 438 1112 426 1115 q 461 1105 450 1109 q 460 1116 467 1111 q 449 1126 454 1120 q 480 1117 469 1122 q 499 1107 491 1112 q 503 1118 506 1112 q 494 1128 499 1123 q 519 1115 510 1122 q 536 1101 528 1108 q 541 1108 538 1104 q 538 1122 544 1112 q 557 1109 549 1116 q 572 1093 566 1101 q 578 1103 579 1097 q 578 1114 578 1108 q 597 1095 589 1104 q 614 1076 605 1085 q 617 1081 616 1077 q 620 1092 618 1085 q 668 1013 647 1066 q 633 935 689 960 q 530 1002 586 974 q 414 1053 475 1031 q 541 977 492 1010 q 616 916 590 944 q 551 852 602 863 q 475 844 499 842 q 483 850 479 846 q 488 857 487 853 q 465 861 483 861 q 430 869 446 860 l 430 869 m 552 817 q 541 785 566 814 q 479 724 515 755 q 410 673 442 693 q 376 667 377 652 q 426 788 373 747 q 552 817 479 829 l 552 817 m 332 407 q 290 510 293 438 q 359 623 288 582 q 385 592 380 628 q 385 513 391 556 q 363 434 378 469 q 332 407 349 399 l 332 407 m 530 191 q 465 189 510 179 q 382 252 419 199 q 358 338 357 298 q 377 392 359 378 q 440 390 403 408 q 509 335 477 372 q 545 256 536 302 q 530 191 553 209 l 530 191 m 475 454 q 428 532 434 480 q 453 629 422 583 q 534 690 484 675 q 623 680 583 705 q 669 602 663 654 q 644 503 675 551 q 564 442 613 457 q 475 454 514 427 l 475 454 m 694 69 q 608 96 647 66 q 570 140 568 126 q 614 175 568 161 q 697 189 659 189 q 777 178 736 190 q 818 146 818 165 q 779 98 818 129 q 694 69 741 68 l 694 69 m 825 343 q 787 260 825 294 q 697 225 750 225 q 607 259 644 225 q 570 342 570 293 q 570 342 570 342 q 570 343 570 343 q 606 427 570 392 q 696 461 643 461 q 787 427 749 461 q 825 345 825 393 q 825 344 825 345 q 825 343 825 343 l 825 343 m 745 510 q 720 608 713 556 q 766 685 726 659 q 855 697 806 712 q 936 636 905 682 q 961 537 967 589 q 914 460 955 486 q 825 449 875 434 q 745 510 776 464 l 745 510 m 1004 250 q 915 184 962 193 q 846 191 868 176 q 838 263 826 212 q 880 350 850 315 l 880 350 q 948 408 914 388 q 1006 408 982 427 q 1028 339 1024 391 q 1004 250 1032 288 l 1004 250 m 1046 410 q 1014 437 1028 403 q 994 516 1000 472 q 992 596 987 560 q 1019 625 997 632 q 1086 513 1089 585 q 1046 410 1084 441 l 1046 410 z "},"":{"ha":1389,"x_min":201,"x_max":1183,"o":"m 1050 620 q 958 620 1001 620 q 916 620 916 620 l 952 788 q 1004 788 952 788 q 1081 788 1055 788 q 1163 764 1143 788 q 1183 715 1183 739 q 1155 650 1183 681 q 1050 620 1127 620 l 1050 620 m 1134 473 q 1106 409 1134 439 q 1000 378 1078 378 q 909 378 951 378 q 867 378 867 378 l 902 548 q 954 548 902 548 q 1031 548 1005 548 q 1114 523 1093 548 q 1134 473 1134 498 l 1134 473 m 738 770 q 648 770 690 770 q 605 770 605 770 l 642 940 q 692 940 642 940 q 769 940 743 940 q 852 916 831 940 q 872 867 872 891 q 844 801 872 831 q 738 770 817 770 l 738 770 m 826 612 q 798 546 826 576 q 692 515 770 515 q 602 515 644 515 q 559 515 559 515 l 595 685 q 646 685 595 685 q 723 685 697 685 q 806 661 785 685 q 826 612 826 636 l 826 612 m 777 346 q 749 281 777 312 q 643 251 722 251 q 551 251 594 251 q 509 251 509 251 l 545 420 q 597 420 545 420 q 674 420 648 420 q 757 395 736 420 q 777 346 777 370 l 777 346 m 381 770 q 290 770 332 770 q 248 770 248 770 l 283 940 q 335 940 283 940 q 412 940 387 940 q 495 916 475 940 q 515 867 515 891 q 488 801 515 831 q 381 770 460 770 l 381 770 m 469 612 q 441 546 469 576 q 335 515 414 515 q 243 515 286 515 q 201 515 201 515 l 237 685 q 289 685 237 685 q 366 685 340 685 q 449 661 429 685 q 469 612 469 636 l 469 612 z "},"":{"ha":1389,"x_min":285,"x_max":1105,"o":"m 670 1153 q 649 1151 666 1153 q 613 1147 632 1149 q 519 1126 563 1141 q 445 1090 476 1112 q 431 1083 434 1084 q 419 1086 427 1082 q 385 1093 408 1092 q 346 1088 361 1093 q 313 1067 326 1081 q 296 1032 300 1053 q 296 999 293 1016 q 308 970 300 982 q 327 952 312 963 q 353 937 342 941 q 353 924 354 937 q 349 892 351 910 q 342 844 343 864 q 343 781 342 823 q 345 726 343 754 q 350 685 347 697 q 354 655 351 671 q 357 628 357 639 l 359 604 l 345 601 q 308 587 328 598 q 285 568 288 576 q 285 551 282 560 q 297 532 288 541 q 315 522 307 521 q 340 533 324 522 l 354 541 l 354 391 q 355 255 354 277 q 361 220 355 233 q 382 180 369 201 q 411 142 396 159 l 427 126 l 411 115 q 388 92 397 106 q 378 66 378 79 q 381 58 378 62 q 391 47 384 53 q 403 37 397 39 q 418 35 408 35 q 434 38 429 35 q 452 50 439 41 q 468 63 458 57 q 483 73 477 69 l 496 80 l 528 69 q 596 52 566 57 q 677 47 627 47 q 791 58 739 49 q 882 84 844 66 q 895 90 888 87 q 905 92 902 92 q 916 84 906 92 q 936 65 925 76 q 960 41 955 45 q 975 41 964 38 q 998 52 989 42 q 1008 73 1008 61 q 1001 98 1008 87 q 981 123 994 110 l 964 137 l 979 159 q 1015 224 1001 189 q 1038 308 1028 259 q 1043 392 1042 338 q 1040 510 1044 446 q 1040 538 1040 526 q 1039 549 1039 549 q 1044 547 1039 549 q 1054 541 1048 545 q 1077 533 1067 533 q 1095 543 1086 533 q 1104 557 1101 549 q 1105 576 1107 564 q 1094 594 1104 587 q 1061 608 1084 601 q 1044 612 1051 609 q 1036 614 1038 614 q 1035 654 1036 616 q 1034 746 1034 693 q 1029 873 1031 848 q 1015 951 1027 899 q 1015 956 1015 954 q 1017 958 1015 958 q 1038 970 1023 958 q 1058 991 1053 982 q 1069 1036 1070 1012 q 1053 1080 1067 1059 q 1009 1107 1038 1100 q 949 1103 981 1114 l 929 1096 l 913 1107 q 868 1130 895 1119 q 815 1146 841 1141 q 741 1153 793 1150 q 670 1153 688 1156 l 670 1153 m 796 1137 q 925 1082 878 1123 q 998 963 972 1042 q 1017 873 1013 917 q 1024 696 1021 829 q 1027 562 1025 629 q 1031 467 1028 495 q 1032 410 1032 439 q 1032 366 1032 380 q 1018 274 1028 317 q 991 201 1008 231 q 965 159 982 180 q 941 136 948 138 q 931 131 937 136 q 920 122 925 126 q 832 79 891 95 q 693 60 773 62 q 610 62 644 58 q 537 79 576 66 q 509 90 517 85 q 490 104 500 95 q 467 125 477 118 q 446 132 456 132 q 408 165 434 132 q 372 228 382 198 q 363 307 365 248 q 365 486 361 365 l 369 625 l 362 686 q 361 901 346 808 q 420 1050 376 994 q 472 1093 441 1074 q 547 1123 503 1111 q 673 1140 591 1135 q 796 1137 754 1145 l 796 1137 m 1024 1089 q 1057 1035 1055 1073 q 1028 977 1058 997 q 1017 970 1021 974 q 1010 967 1012 967 q 1008 973 1010 967 q 1001 987 1005 979 l 994 1008 l 1002 1019 q 1009 1028 1008 1024 q 1009 1036 1010 1032 q 999 1052 1006 1048 q 978 1053 991 1055 q 968 1054 972 1051 q 955 1069 964 1057 q 945 1082 949 1076 q 943 1088 941 1088 q 948 1090 943 1089 q 962 1095 954 1092 q 994 1097 978 1099 q 1024 1089 1010 1096 l 1024 1089 m 401 1080 q 414 1076 408 1078 q 419 1073 419 1074 q 416 1065 420 1072 q 407 1053 412 1059 q 393 1037 397 1039 q 381 1035 389 1035 q 370 1036 373 1036 q 362 1028 368 1035 q 355 1013 355 1020 q 363 998 355 1006 l 370 989 l 365 970 q 359 957 362 963 q 354 951 355 951 q 338 959 350 951 q 320 974 326 967 q 310 1036 298 1002 q 354 1078 321 1069 q 377 1082 369 1082 q 401 1080 385 1082 l 401 1080 m 1072 598 q 1096 583 1088 591 q 1101 564 1104 574 l 1100 556 l 1088 563 q 1080 567 1084 566 q 1076 567 1076 568 q 1076 564 1074 566 q 1080 562 1077 562 q 1090 554 1088 559 q 1089 544 1093 549 q 1075 540 1085 538 q 1053 549 1065 541 l 1036 560 l 1036 583 q 1038 602 1036 598 q 1044 605 1039 605 q 1055 603 1047 605 q 1072 598 1063 601 l 1072 598 m 358 585 q 355 556 358 566 q 340 540 351 547 q 317 528 326 529 q 302 533 309 526 q 297 540 297 538 q 301 544 297 541 q 313 553 311 551 q 313 557 316 556 q 309 556 312 557 q 301 552 305 555 q 294 548 296 548 q 290 551 292 548 q 295 572 286 563 q 326 590 304 582 q 352 595 346 597 q 358 585 358 594 l 358 585 m 974 122 q 996 94 986 113 q 1001 66 1005 76 q 995 58 998 57 q 985 73 991 58 q 977 85 981 80 q 972 91 974 91 q 972 85 971 91 q 978 72 974 80 q 985 57 982 64 q 986 49 987 50 q 981 47 985 47 q 972 46 978 46 q 960 50 966 46 q 941 69 955 54 q 925 85 933 79 q 914 94 917 92 q 909 102 907 96 q 924 118 911 107 q 948 131 937 130 q 974 122 959 132 l 974 122 m 464 119 q 474 113 468 118 q 486 100 480 107 l 498 87 l 484 81 q 469 72 479 79 q 452 58 460 65 q 427 41 435 45 q 408 42 418 38 q 400 47 401 45 q 401 54 399 49 q 406 64 403 58 q 414 75 410 71 q 418 83 416 79 q 420 88 420 87 q 410 79 418 90 q 397 61 401 69 q 391 53 395 53 q 387 61 388 53 q 392 89 382 75 q 422 115 401 103 q 445 124 437 123 q 464 119 453 125 l 464 119 m 789 1096 q 743 1073 764 1089 q 713 1034 723 1057 q 706 994 705 1017 q 715 954 707 970 q 739 920 723 936 q 772 898 755 905 q 819 892 792 891 q 863 902 846 892 q 903 936 890 916 q 918 987 916 956 q 918 1015 918 1006 q 911 1034 917 1023 q 890 1065 902 1053 q 861 1086 879 1077 q 824 1097 844 1095 q 789 1096 804 1100 l 789 1096 m 853 1084 q 909 1021 895 1065 q 898 940 922 978 q 827 898 875 903 q 746 922 779 892 q 712 983 716 948 q 728 1048 708 1017 q 785 1088 749 1078 q 853 1084 821 1099 l 853 1084 m 734 1010 q 728 970 713 993 q 768 955 742 948 q 786 967 779 958 q 793 987 793 977 q 772 1018 793 1009 q 734 1010 750 1027 l 734 1010 m 519 1084 q 482 1062 500 1077 q 454 1029 464 1047 q 448 1010 449 1019 q 446 985 446 1002 q 448 958 446 967 q 453 940 449 949 q 530 882 477 892 q 623 907 583 872 q 649 941 642 925 q 656 982 656 958 q 655 1008 656 1000 q 647 1028 654 1016 q 608 1071 633 1055 q 551 1086 582 1086 q 532 1085 541 1086 q 519 1084 524 1084 l 519 1084 m 600 1069 q 651 980 654 1038 q 593 894 648 922 q 550 886 575 886 q 506 897 525 887 q 451 984 450 924 q 509 1072 452 1044 q 527 1078 519 1077 q 555 1080 534 1080 q 582 1076 574 1078 q 600 1069 590 1074 l 600 1069 m 486 1012 q 469 1001 477 1009 q 460 985 461 993 q 463 966 458 977 q 475 949 467 955 q 484 946 477 948 q 495 944 490 944 q 529 971 524 944 q 509 1009 534 998 q 496 1013 499 1013 q 486 1012 494 1013 l 486 1012 m 670 922 q 650 913 658 920 q 639 898 642 907 q 636 890 639 894 q 628 884 633 886 q 606 861 613 876 q 604 831 598 845 q 616 821 606 826 q 635 817 625 817 l 644 817 l 642 799 q 640 771 639 783 q 648 753 642 760 q 663 747 655 747 q 680 755 671 747 l 689 762 l 694 755 q 712 749 700 749 q 731 755 724 749 q 736 765 735 760 q 736 789 738 770 l 735 817 l 746 817 q 773 843 773 817 q 745 884 773 869 q 734 890 738 887 q 731 897 731 894 q 725 910 730 905 q 709 920 720 916 q 692 924 700 924 q 670 922 685 925 l 670 922 m 741 879 q 760 863 754 872 q 766 842 766 853 q 765 830 766 833 q 755 825 764 827 q 735 822 747 821 q 704 831 723 823 q 686 835 692 836 q 665 830 681 834 q 623 825 636 821 q 608 845 609 829 q 612 862 608 854 q 627 876 617 869 q 640 882 636 882 q 651 878 643 882 q 665 873 656 875 q 680 869 673 871 q 695 871 689 869 q 711 876 701 872 q 722 883 718 880 q 727 886 726 886 q 731 884 727 886 q 741 879 735 882 l 741 879 m 686 799 q 681 765 684 773 q 670 755 678 757 q 650 762 655 751 q 647 795 644 772 l 650 818 l 666 823 q 678 827 673 826 q 685 829 684 829 q 686 820 686 829 q 686 799 686 811 l 686 799 m 711 822 q 727 811 723 818 q 731 785 731 804 q 730 767 731 772 q 723 758 728 762 q 706 755 715 753 q 696 766 697 758 q 694 774 694 770 q 693 780 693 779 q 693 806 690 785 q 697 826 696 826 q 703 825 699 826 q 711 822 707 823 l 711 822 z "},"":{"ha":1389,"x_min":297,"x_max":1092,"o":"m 933 993 q 821 946 867 993 q 774 834 774 899 q 796 753 774 789 q 853 697 818 718 l 853 675 q 833 595 853 675 q 694 515 814 515 q 606 506 646 515 q 536 480 567 496 l 536 856 q 593 913 571 876 q 614 993 614 949 q 568 1106 614 1059 q 456 1153 522 1153 q 343 1106 389 1153 q 297 993 297 1059 q 319 913 297 949 q 376 856 340 876 l 376 335 q 319 277 340 313 q 297 198 297 241 q 343 85 297 132 q 456 38 389 38 q 568 85 522 38 q 614 198 614 132 q 603 256 614 229 q 572 305 591 283 q 619 342 590 327 q 694 357 648 357 q 877 406 812 357 q 972 515 941 456 q 1008 625 1002 575 q 1013 675 1013 675 l 1013 697 q 1070 753 1048 718 q 1092 834 1092 789 q 1046 946 1092 899 q 933 993 1000 993 l 933 993 m 456 1073 q 512 1050 488 1073 q 536 993 536 1027 q 512 937 536 960 q 456 914 488 914 q 399 937 423 914 q 376 993 376 960 q 399 1050 376 1027 q 456 1073 423 1073 l 456 1073 m 456 118 q 399 141 423 118 q 376 198 376 164 q 399 254 376 231 q 456 277 423 277 q 512 254 488 277 q 536 198 536 231 q 512 141 536 164 q 456 118 488 118 l 456 118 m 933 754 q 877 778 901 754 q 853 834 853 802 q 877 890 853 867 q 933 914 901 914 q 989 890 966 914 q 1013 834 1013 867 q 989 778 1013 802 q 933 754 966 754 l 933 754 z "},"":{"ha":1389,"x_min":250,"x_max":1139,"o":"m 397 1077 q 293 1034 336 1077 q 250 929 250 990 q 270 854 250 888 q 324 802 290 821 l 324 315 q 270 262 290 296 q 250 187 250 229 q 293 83 250 126 q 397 39 336 39 q 503 83 460 39 q 547 187 547 126 q 526 262 547 229 q 472 315 506 296 l 472 802 q 526 854 506 821 q 547 929 547 888 q 503 1034 547 990 q 397 1077 460 1077 l 397 1077 m 397 114 q 346 136 368 114 q 324 187 324 157 q 346 240 324 218 q 397 262 368 262 q 450 240 429 262 q 472 187 472 218 q 450 136 472 157 q 397 114 429 114 l 397 114 m 397 854 q 346 876 368 854 q 324 929 324 898 q 346 981 324 959 q 397 1002 368 1002 q 450 981 429 1002 q 472 929 472 959 q 450 876 472 898 q 397 854 429 854 l 397 854 m 1065 315 l 1065 780 q 1030 909 1065 864 q 954 975 996 955 q 878 999 913 996 q 842 1002 842 1002 l 769 1002 l 769 1152 l 547 929 l 769 707 l 769 854 q 789 854 769 854 q 842 854 810 854 q 904 817 891 854 q 917 780 917 780 l 917 315 q 863 262 884 296 q 842 187 842 229 q 886 83 842 126 q 991 39 929 39 q 1096 83 1053 39 q 1139 187 1139 126 q 1119 262 1139 229 q 1065 315 1099 296 l 1065 315 m 991 114 q 939 136 960 114 q 917 187 917 157 q 939 240 917 218 q 991 262 960 262 q 1043 240 1021 262 q 1065 187 1065 218 q 1043 136 1065 157 q 991 114 1021 114 l 991 114 z "},"":{"ha":1389,"x_min":218,"x_max":1171,"o":"m 1012 674 q 931 652 967 674 q 875 594 895 629 q 864 595 869 594 q 853 595 859 595 q 734 617 792 595 q 627 676 677 639 q 540 764 578 713 q 480 872 502 815 q 521 925 506 894 q 536 991 536 956 q 490 1104 536 1058 q 377 1150 444 1150 q 265 1104 312 1150 q 218 991 218 1058 q 241 912 218 948 q 298 854 263 876 l 298 335 q 241 279 263 315 q 218 199 218 243 q 265 87 218 133 q 377 41 312 41 q 490 87 444 41 q 536 199 536 133 q 514 279 536 243 q 457 335 492 315 l 457 621 q 541 545 495 579 q 638 487 587 511 q 743 450 689 463 q 853 437 798 437 q 864 437 859 437 q 875 437 869 437 q 931 379 895 401 q 1012 357 967 357 q 1124 404 1077 357 q 1171 515 1171 450 q 1124 628 1171 582 q 1012 674 1077 674 l 1012 674 m 377 119 q 321 142 345 119 q 298 199 298 165 q 321 255 298 232 q 377 278 345 278 q 433 255 410 278 q 457 199 457 232 q 433 142 457 165 q 377 119 410 119 l 377 119 m 377 913 q 321 936 345 913 q 298 991 298 959 q 321 1048 298 1024 q 377 1072 345 1072 q 433 1048 410 1072 q 457 991 457 1024 q 433 936 457 959 q 377 913 410 913 l 377 913 m 1012 437 q 956 460 979 437 q 932 515 932 483 q 956 572 932 549 q 1012 595 979 595 q 1067 572 1044 595 q 1090 515 1090 549 q 1067 460 1090 483 q 1012 437 1044 437 l 1012 437 z "},"":{"ha":1389,"x_min":216,"x_max":1173,"o":"m 1104 378 l 1104 807 q 1002 987 1104 962 q 899 1013 899 1013 l 831 1013 l 831 1149 l 627 944 l 831 739 l 831 876 q 850 876 831 876 q 899 876 869 876 q 957 842 945 876 q 968 807 968 807 l 968 378 q 918 330 937 361 q 899 260 899 298 q 939 163 899 203 q 1036 123 979 123 q 1133 163 1093 123 q 1173 260 1173 203 q 1154 330 1173 298 q 1104 378 1135 361 l 1104 378 m 1036 193 q 988 212 1008 193 q 968 260 968 232 q 988 309 968 289 q 1036 328 1008 328 q 1084 309 1065 328 q 1104 260 1104 289 q 1084 212 1104 232 q 1036 193 1065 193 l 1036 193 m 285 812 l 285 382 q 387 203 285 229 q 490 178 490 178 l 557 178 l 557 41 l 762 247 l 557 452 l 557 315 q 538 315 557 315 q 490 315 519 315 q 432 349 444 315 q 420 382 420 382 l 420 812 q 471 861 452 830 q 490 930 490 892 q 450 1027 490 986 q 353 1067 410 1067 q 256 1027 296 1067 q 216 930 216 986 q 235 861 216 892 q 285 812 254 830 l 285 812 m 353 859 q 304 879 324 859 q 285 928 285 899 q 304 975 285 955 q 353 996 324 996 q 401 975 381 996 q 420 928 420 955 q 401 879 420 899 q 353 859 381 859 l 353 859 z "},"":{"ha":1389,"x_min":209,"x_max":1180,"o":"m 962 665 q 865 813 939 754 q 694 872 791 872 q 524 813 598 872 q 427 665 450 754 l 209 665 l 209 526 l 427 526 q 524 377 450 437 q 694 317 598 317 q 865 377 791 317 q 962 526 939 437 l 1180 526 l 1180 665 l 962 665 l 962 665 m 694 457 q 597 498 637 457 q 556 595 556 538 q 597 693 556 652 q 694 734 637 734 q 792 693 751 734 q 833 595 833 652 q 792 498 833 538 q 694 457 751 457 l 694 457 z "},"":{"ha":1389,"x_min":256,"x_max":1185,"o":"m 591 1073 q 538 1056 572 1069 q 476 1029 503 1043 q 410 993 434 1010 q 350 937 387 975 q 294 876 312 899 q 256 811 277 852 q 203 594 203 701 q 256 376 203 487 q 294 311 277 335 q 350 250 311 288 q 411 195 388 212 q 476 157 434 178 q 583 117 540 126 q 693 107 625 107 q 804 117 761 107 q 910 157 846 126 q 975 195 952 178 q 1038 250 998 212 q 1093 312 1076 289 q 1130 376 1109 335 q 1164 464 1154 430 q 1180 551 1175 498 l 1185 594 l 1047 594 l 1038 540 q 956 363 1021 434 q 802 262 890 292 q 620 252 715 233 q 448 346 525 271 q 361 483 387 406 q 347 637 336 560 q 401 784 357 715 q 521 898 445 853 q 597 930 549 916 q 670 944 644 944 l 693 944 l 693 1084 l 667 1084 q 634 1080 656 1084 q 591 1073 612 1077 l 591 1073 m 617 883 q 517 835 562 868 q 442 756 472 802 q 400 657 412 711 q 397 547 388 604 q 440 435 408 486 q 519 350 472 384 q 623 302 566 316 q 739 297 680 288 q 851 340 800 308 q 936 419 902 373 q 985 522 970 465 q 990 639 1000 579 q 942 758 978 705 q 855 845 906 811 q 743 890 804 879 q 617 883 681 901 l 617 883 z "},"":{"ha":1389,"x_min":203,"x_max":1185,"o":"m 994 743 q 1004 746 998 745 q 1017 749 1010 747 l 1088 749 l 1099 765 q 1099 765 1099 765 q 1100 765 1099 765 l 1127 804 q 1126 804 1127 804 q 1126 804 1126 804 l 1128 808 l 745 808 l 760 749 l 864 749 l 688 590 q 608 695 662 627 q 510 829 553 764 l 642 829 l 642 873 l 643 884 q 642 884 643 884 q 642 884 642 884 l 642 888 l 203 888 l 203 829 l 334 829 q 393 768 353 814 q 475 671 433 722 q 549 576 517 620 q 585 525 582 533 q 588 437 587 507 q 581 359 589 368 q 519 345 567 345 q 454 343 471 345 l 448 302 q 548 303 476 301 q 648 305 620 305 q 783 305 705 305 q 875 304 861 305 l 878 347 q 806 349 863 350 q 739 351 750 349 q 735 441 736 366 q 736 526 734 515 q 779 576 742 541 q 861 648 817 612 q 945 712 906 684 q 994 743 985 741 l 994 743 m 1058 414 l 1116 410 l 1185 674 q 1121 680 1176 674 q 1057 686 1066 685 l 1058 414 l 1058 414 m 1047 372 l 1048 307 l 1078 304 l 1109 302 l 1119 365 l 1085 366 l 1047 372 z "},"":{"ha":1389,"x_min":203,"x_max":1185,"o":"m 203 760 l 203 677 l 366 677 l 366 350 l 530 350 l 530 677 l 694 677 l 694 350 l 1185 350 l 1185 513 l 859 513 l 859 677 l 1185 677 l 1185 841 l 859 841 l 859 677 l 694 677 l 694 841 l 203 841 l 203 760 l 203 760 z "},"":{"ha":1389,"x_min":216,"x_max":1185,"o":"m 982 1078 q 1006 1063 994 1073 q 1024 1042 1019 1053 q 1033 1011 1027 1038 q 1055 920 1039 985 q 1095 747 1070 856 q 1160 468 1120 637 q 1178 385 1171 423 q 1185 338 1185 346 q 1179 306 1185 320 q 1157 278 1172 292 q 1130 262 1146 267 q 1055 243 1114 256 l 1008 232 l 1020 255 q 1040 308 1034 279 q 1046 369 1046 336 q 1022 488 1046 434 q 949 583 998 541 q 878 633 921 609 q 773 682 836 656 q 653 746 685 719 q 621 814 621 773 q 655 879 621 857 q 749 897 689 901 q 812 887 780 895 q 878 865 844 879 q 903 855 891 860 q 917 849 914 850 q 926 863 920 848 q 949 921 933 879 q 968 973 960 951 q 978 998 977 996 q 942 1019 979 1002 q 872 1044 905 1035 q 828 1057 834 1055 q 827 1061 822 1059 q 932 1083 901 1080 q 982 1078 963 1086 l 982 1078 m 434 948 q 418 919 426 936 q 404 888 410 902 q 395 854 397 868 q 393 808 393 841 q 395 764 393 777 q 404 732 397 750 q 492 609 430 662 q 661 514 553 556 q 740 477 708 495 q 788 441 772 458 q 810 406 804 423 q 815 363 817 389 q 803 323 814 339 q 770 297 792 308 q 743 288 754 289 q 689 286 731 286 q 633 288 648 286 q 589 298 617 290 q 549 311 571 304 q 515 323 528 317 q 494 332 505 328 q 480 336 483 336 q 467 321 476 336 q 438 263 458 305 q 413 210 423 233 q 403 187 403 187 q 439 168 403 183 q 505 144 475 152 q 532 134 519 138 q 547 130 545 130 q 538 125 549 129 q 506 117 526 121 q 414 109 446 102 q 366 148 382 115 q 338 253 362 156 q 279 506 315 350 q 208 827 214 784 q 216 895 201 871 q 251 923 228 913 q 331 947 274 933 q 411 966 372 956 q 453 975 450 975 q 448 968 453 977 q 434 948 442 960 l 434 948 z "},"":{"ha":1389,"x_min":208,"x_max":1184,"o":"m 982 802 q 975 789 975 796 q 977 751 974 781 q 977 728 978 734 q 970 722 975 722 q 944 710 960 722 q 925 689 928 699 q 927 673 924 684 q 936 661 930 663 q 943 657 937 659 q 955 655 949 655 q 966 652 963 654 q 971 648 970 651 q 972 621 974 644 q 967 575 971 598 q 964 555 964 562 q 967 533 964 548 q 970 516 968 525 q 971 503 971 507 q 972 495 971 499 q 974 490 972 491 q 975 479 974 487 q 977 463 977 472 q 981 429 978 439 q 994 410 985 418 q 1014 398 1006 400 q 1043 395 1021 396 q 1065 395 1055 395 q 1077 395 1074 395 q 1115 397 1096 395 q 1135 404 1134 400 q 1141 410 1137 406 q 1153 422 1146 415 q 1177 446 1171 435 q 1184 473 1183 456 q 1183 502 1185 486 q 1176 525 1180 518 q 1171 532 1173 528 q 1166 541 1168 537 q 1161 551 1164 548 q 1156 553 1158 553 q 1152 555 1154 553 q 1146 557 1149 556 q 1142 562 1143 562 q 1134 559 1141 562 q 1128 553 1131 556 q 1123 549 1124 551 q 1120 545 1122 548 q 1116 538 1118 541 q 1113 532 1114 536 q 1112 525 1112 528 q 1111 517 1112 522 q 1107 507 1109 511 q 1103 496 1105 502 q 1101 486 1101 490 q 1095 473 1099 477 q 1082 469 1090 469 q 1070 472 1073 469 q 1067 486 1067 475 q 1067 540 1067 522 q 1063 566 1066 557 q 1062 612 1059 583 q 1073 646 1065 642 q 1086 648 1074 647 q 1115 648 1099 648 q 1150 649 1143 648 q 1161 654 1157 650 q 1166 659 1165 656 q 1165 669 1166 662 q 1163 682 1164 674 q 1161 697 1162 690 q 1160 709 1161 704 q 1157 716 1158 715 q 1148 718 1157 718 q 1119 718 1139 719 q 1092 716 1104 718 q 1078 715 1080 715 q 1068 721 1073 713 q 1067 735 1063 728 q 1069 742 1067 738 q 1070 750 1070 746 q 1071 758 1070 754 q 1072 762 1072 761 q 1074 772 1074 764 q 1072 784 1074 780 q 1068 788 1069 785 q 1067 793 1067 791 q 1063 800 1067 798 q 1042 803 1058 802 q 995 807 1002 807 q 982 802 987 807 l 982 802 m 806 713 q 798 713 803 713 q 791 711 793 712 q 755 702 781 711 q 727 689 730 693 q 724 687 726 688 q 720 685 723 686 q 697 666 716 684 q 674 642 678 648 q 669 626 671 637 q 662 585 666 614 q 660 570 662 578 q 658 560 658 563 q 656 516 652 545 q 669 479 661 487 q 673 473 671 477 q 677 468 675 469 q 677 463 680 464 q 661 463 675 463 l 640 463 l 640 491 q 640 514 640 503 q 637 528 639 525 q 637 537 636 530 q 639 553 637 544 q 641 593 642 574 q 636 621 640 613 q 634 629 635 624 q 633 637 633 635 q 624 668 633 650 q 608 686 614 686 q 605 687 606 686 q 602 688 604 688 q 599 688 601 688 q 595 689 597 689 q 589 692 594 689 q 581 699 585 694 q 559 711 568 708 q 536 711 551 713 q 505 704 517 708 q 488 694 494 700 q 483 691 486 693 q 477 689 480 689 q 471 686 473 689 q 460 674 468 684 q 452 665 456 669 q 446 662 448 662 q 439 666 442 662 q 435 675 435 670 q 434 680 435 677 q 430 685 433 684 q 420 690 427 689 q 391 690 414 690 q 364 691 377 690 q 347 693 351 692 q 323 686 331 696 q 319 655 316 675 q 320 642 319 648 q 323 632 321 635 q 327 627 324 628 q 343 628 330 627 l 363 629 l 366 623 q 368 610 369 617 q 363 587 368 604 q 362 551 362 578 q 363 513 362 525 q 370 477 369 486 q 368 468 370 469 q 359 465 365 467 q 346 464 354 464 q 332 463 335 464 q 326 458 328 463 q 318 438 321 453 q 315 414 315 423 q 317 406 315 408 q 326 400 319 404 q 345 395 334 396 q 382 397 357 395 q 404 397 391 399 q 420 395 418 396 q 450 392 423 392 q 484 395 476 392 q 495 404 491 399 q 499 418 499 410 q 498 425 499 422 q 498 429 498 429 q 496 434 496 429 q 495 446 495 439 q 492 465 495 460 q 476 471 488 469 q 467 473 469 472 q 465 477 465 475 q 465 482 465 480 q 463 484 464 484 q 460 486 460 486 q 463 488 460 487 q 467 502 467 491 q 465 540 468 513 q 463 570 463 564 q 465 582 463 576 q 469 588 468 583 q 471 597 471 593 q 471 605 471 601 q 473 610 472 609 q 476 613 475 612 q 477 616 477 614 q 498 623 477 623 q 530 618 518 624 q 536 614 533 616 q 541 612 540 613 q 544 609 543 612 q 547 604 545 606 q 548 600 547 602 q 551 595 549 597 q 554 575 553 593 q 552 549 555 557 q 549 522 549 545 q 551 488 548 498 q 547 473 552 477 q 528 468 541 468 q 509 460 511 468 q 514 416 507 453 q 521 397 517 400 q 544 396 525 395 q 570 399 563 399 q 628 396 576 399 l 684 395 l 689 403 q 694 411 693 407 q 694 423 694 415 l 693 437 l 719 419 q 759 399 743 403 q 810 395 774 395 q 839 397 830 396 q 859 401 848 397 q 869 406 864 403 q 878 408 875 408 q 884 411 879 410 q 894 414 888 412 q 917 426 907 418 q 932 446 926 434 q 937 458 933 452 q 941 469 940 465 q 945 477 944 473 q 947 483 947 481 q 940 494 947 487 q 929 502 933 502 q 924 503 928 502 q 916 506 920 505 q 903 510 909 510 q 892 505 898 510 q 887 502 891 503 q 879 500 883 500 q 872 498 876 500 q 865 494 868 496 q 860 489 864 491 q 852 484 856 487 q 844 480 848 483 q 838 475 840 477 q 831 469 836 471 q 818 464 826 467 q 806 463 812 463 q 798 463 800 463 q 781 473 792 465 q 769 481 769 480 q 766 486 769 483 q 758 494 762 490 q 750 505 751 502 q 750 515 749 507 q 755 530 751 528 q 770 533 758 533 q 782 534 776 533 q 791 537 788 536 q 821 541 800 541 q 849 537 842 541 q 860 534 853 534 q 884 533 867 533 q 919 534 907 532 q 939 543 930 537 q 945 551 944 547 q 945 578 945 556 q 943 617 945 604 q 933 640 940 631 q 928 649 930 644 q 922 658 925 654 q 918 665 921 662 q 914 669 916 667 q 909 672 913 669 q 902 681 905 675 q 892 689 897 686 q 883 692 888 692 q 873 696 880 693 q 860 701 865 699 q 826 715 836 712 q 806 713 817 718 l 806 713 m 821 650 q 842 629 827 646 q 857 609 857 612 q 852 602 857 605 q 834 597 846 600 q 797 593 817 593 q 772 597 777 593 q 768 599 770 598 q 764 600 765 600 q 759 603 761 600 q 757 610 757 606 q 759 614 757 610 q 765 621 761 617 q 772 629 768 624 q 779 637 776 635 q 800 653 788 650 q 821 650 811 656 l 821 650 m 232 476 q 218 465 225 472 q 208 449 212 457 q 216 399 197 422 q 264 385 236 377 q 299 427 296 393 q 274 473 302 460 q 252 479 264 479 q 232 476 240 479 l 232 476 z "},"":{"ha":1389,"x_min":241,"x_max":1185,"o":"m 598 1080 q 484 1039 538 1066 q 382 974 429 1012 q 300 888 336 936 q 241 785 263 840 q 203 595 203 694 q 241 404 203 495 q 292 313 260 357 q 362 233 323 270 q 448 169 401 197 q 547 125 495 141 q 606 110 583 113 q 694 107 629 107 q 783 110 761 107 q 844 125 806 113 q 984 197 921 151 q 1092 304 1047 243 q 1161 439 1137 365 q 1185 594 1185 514 q 1162 749 1185 675 q 1094 883 1138 822 q 988 990 1050 944 q 849 1062 926 1036 q 791 1078 814 1074 q 709 1082 768 1081 q 642 1082 674 1084 q 598 1080 609 1081 l 598 1080 m 750 758 q 836 585 814 647 q 849 484 857 524 q 789 392 836 426 q 684 363 742 358 q 627 382 655 366 q 581 420 598 399 l 566 441 l 590 441 q 673 481 640 441 q 697 574 705 522 q 681 631 694 594 q 648 705 667 669 l 635 732 l 666 785 q 689 823 678 808 q 701 837 700 838 q 718 812 703 836 q 750 758 732 789 l 750 758 m 621 699 q 669 579 661 620 q 661 509 677 538 q 573 469 629 457 q 502 541 517 480 q 501 562 499 549 q 507 590 503 575 q 551 682 515 617 q 591 747 586 747 q 602 733 594 747 q 621 699 610 719 l 621 699 z "},"":{"ha":1389,"x_min":203,"x_max":1179,"o":"m 692 1082 q 663 1063 674 1076 q 647 1032 652 1051 q 644 976 643 1020 q 652 693 644 932 q 656 576 654 636 q 660 463 658 517 q 663 366 662 410 q 665 300 663 323 q 668 207 666 237 q 671 168 670 176 q 700 121 678 138 q 753 104 722 104 q 816 114 758 104 q 941 135 873 123 q 1067 157 1009 146 q 1130 168 1124 167 q 1155 184 1142 172 q 1175 212 1168 197 q 1185 254 1184 233 q 1179 376 1185 274 q 1168 526 1173 445 q 1158 681 1162 606 q 1149 814 1153 755 q 1145 899 1146 873 q 1137 968 1141 951 q 1124 1001 1134 985 q 1103 1022 1116 1012 q 1077 1036 1089 1032 q 1047 1042 1073 1038 q 990 1050 1021 1046 q 750 1083 793 1078 q 692 1082 707 1088 l 692 1082 m 926 899 q 1036 890 1013 892 q 1065 884 1058 888 q 1084 870 1076 879 q 1097 852 1092 861 q 1103 829 1101 842 q 1108 749 1105 815 q 1115 646 1111 711 q 1122 528 1119 581 q 1128 416 1127 437 q 1127 385 1128 395 q 1107 357 1122 370 q 1074 340 1093 345 q 1025 334 1069 339 q 931 324 982 330 q 837 315 880 319 q 788 312 793 311 q 753 325 768 313 q 732 357 738 336 q 728 378 730 363 q 726 425 727 392 q 723 519 726 448 q 718 669 720 591 q 711 830 712 799 q 713 869 711 861 q 725 890 718 880 q 743 903 732 899 q 783 908 755 909 q 926 899 811 907 l 926 899 m 754 895 q 732 879 741 891 q 724 849 724 867 q 729 840 724 841 q 772 836 734 838 q 806 828 795 833 q 827 812 818 823 q 840 775 837 802 q 848 610 842 749 q 854 446 854 469 q 844 411 853 423 q 836 403 842 407 q 825 396 830 399 q 806 390 815 392 q 776 385 798 388 q 751 382 761 384 q 741 381 741 381 q 743 367 739 380 q 750 347 746 354 q 757 338 753 343 q 764 332 761 334 q 789 324 774 324 q 848 328 803 324 q 885 332 869 330 q 902 335 901 335 q 899 417 902 335 q 890 613 895 499 l 878 890 l 830 894 q 777 897 789 897 q 754 895 764 898 l 754 895 m 490 989 q 469 979 476 985 q 454 966 461 974 q 444 917 445 949 q 449 610 444 884 q 455 309 453 362 q 463 244 457 255 q 484 217 469 227 q 522 205 499 208 q 591 211 529 203 q 654 220 652 218 q 652 296 655 221 q 650 373 650 372 q 636 372 650 373 q 604 369 623 370 q 556 366 570 365 q 532 372 543 366 q 515 388 522 377 q 505 412 507 399 q 502 477 503 416 q 499 617 500 537 q 496 806 495 783 q 511 841 498 829 q 534 852 522 850 q 582 852 545 853 q 614 849 600 850 q 629 848 628 848 l 635 846 l 633 895 q 632 935 633 916 q 631 962 631 955 l 629 981 l 570 986 q 511 991 519 991 q 490 989 502 991 l 490 989 m 321 878 q 299 865 308 875 q 288 845 290 856 q 288 794 288 841 q 289 684 288 747 q 294 431 293 496 q 298 358 296 365 q 311 339 301 347 q 331 327 320 331 q 348 324 340 324 q 384 327 355 324 q 414 331 400 330 q 433 332 429 332 l 442 334 l 441 388 q 439 426 439 410 q 438 442 438 442 q 429 442 438 442 q 407 441 419 442 q 366 439 377 438 q 346 448 354 441 q 333 477 335 458 q 328 613 331 495 l 326 754 l 330 764 q 336 772 332 769 q 345 777 339 774 q 359 781 351 781 q 395 780 366 781 l 434 779 l 431 825 q 431 857 431 842 q 430 871 430 871 q 401 874 429 872 q 346 879 373 876 q 332 879 339 879 q 321 878 324 879 l 321 878 m 528 837 q 511 819 517 831 q 507 788 506 806 l 510 773 l 534 772 q 567 766 556 770 q 585 751 578 762 l 591 742 l 591 475 l 585 468 q 566 456 576 460 q 537 450 555 452 l 517 449 l 515 437 q 522 401 515 415 q 544 381 529 387 q 557 378 551 378 q 589 380 564 378 q 613 382 602 381 q 625 385 624 384 q 628 424 628 387 q 624 605 628 461 q 619 800 621 769 q 610 836 617 831 q 596 837 608 836 q 570 838 585 838 q 541 839 549 840 q 528 837 532 838 l 528 837 m 218 746 q 214 743 217 745 q 209 738 210 741 q 204 720 205 734 q 203 637 203 707 q 204 561 203 598 q 206 510 205 524 q 208 482 206 488 q 212 472 209 476 q 227 464 217 467 q 258 463 237 461 l 281 464 l 279 492 l 279 521 l 259 521 q 231 531 233 522 q 227 608 228 540 q 229 682 227 671 q 243 696 231 693 q 253 697 247 697 q 263 697 259 697 l 275 696 l 275 745 l 269 746 q 242 747 262 747 q 218 746 222 747 l 218 746 m 339 720 l 339 696 l 346 696 q 360 692 353 696 q 370 684 368 689 q 374 610 373 680 q 372 536 376 541 q 363 526 370 530 q 349 521 355 521 l 343 521 l 343 502 q 344 486 343 494 q 345 475 345 477 q 348 469 346 469 q 358 468 350 468 q 378 471 369 468 q 391 481 387 475 q 395 502 395 486 q 392 602 395 518 q 389 699 391 677 q 387 726 388 720 q 374 738 381 734 q 354 743 368 742 l 339 743 l 339 720 l 339 720 z "},"":{"ha":1389,"x_min":203,"x_max":1185,"o":"m 549 415 l 544 415 l 541 411 l 400 164 l 1042 164 l 1044 170 l 1184 415 l 1169 415 l 549 415 m 892 475 l 895 469 l 901 469 l 1185 471 l 1177 484 l 864 1025 l 859 1025 l 575 1025 l 583 1010 l 892 475 m 670 747 l 667 751 l 525 997 l 517 983 l 203 442 l 208 437 l 350 191 l 358 206 l 667 742 l 670 747 z "},"":{"ha":1389,"x_min":202,"x_max":1187,"o":"m 1187 972 l 968 972 l 815 819 l 1032 819 l 1187 972 m 696 819 l 849 972 l 632 972 l 479 819 l 696 819 m 1034 372 l 355 372 l 355 818 l 510 972 l 293 972 l 202 882 l 202 218 l 1187 218 l 1187 819 l 1034 819 l 1034 372 z "},"":{"ha":1389,"x_min":203,"x_max":1185,"o":"m 916 859 l 1115 1058 l 901 1058 l 694 852 l 488 1058 l 274 1058 l 473 859 l 203 859 l 203 132 l 559 132 l 694 269 l 830 132 l 1185 132 l 1185 859 l 916 859 l 916 859 m 694 481 l 496 283 l 354 283 l 354 708 l 1035 708 l 1035 283 l 892 283 l 694 481 l 694 481 z "},"":{"ha":1389,"x_min":205,"x_max":1184,"o":"m 941 410 l 1062 410 l 1062 701 l 925 838 l 840 753 l 941 651 l 941 410 l 941 410 m 1063 349 l 639 349 l 537 450 l 581 492 l 665 410 l 837 410 l 667 579 l 709 623 l 880 453 l 880 625 l 796 708 l 840 751 l 628 963 l 205 963 l 326 841 l 326 841 l 578 841 l 666 753 l 537 623 l 448 711 l 448 780 l 326 780 l 326 661 l 537 450 l 450 365 l 587 228 l 1184 228 l 1063 349 l 1063 349 z "},"":{"ha":1389,"x_min":203,"x_max":1185,"o":"m 736 1039 l 484 958 l 1029 781 l 1029 433 l 666 315 l 359 414 l 359 755 l 655 659 l 907 741 l 361 918 l 203 867 l 203 301 l 666 152 l 1185 319 l 1185 894 l 736 1039 z "},"":{"ha":1389,"x_min":202,"x_max":1187,"o":"m 202 1154 l 292 148 l 694 37 l 1097 148 l 1187 1154 l 202 1154 l 202 1154 m 388 916 l 385 948 l 694 948 l 694 825 l 521 825 l 532 699 l 694 699 l 694 575 l 419 575 l 388 916 l 388 916 m 978 666 l 948 340 l 947 320 l 694 250 l 442 320 l 425 514 l 548 514 l 556 415 l 694 378 l 831 415 l 846 575 l 694 575 l 694 699 l 981 699 l 978 666 l 978 666 m 1000 916 l 994 853 l 991 825 l 694 825 l 694 948 l 1002 948 l 1000 916 l 1000 916 z "},"":{"ha":1389,"x_min":372,"x_max":1020,"o":"m 372 985 q 473 996 372 985 q 694 1030 574 1008 q 916 1084 815 1053 q 1017 1157 1017 1116 l 1017 899 q 937 838 1017 899 q 372 727 856 776 l 372 985 m 374 642 q 475 653 374 642 q 697 687 576 665 q 919 741 818 709 q 1020 812 1020 773 l 1020 555 q 939 493 1020 555 q 374 384 859 431 l 374 642 m 374 297 q 475 309 374 297 q 697 342 576 320 q 919 397 818 365 q 1020 469 1020 429 l 1020 212 q 939 150 1020 212 q 374 39 859 88 l 374 297 z "},"":{"ha":1389,"x_min":336,"x_max":1103,"o":"m 545 294 q 533 281 545 294 q 575 262 521 267 q 688 256 642 254 q 807 271 734 258 q 824 261 807 271 q 868 241 841 251 q 701 203 785 206 q 560 215 616 201 q 492 253 505 229 q 545 294 480 277 l 545 294 m 518 416 q 503 398 518 416 q 544 373 488 380 q 680 368 614 366 q 842 388 745 369 q 854 378 842 388 q 887 359 867 368 q 692 328 788 331 q 533 336 595 324 q 459 370 471 347 q 518 416 448 393 l 518 416 m 743 624 q 757 542 784 578 q 730 506 730 506 q 790 552 730 506 q 803 665 850 598 q 760 775 760 727 q 943 929 761 823 q 886 911 943 929 q 774 855 829 892 q 698 760 720 818 q 743 624 675 703 l 743 624 m 1032 203 q 1040 188 1032 203 q 997 157 1047 172 q 861 135 951 144 q 673 125 770 126 q 490 131 576 123 q 362 156 403 138 q 368 184 332 170 q 420 202 403 199 q 448 207 438 206 q 458 208 458 208 q 398 210 442 218 q 319 185 354 202 q 279 149 285 168 q 336 119 274 129 q 649 95 503 92 q 895 115 795 98 q 1035 159 994 133 q 1032 203 1076 184 l 1032 203 m 566 543 q 481 517 566 543 q 494 477 396 491 q 610 473 536 472 q 762 480 685 473 q 878 494 825 486 q 930 502 930 502 q 913 494 930 502 q 879 475 895 486 q 700 448 802 454 q 515 447 598 442 q 389 466 431 452 q 389 502 347 480 q 514 540 463 537 q 566 543 566 543 l 566 543 m 929 339 q 1056 486 1086 422 q 974 538 1025 549 q 956 534 962 536 q 951 533 951 533 q 955 538 951 533 q 968 547 959 543 q 1102 486 1069 582 q 925 334 1135 389 q 927 336 925 334 q 929 339 929 338 l 929 339 m 803 1157 q 833 1077 803 1157 q 693 863 863 997 q 610 685 557 755 q 693 545 662 614 q 568 681 614 617 q 562 803 522 745 q 638 880 590 845 q 729 954 686 916 q 796 1040 772 993 q 803 1157 821 1088 l 803 1157 m 586 45 q 751 42 662 41 q 917 55 840 43 q 1047 89 994 66 q 1103 146 1100 111 q 1077 125 1103 146 q 937 83 1051 104 q 802 65 872 71 q 665 59 732 60 q 536 62 598 58 q 429 75 475 66 q 458 63 429 75 q 586 45 487 52 l 586 45 z "},"":{"ha":1389,"x_min":76,"x_max":1295,"o":"m 411 119 q 612 92 511 106 q 812 64 712 79 q 1013 37 913 50 q 1215 9 1114 23 q 1147 123 1181 66 q 1078 237 1112 180 q 1010 349 1044 293 q 943 463 977 406 q 810 378 876 420 q 678 292 745 335 q 545 206 612 250 q 411 119 477 163 l 411 119 m 1291 967 q 1256 914 1274 941 q 1221 860 1238 887 q 1159 769 1190 815 q 1098 677 1128 723 q 1037 585 1067 631 q 975 492 1006 538 q 970 482 972 487 q 971 469 967 477 q 1030 372 1001 420 q 1089 274 1059 323 q 1148 176 1119 225 q 1207 79 1177 127 q 1225 48 1215 64 q 1248 18 1236 33 q 1259 256 1253 137 q 1272 492 1265 374 q 1283 729 1278 610 q 1295 967 1289 848 q 1293 967 1294 967 q 1291 967 1293 967 l 1291 967 m 217 563 q 225 559 220 560 q 233 559 231 557 q 347 615 290 587 q 460 673 404 643 q 492 698 477 682 q 522 728 507 713 q 625 823 574 776 q 728 917 677 869 q 734 924 731 921 q 741 930 738 926 q 777 1002 758 966 q 814 1077 795 1039 q 770 1093 792 1085 q 727 1108 749 1101 q 720 1108 724 1109 q 713 1105 716 1107 q 613 1050 663 1077 q 514 991 563 1023 q 470 956 491 977 q 427 916 449 936 q 359 853 393 884 q 290 789 324 822 q 274 772 282 781 q 259 751 266 762 q 213 684 236 718 q 167 614 190 650 q 191 588 179 601 q 217 563 203 575 l 217 563 m 492 624 q 465 505 479 564 q 436 385 450 445 q 408 266 422 326 q 380 145 393 206 q 515 232 448 189 q 648 318 582 275 q 781 404 715 361 q 913 488 846 446 q 808 522 860 505 q 703 555 755 538 q 598 589 651 572 q 492 624 545 606 l 492 624 m 1245 966 q 1131 947 1188 956 q 1018 928 1074 937 q 905 909 962 918 q 792 890 849 899 q 869 703 830 796 q 945 517 907 610 q 1021 629 983 572 q 1095 741 1058 685 q 1170 854 1133 798 q 1245 966 1207 910 l 1245 966 m 499 656 q 704 589 602 623 q 910 522 806 556 q 834 709 872 617 q 758 894 796 800 q 629 775 693 834 q 499 656 564 716 l 499 656 m 222 469 q 150 297 186 382 q 79 126 114 212 q 216 130 148 127 q 353 134 283 132 q 288 301 320 218 q 222 469 255 384 l 222 469 m 355 213 q 357 214 357 214 q 359 214 358 214 q 409 420 384 317 q 460 629 434 522 q 349 572 403 601 q 239 515 294 544 q 297 366 267 442 q 355 213 327 289 l 355 213 m 1190 989 q 1124 1006 1157 997 q 1058 1023 1092 1015 q 964 1048 1012 1035 q 869 1073 917 1061 q 859 1074 864 1074 q 852 1066 854 1074 q 817 998 834 1032 q 784 930 800 964 q 783 928 783 929 q 783 924 783 926 q 986 954 884 939 q 1190 986 1088 970 q 1190 987 1190 986 q 1190 989 1190 987 l 1190 989 m 936 1092 q 1113 1043 1024 1067 q 1293 993 1202 1019 q 1263 1078 1278 1038 q 1234 1161 1249 1119 q 1084 1128 1158 1145 q 936 1096 1010 1112 q 936 1094 936 1095 q 936 1092 936 1093 l 936 1092 m 387 94 q 319 95 353 96 q 252 92 285 94 q 197 92 224 92 q 141 90 170 91 q 136 89 138 90 q 130 84 133 88 q 358 64 244 75 q 587 42 472 53 q 815 21 701 31 q 1043 0 929 11 q 1044 2 1043 1 q 1044 4 1044 3 q 898 24 971 14 q 751 45 825 34 q 569 70 661 57 q 387 94 477 83 l 387 94 m 84 231 q 143 367 114 298 q 202 503 172 435 q 204 515 205 510 q 198 526 203 521 q 174 551 186 538 q 148 578 161 564 q 113 399 130 487 q 76 222 95 311 q 78 222 77 222 q 79 222 79 222 q 82 226 80 224 q 84 231 84 228 l 84 231 m 857 1116 q 958 1139 907 1128 q 1058 1161 1008 1150 q 1064 1163 1061 1162 q 1070 1165 1067 1164 q 1070 1166 1070 1165 q 1070 1168 1070 1168 q 928 1149 1000 1158 q 783 1130 857 1139 q 821 1116 803 1120 q 857 1116 838 1111 l 857 1116 z "},"":{"ha":1389,"x_min":203,"x_max":1185,"o":"m 694 1086 q 503 1048 593 1086 q 347 943 414 1009 q 242 787 281 876 q 203 595 203 697 q 242 404 203 494 q 347 248 281 315 q 503 143 414 182 q 694 104 593 104 q 886 143 796 104 q 1042 248 975 182 q 1147 404 1108 315 q 1185 595 1185 494 q 1147 787 1185 697 q 1042 943 1108 876 q 886 1048 975 1009 q 694 1086 796 1086 l 694 1086 m 804 917 q 844 948 818 941 q 894 941 871 955 q 925 901 918 928 q 918 852 932 875 q 878 821 905 829 q 829 827 852 814 q 798 867 806 841 q 804 917 791 894 l 804 917 m 694 880 q 734 878 715 880 q 770 869 753 875 q 785 833 773 850 q 815 804 796 815 q 854 792 834 793 q 894 799 875 791 q 953 715 930 762 q 978 613 975 667 l 886 612 q 824 736 879 685 q 694 787 769 787 q 652 782 673 787 q 614 769 632 777 l 568 850 q 629 873 597 865 q 694 880 661 880 l 694 880 m 361 530 q 314 549 334 530 q 294 595 294 568 q 314 642 294 623 q 361 661 334 661 q 407 642 388 661 q 426 595 426 623 q 407 549 426 568 q 361 530 388 530 l 361 530 m 419 524 q 444 555 434 537 q 453 595 453 574 q 444 635 453 617 q 419 667 434 654 q 463 760 431 718 q 537 833 494 803 l 585 751 q 526 685 548 726 q 503 595 503 644 q 526 506 503 547 q 585 438 548 465 l 537 358 q 463 429 494 387 q 419 524 431 472 l 419 524 m 894 250 q 844 243 871 236 q 804 274 818 250 q 798 323 791 297 q 829 363 806 350 q 878 370 852 377 q 918 339 905 362 q 925 289 932 315 q 894 250 918 263 l 894 250 m 894 392 q 854 397 875 399 q 815 385 834 396 q 785 357 796 374 q 770 321 773 340 q 734 313 753 316 q 694 311 715 311 q 629 318 661 311 q 568 340 597 326 l 614 422 q 652 409 632 414 q 694 404 673 404 q 824 454 769 404 q 886 578 879 505 l 978 576 q 953 475 975 522 q 894 392 930 429 l 894 392 z "},"":{"ha":1389,"x_min":202,"x_max":1187,"o":"m 309 113 l 789 113 q 773 153 789 113 q 739 260 757 194 q 711 410 722 327 q 709 576 700 492 q 755 720 720 659 q 834 823 789 781 q 926 885 879 864 q 1012 910 974 906 q 1126 889 1086 918 q 1165 860 1165 860 l 1187 892 q 1162 915 1187 892 q 1093 963 1137 937 q 989 1008 1048 989 q 864 1021 930 1027 q 739 990 796 1015 q 633 928 681 966 q 548 843 586 891 q 480 741 510 795 q 386 545 422 632 q 327 343 350 457 q 307 171 304 229 q 309 113 309 113 l 309 113 m 213 354 l 307 347 l 290 252 l 202 263 l 213 354 l 213 354 m 361 553 l 387 624 l 304 655 l 277 581 l 361 553 l 361 553 m 479 795 l 528 853 l 464 894 l 414 838 l 479 795 l 479 795 m 606 1019 l 650 967 l 709 1001 l 666 1050 l 606 1019 l 606 1019 m 818 1078 l 829 1027 l 903 1028 l 897 1074 l 818 1078 l 818 1078 m 1069 1023 l 1067 990 l 1118 963 l 1128 979 l 1069 1023 l 1069 1023 m 1058 883 l 1058 856 l 1107 850 l 1107 872 l 1058 883 l 1058 883 m 903 860 l 926 817 l 960 844 l 954 872 l 903 860 l 903 860 m 829 804 l 865 750 l 844 712 l 791 769 l 829 804 l 829 804 m 757 654 l 734 608 l 795 555 l 810 614 l 757 654 l 757 654 m 731 490 l 728 426 l 804 393 l 800 453 l 731 490 l 731 490 m 753 266 l 772 201 l 867 195 l 833 266 l 753 266 l 753 266 z "},"":{"ha":1389,"x_min":222,"x_max":1164,"o":"m 576 613 l 811 613 q 895 648 860 613 q 929 732 929 684 l 929 956 q 894 1038 929 1005 q 811 1078 859 1072 q 750 1086 781 1084 q 689 1089 719 1089 q 629 1086 658 1088 q 576 1078 601 1084 q 480 1037 502 1066 q 458 956 458 1008 l 458 867 l 694 867 l 694 837 l 370 837 q 278 806 319 837 q 222 718 237 776 q 207 600 208 651 q 222 479 206 549 q 267 393 236 426 q 349 359 297 359 l 429 359 l 429 467 q 473 569 429 525 q 576 613 517 613 l 576 613 m 562 926 q 530 940 543 926 q 517 971 517 954 q 530 1003 517 990 q 562 1016 543 1016 q 592 1003 579 1016 q 605 971 605 990 q 592 940 605 954 q 562 926 579 926 l 562 926 m 1164 718 q 1125 803 1152 769 q 1047 837 1099 837 l 959 837 l 959 732 q 914 627 959 671 q 811 583 869 583 l 576 583 q 493 547 528 583 q 458 464 458 511 l 458 240 q 494 162 458 191 q 576 119 529 133 q 688 102 632 103 q 811 119 745 100 q 892 161 856 133 q 929 240 929 189 l 929 330 l 694 330 l 694 359 l 1047 359 q 1122 392 1099 359 q 1164 479 1146 425 q 1182 591 1183 534 q 1164 718 1181 647 l 1164 718 m 826 270 q 858 256 845 270 q 871 225 871 243 q 858 193 871 206 q 826 179 845 179 q 795 193 808 179 q 781 225 781 206 q 795 256 781 243 q 826 270 808 270 l 826 270 z "},"":{"ha":1389,"x_min":203,"x_max":1185,"o":"m 450 735 l 278 735 l 203 358 l 292 358 l 311 456 l 395 456 q 507 498 453 452 q 562 628 562 544 q 534 704 562 677 q 450 735 506 731 l 450 735 m 385 525 l 330 525 l 353 665 l 412 665 q 453 654 437 665 q 469 623 469 644 q 441 547 465 564 q 385 525 416 529 l 385 525 m 762 735 l 678 735 l 697 833 l 609 833 l 534 456 l 623 456 l 665 665 l 734 665 q 762 655 758 665 q 762 628 765 646 l 730 456 l 822 456 l 854 647 q 840 706 863 681 q 762 735 818 731 l 762 735 m 1074 735 l 902 735 l 827 358 l 916 358 l 935 456 l 1017 456 q 1131 498 1077 452 q 1185 628 1185 544 q 1158 704 1185 677 q 1074 735 1130 731 l 1074 735 m 1009 525 l 952 525 l 977 665 l 1036 665 q 1076 654 1061 665 q 1092 623 1092 644 q 1065 547 1089 564 q 1009 525 1040 529 l 1009 525 z "},"":{"ha":1389,"x_min":203,"x_max":1185,"o":"m 1115 902 l 274 902 q 224 881 245 902 q 203 831 203 860 l 203 359 q 224 309 203 330 q 274 289 245 289 l 1115 289 q 1164 309 1143 289 q 1185 359 1185 330 l 1185 831 q 1164 881 1185 860 q 1115 902 1143 902 l 1115 902 m 755 411 l 633 411 l 633 595 l 541 477 l 449 595 l 449 411 l 327 411 l 327 780 l 449 780 l 541 656 l 633 780 l 755 780 l 755 411 l 755 411 m 939 381 l 787 595 l 879 595 l 879 780 l 1001 780 l 1001 595 l 1093 595 l 939 381 l 939 381 z "},"":{"ha":1389,"x_min":208,"x_max":1181,"o":"m 1181 617 q 1129 682 1177 623 q 1069 757 1081 742 q 1050 771 1058 770 q 1036 770 1043 772 q 969 760 1029 769 q 899 747 909 750 q 885 742 890 746 q 886 728 880 738 q 932 664 891 722 q 985 590 972 606 l 688 518 l 450 913 q 439 928 444 924 q 418 932 434 932 q 315 924 401 930 q 221 916 229 917 q 205 909 212 916 q 208 882 199 902 q 244 804 213 872 q 312 656 275 735 q 379 511 349 576 q 411 441 410 446 q 427 422 415 433 q 461 418 438 412 q 553 442 486 425 q 667 471 621 460 q 730 358 692 427 q 779 277 769 289 q 802 259 791 259 q 831 264 812 259 q 887 285 838 267 q 993 323 936 302 q 1097 360 1050 343 q 1150 380 1145 377 q 1164 388 1160 384 q 1162 401 1169 392 q 1114 467 1157 408 q 1040 566 1070 525 q 1114 585 1061 571 q 1175 601 1166 598 q 1185 608 1184 604 q 1181 617 1187 612 l 1181 617 m 642 507 q 554 486 639 506 q 463 464 469 465 q 454 463 456 463 q 453 467 453 464 q 421 532 452 468 q 353 673 391 595 q 284 814 316 750 q 252 880 252 879 q 250 887 250 884 q 252 890 250 890 q 332 897 254 890 q 415 903 411 903 q 420 903 419 903 q 422 899 420 902 q 456 840 422 899 q 531 710 490 781 q 607 578 572 639 q 643 517 642 518 q 645 509 646 511 q 642 507 644 507 l 642 507 m 1111 419 q 1113 413 1112 415 q 1108 410 1114 411 q 1060 393 1104 408 q 963 359 1016 377 q 866 327 910 342 q 821 312 822 312 q 813 310 817 309 q 804 319 810 311 q 753 404 799 326 q 708 481 708 481 l 998 557 q 1006 559 1004 559 q 1012 553 1009 559 q 1062 485 1016 548 q 1111 419 1108 422 l 1111 419 m 1130 625 q 1070 610 1124 624 q 1016 597 1016 597 l 929 716 q 927 721 928 719 q 930 724 926 723 q 987 734 936 724 q 1040 743 1038 743 q 1047 745 1044 745 q 1054 738 1050 745 q 1097 684 1058 732 q 1138 632 1135 635 q 1137 627 1139 629 q 1130 625 1134 625 l 1130 625 z "},"":{"ha":1389,"x_min":218,"x_max":1171,"o":"m 1169 861 l 694 1154 l 218 861 l 218 330 l 346 254 l 346 788 l 694 1004 l 1043 788 l 1043 252 l 1171 330 l 1171 861 l 1169 861 m 764 631 l 764 194 l 694 151 l 625 194 l 625 815 l 471 720 l 471 176 l 694 37 l 918 176 l 918 720 l 764 815 l 764 631 z "},"":{"ha":1389,"x_min":205,"x_max":1184,"o":"m 308 826 q 305 712 292 770 q 362 609 319 654 l 581 392 l 677 488 l 458 707 q 435 763 435 730 q 458 821 435 796 q 516 844 483 844 q 572 821 549 844 l 581 812 l 677 909 l 670 917 q 574 972 628 958 q 467 975 519 987 q 422 1053 458 1021 q 336 1085 385 1085 q 244 1046 282 1085 q 206 954 206 1008 q 235 871 206 906 q 308 826 264 836 l 308 826 m 490 699 l 586 602 l 804 821 q 861 844 827 844 q 917 821 894 844 q 941 763 941 796 q 917 707 941 730 l 910 699 l 1006 602 l 1015 610 q 1072 711 1058 654 q 1069 823 1085 769 q 1150 867 1118 830 q 1183 954 1183 903 q 1145 1046 1183 1008 q 1053 1085 1107 1085 q 966 1053 1002 1085 q 922 971 929 1020 q 809 974 867 987 q 707 917 751 960 l 689 898 l 490 699 l 490 699 m 1072 366 q 1071 475 1085 420 q 1015 572 1057 530 l 796 789 l 700 693 l 917 475 q 941 418 941 452 q 918 362 941 385 q 861 338 894 338 q 804 362 827 338 l 796 369 l 700 273 l 707 264 q 810 208 751 221 q 925 210 869 194 q 970 136 935 165 q 1054 106 1006 106 q 1146 144 1108 106 q 1184 237 1184 183 q 1152 323 1184 286 q 1072 366 1119 359 l 1072 366 m 887 483 l 791 579 l 572 361 q 516 338 549 338 q 458 362 483 338 q 435 418 435 385 q 458 475 435 452 l 467 483 l 369 579 l 362 572 q 306 474 320 530 q 305 365 292 418 q 233 319 262 354 q 205 237 205 283 q 243 144 205 183 q 335 106 281 106 q 418 135 382 106 q 464 208 453 164 q 572 208 517 194 q 670 264 628 222 l 887 483 l 887 483 z "},"":{"ha":1389,"x_min":203,"x_max":1185,"o":"m 939 948 q 854 990 895 974 q 773 1034 814 1006 q 716 1086 749 1050 q 655 1156 684 1122 q 633 1073 648 1100 q 598 1029 617 1046 q 527 982 557 997 q 461 948 496 967 q 404 911 446 940 q 317 829 362 882 q 238 700 273 777 q 203 518 203 623 q 244 325 203 414 q 353 172 285 236 q 511 71 422 107 q 699 34 601 34 q 884 68 796 34 q 1040 165 972 103 q 1146 315 1107 227 q 1185 510 1185 403 q 1152 696 1185 617 q 1075 828 1118 774 q 992 911 1032 882 q 939 948 952 940 l 939 948 m 945 136 q 908 113 941 132 q 831 91 875 95 q 735 90 788 87 q 647 125 682 92 q 642 138 642 132 q 647 148 643 145 q 654 153 651 151 q 663 156 658 156 q 668 155 667 156 q 671 153 669 155 q 715 132 688 141 q 795 122 743 122 q 882 134 846 122 q 935 157 918 145 q 945 160 941 163 q 949 155 948 157 q 950 146 949 151 q 945 136 951 142 l 945 136 m 755 235 q 779 254 765 243 q 806 270 792 264 q 829 276 819 275 q 850 277 838 277 q 877 275 864 277 q 899 267 890 274 q 915 248 909 260 q 925 228 921 236 q 925 215 928 220 q 916 206 922 210 q 907 205 910 203 q 899 218 905 208 q 885 238 894 229 q 848 247 876 247 q 806 238 819 247 q 780 218 793 229 q 760 203 766 208 q 749 206 753 199 q 745 220 743 213 q 755 235 747 227 l 755 235 m 1042 225 q 963 289 1013 228 q 876 353 913 350 q 817 332 852 353 q 740 288 781 312 q 654 242 699 263 q 570 221 610 221 q 500 228 521 221 q 464 245 480 235 q 427 288 439 262 q 416 350 415 315 q 469 464 418 414 q 595 514 521 514 q 758 452 690 515 q 873 391 826 389 q 979 444 914 391 q 1082 496 1044 496 q 1137 465 1123 496 q 1152 407 1152 433 q 1143 343 1152 382 q 1115 275 1134 304 q 1080 235 1095 247 q 1042 225 1065 224 l 1042 225 z "},"":{"ha":1389,"x_min":203,"x_max":1185,"o":"m 878 595 q 824 466 878 519 q 694 412 770 412 q 565 466 618 412 q 511 595 511 519 q 565 724 511 671 q 694 777 618 777 q 824 724 770 777 q 878 595 878 671 l 878 595 m 693 812 l 693 812 l 1134 812 q 1059 924 1104 873 q 956 1010 1013 974 q 833 1066 899 1046 q 694 1086 766 1086 q 581 1073 636 1086 q 477 1035 526 1059 q 385 977 427 1010 q 309 899 343 943 l 477 612 q 546 754 484 696 q 693 812 608 812 l 693 812 m 694 377 q 568 418 624 377 q 490 521 513 458 l 286 868 q 225 741 247 810 q 203 595 203 671 q 236 420 203 503 q 325 273 269 338 q 458 165 381 208 q 624 110 534 122 l 793 401 q 746 384 770 391 q 694 377 722 377 l 694 377 m 1150 777 l 812 777 q 884 701 857 749 q 911 595 911 652 q 905 541 911 567 q 886 491 898 514 l 886 491 l 662 106 q 678 104 670 104 q 694 104 686 104 q 886 143 796 104 q 1042 248 975 182 q 1147 404 1108 315 q 1185 595 1185 494 q 1176 690 1185 644 q 1150 777 1166 735 l 1150 777 z "},"":{"ha":1389,"x_min":212,"x_max":1180,"o":"m 1180 572 q 1167 683 1180 629 q 1131 783 1154 736 q 1145 825 1138 800 q 1162 883 1153 850 q 1136 1045 1190 987 q 985 1093 1082 1103 q 871 1070 926 1086 q 761 1028 815 1054 q 753 1029 757 1029 q 743 1029 749 1029 q 591 1000 663 1029 q 463 921 519 971 q 367 802 406 871 q 315 652 328 732 q 458 807 381 754 q 534 860 534 860 q 411 713 468 787 q 311 564 354 640 q 310 562 311 563 q 308 559 309 560 q 247 426 271 494 q 212 285 222 358 q 244 134 197 184 q 395 99 292 84 q 482 129 430 104 q 552 163 534 153 q 644 128 595 140 q 743 117 692 117 q 880 139 815 117 q 998 202 944 161 q 1093 298 1053 243 q 1156 420 1133 354 l 920 420 q 849 347 894 374 q 750 319 804 319 q 616 375 673 319 q 556 511 560 431 l 1176 511 q 1179 542 1179 526 q 1180 572 1180 557 l 1180 572 m 397 133 q 298 192 342 126 q 336 407 255 258 q 410 279 363 336 q 517 182 456 221 q 464 154 500 172 q 397 133 427 136 l 397 133 m 557 647 q 622 774 567 723 q 750 825 677 825 q 880 774 825 825 q 943 647 935 723 l 557 647 l 557 647 m 907 996 q 1099 1015 1046 1063 q 1138 891 1153 966 q 1129 858 1135 882 q 1116 811 1123 834 q 1026 921 1080 873 q 907 996 972 968 l 907 996 z "},"":{"ha":1389,"x_min":203,"x_max":1169,"o":"m 1023 958 q 1018 962 1020 960 q 1015 966 1016 964 q 1018 962 1016 964 q 1023 958 1020 960 l 1023 958 m 227 694 q 225 693 227 694 q 222 689 224 692 q 222 688 222 689 q 221 685 222 686 q 224 690 222 688 q 227 694 225 692 l 227 694 m 363 917 q 366 919 365 918 q 366 920 366 920 q 434 975 397 951 q 510 1017 471 1000 q 597 1044 552 1035 q 686 1053 642 1053 q 772 1044 730 1053 q 853 1020 814 1036 q 906 1008 878 1016 q 960 985 935 1000 q 833 1050 902 1027 q 686 1073 764 1073 q 500 1035 587 1073 q 350 930 414 997 q 356 924 353 928 q 363 917 359 920 l 363 917 m 532 562 q 527 566 529 563 q 524 570 525 568 q 522 559 522 564 q 522 548 522 553 q 524 526 522 537 q 529 503 525 515 q 538 481 532 492 q 553 460 544 469 q 568 446 560 452 q 586 433 576 439 l 585 431 q 629 433 604 431 q 669 438 654 434 q 720 467 692 446 q 747 487 747 487 q 766 494 757 496 q 785 492 776 492 q 796 504 795 492 q 785 529 798 515 q 738 551 773 543 q 671 537 703 559 q 599 527 639 515 q 532 562 559 538 l 532 562 m 562 827 q 557 810 559 819 q 556 791 556 800 q 558 769 556 780 q 566 746 560 758 q 572 731 568 738 q 579 719 576 724 q 584 712 582 715 q 589 707 586 709 q 597 714 593 711 q 606 720 602 718 q 641 739 616 726 q 671 757 666 751 q 681 779 675 761 q 678 804 686 798 q 635 811 671 812 q 585 812 600 810 q 572 818 578 814 q 562 827 566 822 l 562 827 m 574 629 q 574 629 574 629 q 574 629 574 629 q 574 629 574 629 q 574 631 574 629 l 574 629 l 574 629 m 1169 720 q 1162 694 1169 708 q 1152 677 1154 680 q 1154 682 1153 678 q 1154 699 1154 686 q 1154 753 1154 715 q 1131 840 1153 792 q 1086 909 1111 886 q 1061 932 1061 932 l 1061 917 q 1027 954 1057 933 q 998 975 998 975 l 998 956 q 1092 842 1074 886 q 1109 799 1109 799 q 1062 877 1096 842 q 994 944 1028 911 q 910 991 962 975 q 859 1008 859 1008 q 968 914 932 966 q 1005 863 1005 863 q 941 903 967 899 q 914 907 914 907 q 951 871 937 891 q 986 817 966 850 q 1010 726 1008 784 q 1013 667 1013 667 q 987 705 1002 693 q 971 716 971 716 q 975 682 971 716 q 981 621 978 647 q 975 559 983 595 q 967 524 967 524 q 960 547 967 541 q 952 553 952 553 q 952 538 952 553 q 936 475 952 524 q 899 408 921 426 q 872 391 876 389 q 870 397 868 392 q 872 403 872 403 q 865 404 872 403 q 848 388 859 404 q 827 366 840 374 q 810 357 814 358 q 816 367 814 359 q 818 374 818 374 q 803 369 818 374 q 739 355 788 363 q 667 361 690 349 q 644 374 644 374 q 664 376 650 378 q 678 374 678 374 q 659 385 678 378 q 614 395 639 391 q 585 404 595 396 q 570 419 574 412 q 553 432 560 426 q 538 446 545 438 q 526 463 532 454 q 517 480 521 471 q 505 515 509 498 q 502 548 502 533 q 504 576 502 563 q 509 598 506 589 q 512 613 510 608 q 514 620 514 618 l 514 620 l 515 618 q 524 635 518 628 q 534 644 529 642 q 531 647 533 646 q 526 650 529 648 q 506 656 517 654 q 484 656 495 658 q 463 650 473 655 q 442 637 452 644 q 427 621 434 631 q 415 601 419 612 q 408 578 410 590 q 406 555 406 567 q 408 531 406 543 q 414 507 410 519 q 425 486 419 496 q 438 465 431 475 q 455 447 446 456 q 473 430 464 438 q 454 446 464 438 q 437 464 445 454 q 421 484 429 473 q 410 506 414 494 q 401 529 404 517 q 397 555 397 541 q 398 580 396 567 q 404 605 400 593 q 416 628 410 617 q 434 648 423 639 q 445 656 439 652 q 456 663 450 661 q 468 669 461 666 q 481 673 475 671 q 494 674 487 674 q 509 673 502 674 q 522 671 515 673 q 534 665 529 669 q 547 659 541 662 q 557 651 552 655 q 562 646 560 648 q 567 642 564 644 q 570 640 568 640 q 572 637 571 639 q 574 635 572 636 q 575 632 575 633 q 579 665 581 647 q 576 689 578 684 q 570 699 574 693 q 562 711 566 704 q 554 723 557 716 q 547 738 551 730 q 538 765 541 751 q 536 791 536 779 q 538 817 536 804 q 544 838 540 829 q 545 843 544 841 q 547 848 545 845 q 583 915 555 884 q 612 945 612 945 q 519 920 555 954 q 484 886 484 886 q 483 886 483 886 q 483 886 483 886 q 469 868 479 882 q 457 841 458 854 q 458 859 457 841 q 465 894 460 878 q 420 899 444 901 q 385 894 397 897 l 385 894 q 359 886 372 891 q 335 875 346 882 q 315 861 324 868 q 297 845 305 853 q 273 818 282 830 q 264 806 264 806 l 264 806 l 264 806 l 264 806 q 220 701 236 765 q 203 637 203 637 q 217 665 208 651 q 227 678 227 678 q 210 582 210 655 q 210 509 210 509 q 216 541 210 525 q 222 557 222 557 q 252 428 225 522 q 377 250 279 334 q 547 145 475 164 q 618 126 618 126 q 592 140 598 133 q 586 146 586 146 q 686 119 650 121 q 723 118 723 118 q 709 129 712 125 q 707 133 707 133 q 850 148 774 130 q 947 180 925 165 q 983 218 967 195 q 998 241 998 241 q 1088 311 1053 267 q 1135 382 1124 355 q 1141 433 1146 410 q 1135 457 1135 457 q 1140 467 1135 457 q 1169 534 1145 477 q 1182 656 1195 593 q 1169 720 1169 720 l 1169 720 m 326 891 q 338 899 331 895 q 353 905 345 902 q 319 954 323 929 q 316 979 316 979 q 277 911 288 952 q 266 841 267 869 q 267 842 267 841 q 269 842 267 842 q 292 867 278 854 q 326 891 307 880 l 326 891 z "},"":{"ha":1389,"x_min":202,"x_max":1187,"o":"m 891 589 q 891 594 891 591 q 891 600 891 597 l 891 600 q 880 771 890 703 q 856 884 871 840 q 839 924 848 907 q 822 955 830 941 q 803 977 812 967 q 784 993 793 986 q 762 1005 774 1001 q 739 1012 750 1009 q 718 1015 727 1015 q 701 1016 708 1016 q 697 1016 699 1016 q 694 1016 696 1016 q 692 1016 693 1016 q 688 1016 690 1016 q 671 1015 681 1016 q 650 1012 662 1015 q 627 1005 639 1009 q 605 993 614 1001 q 586 977 595 986 q 567 955 576 967 q 541 905 553 935 q 519 831 529 876 q 505 732 510 789 q 498 600 499 675 l 498 600 q 498 595 498 598 q 498 590 498 593 q 498 585 498 587 q 498 579 498 582 l 498 579 q 509 412 499 479 q 533 304 518 346 q 550 264 541 281 q 568 235 559 247 q 586 213 576 222 q 605 198 595 203 q 627 185 614 190 q 650 178 639 180 q 671 176 662 176 q 688 175 681 175 q 692 175 690 175 q 694 175 693 175 q 697 175 696 175 q 701 175 699 175 q 718 176 708 175 q 739 178 727 176 q 762 185 750 180 q 784 198 774 190 q 803 213 793 203 q 821 235 812 222 q 848 282 836 254 q 869 354 860 311 q 884 450 879 395 q 891 579 890 506 l 891 579 q 891 584 891 582 q 891 589 891 586 l 891 589 m 841 308 q 825 271 833 286 q 808 244 817 255 q 791 224 800 232 q 774 210 783 216 q 756 199 766 203 q 735 194 746 195 q 716 191 726 191 q 701 190 707 190 q 699 190 700 190 q 696 190 697 190 l 696 190 l 696 190 q 696 190 696 190 q 694 190 696 190 q 694 190 694 190 q 693 190 693 190 l 693 190 l 693 190 l 693 190 l 693 190 q 690 190 692 190 q 688 190 689 190 q 673 191 682 190 q 654 194 663 191 q 633 199 643 195 q 614 210 623 203 q 597 224 606 216 q 581 244 589 232 q 556 289 568 262 q 534 358 544 316 q 519 455 525 399 q 514 589 514 511 q 524 766 514 696 q 548 879 533 836 q 564 917 556 901 q 581 945 572 933 q 597 966 589 958 q 614 979 606 974 q 633 990 623 986 q 654 997 643 994 q 673 999 663 998 q 688 1000 682 1000 q 690 1000 689 1000 q 693 1000 692 1000 l 693 1000 l 693 1000 q 693 1000 693 1000 q 694 1000 693 1000 q 695 1000 694 1000 q 696 1000 696 1000 l 696 1000 l 696 1000 q 699 1000 697 1000 q 701 1000 700 1000 q 716 999 707 1000 q 735 997 726 998 q 756 990 746 994 q 774 979 766 986 q 791 966 783 974 q 808 945 800 958 q 833 899 821 928 q 854 829 845 871 q 869 728 864 787 q 875 590 875 670 q 865 418 875 486 q 841 308 856 350 l 841 308 m 1164 766 q 1075 945 1131 876 q 954 1054 1019 1015 q 820 1107 888 1093 q 694 1120 751 1120 q 568 1107 636 1120 q 435 1054 500 1093 q 313 945 369 1015 q 225 766 258 876 q 208 680 213 723 q 202 595 202 636 q 208 511 202 553 q 225 425 213 468 q 313 245 258 315 q 435 137 369 176 q 568 83 500 98 q 694 69 636 69 q 820 83 751 69 q 954 137 888 98 q 1075 245 1019 176 q 1164 425 1131 315 q 1181 511 1176 468 q 1187 595 1187 553 q 1181 680 1187 636 q 1164 766 1176 723 l 1164 766 m 802 182 q 743 157 777 163 q 694 151 709 151 q 646 157 680 151 q 587 182 612 163 q 519 289 553 209 q 484 595 484 369 q 519 902 484 822 q 587 1009 553 982 q 646 1034 612 1028 q 694 1040 680 1039 q 743 1034 709 1039 q 802 1009 777 1028 q 870 902 836 982 q 905 595 905 822 q 870 289 905 369 q 802 182 836 209 l 802 182 z "},"":{"ha":1389,"x_min":203,"x_max":1184,"o":"m 354 1085 q 316 1074 336 1082 q 281 1055 296 1066 q 258 1038 270 1048 q 239 1017 247 1027 q 222 987 231 1005 q 209 954 213 968 l 203 937 l 203 255 l 209 239 q 222 205 213 224 q 239 175 231 186 q 278 138 255 155 q 326 113 301 121 q 387 106 346 107 q 694 104 429 104 q 1001 106 960 104 q 1062 113 1042 107 q 1111 138 1088 121 q 1149 175 1134 155 q 1167 205 1158 186 q 1180 239 1176 224 l 1184 255 l 1184 937 l 1180 954 q 1167 987 1176 968 q 1149 1017 1158 1005 q 1131 1038 1142 1027 q 1108 1055 1119 1048 q 1081 1071 1097 1063 q 1051 1081 1065 1078 l 1035 1086 l 700 1086 q 460 1086 562 1086 q 354 1085 358 1085 l 354 1085 m 812 905 q 878 885 850 898 q 922 852 905 872 q 937 827 929 842 q 948 800 944 812 q 951 783 951 791 q 952 754 952 774 q 951 724 952 731 q 948 708 951 718 q 924 662 941 682 q 882 627 907 642 l 869 618 l 878 616 q 902 606 888 613 q 925 591 916 598 q 960 552 945 576 q 981 498 974 528 q 983 457 983 483 q 981 418 983 431 q 928 330 968 365 q 827 282 888 294 q 774 276 803 277 q 617 275 745 275 l 452 275 l 452 909 l 624 907 q 770 907 739 907 q 812 905 800 906 l 812 905 m 593 726 l 593 651 l 671 652 q 741 653 727 652 q 764 656 754 654 q 804 680 791 663 q 817 727 817 697 q 808 765 817 750 q 783 788 800 780 q 743 798 768 796 q 654 800 719 800 l 593 800 l 593 726 l 593 726 m 593 469 l 593 382 l 680 384 q 768 386 751 384 q 803 396 785 388 q 834 423 825 406 q 844 468 844 441 q 829 522 844 502 q 783 552 814 543 q 760 555 773 555 q 682 556 746 556 l 593 556 l 593 469 l 593 469 z "},"":{"ha":1389,"x_min":205,"x_max":1184,"o":"m 694 1031 q 665 1030 680 1031 q 635 1028 650 1029 q 632 1034 633 1031 q 628 1040 631 1038 q 641 1059 636 1048 q 646 1081 646 1069 q 627 1122 646 1105 q 581 1139 608 1139 q 534 1122 553 1139 q 515 1081 515 1105 q 528 1045 515 1061 q 560 1024 540 1029 q 559 1021 560 1023 q 559 1017 559 1019 q 559 1015 559 1016 q 560 1012 559 1013 q 418 945 483 990 q 305 839 353 901 q 231 701 258 777 q 205 541 205 625 q 243 350 205 439 q 347 194 281 260 q 503 89 414 127 q 694 50 593 50 q 886 89 796 50 q 1042 194 975 127 q 1146 350 1108 260 q 1184 541 1184 439 q 1146 732 1184 643 q 1042 887 1108 821 q 886 992 975 954 q 694 1031 796 1031 l 694 1031 m 530 1081 q 545 1112 530 1099 q 581 1126 560 1126 q 615 1112 601 1126 q 629 1081 629 1099 q 627 1064 629 1072 q 617 1051 624 1057 q 608 1055 613 1054 q 598 1057 604 1057 q 578 1051 587 1057 q 564 1038 570 1046 q 540 1053 549 1042 q 530 1081 530 1065 l 530 1081 m 694 127 q 534 160 609 127 q 402 249 458 193 q 313 380 346 305 q 281 541 281 456 q 313 702 281 627 q 402 833 346 777 q 534 921 458 888 q 694 954 609 954 q 855 921 780 954 q 987 833 930 888 q 1076 702 1043 777 q 1108 541 1108 627 q 1076 380 1108 456 q 987 249 1043 305 q 855 160 930 193 q 694 127 780 127 l 694 127 m 983 366 l 1009 349 q 1049 439 1035 391 q 1063 541 1063 488 q 1061 577 1063 559 q 1057 613 1059 595 l 1027 606 q 1022 608 1024 606 q 1019 612 1020 609 q 1020 616 1019 614 q 1024 620 1021 618 l 1054 627 q 998 751 1038 694 q 901 846 958 808 l 882 817 q 878 813 880 814 q 873 815 875 812 q 870 819 871 817 q 871 823 869 822 l 890 854 q 798 895 848 880 q 694 910 749 910 q 659 908 677 910 q 625 903 642 906 l 633 869 q 632 864 633 867 q 628 861 631 861 q 623 862 625 860 q 620 867 621 864 l 613 901 q 485 844 543 884 q 389 747 427 804 l 419 728 q 422 724 422 727 q 422 719 423 722 q 418 717 420 718 q 412 718 415 716 l 381 736 q 340 645 355 694 q 326 541 326 595 q 328 505 326 522 q 332 469 330 487 l 368 477 q 373 476 370 477 q 376 472 376 475 q 374 467 376 469 q 370 464 373 464 l 335 456 q 392 329 351 387 q 491 233 433 271 l 513 267 q 517 269 514 269 q 522 269 519 270 q 525 264 525 267 q 524 260 525 262 l 502 225 q 593 186 544 201 q 694 172 642 172 q 732 174 713 172 q 769 179 751 176 l 762 214 q 762 220 761 217 q 766 222 764 222 q 772 221 769 222 q 774 217 774 220 l 783 183 q 908 240 852 199 q 1002 338 964 281 l 975 355 q 973 359 974 357 q 974 365 972 362 q 978 367 975 366 q 983 366 981 368 l 983 366 m 547 644 l 613 620 q 629 633 621 627 q 647 644 637 639 l 647 780 l 707 654 q 714 652 711 652 q 720 651 718 652 l 711 642 q 703 643 707 643 q 694 643 699 643 q 623 613 652 643 q 593 541 593 583 q 594 524 593 532 q 598 507 595 515 l 590 495 q 590 496 590 495 q 590 496 590 496 l 456 496 l 582 555 q 587 576 583 566 q 595 595 590 586 l 547 644 l 547 644 m 473 271 l 655 574 l 910 812 l 728 510 l 727 509 l 473 271 l 473 271 m 849 445 l 783 471 q 768 455 776 463 q 751 442 760 448 l 753 444 l 750 302 l 694 427 q 680 429 686 427 q 666 431 673 430 l 675 441 q 685 439 681 439 q 694 438 689 438 q 766 469 736 438 q 796 541 796 499 q 794 564 796 552 q 787 585 792 575 l 793 595 q 793 595 793 595 q 793 595 793 595 l 932 593 l 807 537 q 805 516 807 526 q 799 496 803 506 l 849 445 l 849 445 m 693 572 q 671 562 681 572 q 663 540 662 552 q 673 517 663 526 q 696 510 684 509 q 718 519 709 510 q 726 543 727 529 q 716 564 726 555 q 693 572 707 574 l 693 572 z "},"":{"ha":1389,"x_min":206,"x_max":1183,"o":"m 206 1149 l 294 152 l 694 41 l 1095 152 l 1183 1149 l 206 1149 l 206 1149 m 998 921 l 968 585 l 968 585 l 947 351 l 945 331 l 694 262 l 444 331 l 427 524 l 549 524 l 559 426 l 694 389 l 694 389 l 696 389 l 831 426 l 845 585 l 560 585 l 557 612 l 552 674 l 549 707 l 856 707 l 868 831 l 399 831 l 397 859 l 392 921 l 388 954 l 1001 954 l 998 921 l 998 921 z "},"":{"ha":1389,"x_min":203,"x_max":1185,"o":"m 350 1040 l 316 875 l 987 875 l 967 768 l 296 768 l 263 604 l 933 604 l 897 415 l 625 326 l 392 415 l 407 496 l 243 496 l 203 300 l 591 151 l 1038 300 l 1097 597 l 1109 656 l 1185 1040 l 350 1040 l 350 1040 z "},"":{"ha":1389,"x_min":14,"x_max":1375,"o":"m 1374 384 q 1355 437 1370 414 q 1317 477 1340 460 q 1260 509 1291 499 q 1196 519 1229 518 q 1143 515 1169 519 q 1090 503 1116 511 q 1076 497 1082 500 q 1061 491 1069 494 q 1059 494 1061 492 q 1057 498 1058 496 q 1042 529 1050 514 q 1032 562 1035 544 q 1030 587 1031 575 q 1032 612 1029 600 q 1038 635 1035 624 q 1046 659 1042 647 q 1046 669 1047 666 q 1039 675 1044 673 q 1034 677 1036 677 q 1029 678 1032 678 q 1002 680 1016 681 q 974 674 987 678 q 965 670 968 673 q 962 662 962 667 q 960 655 960 658 q 958 650 959 652 q 950 623 954 636 q 941 600 947 610 q 910 539 926 568 q 878 480 894 510 q 873 474 875 477 q 869 468 871 471 q 857 492 863 480 q 850 517 852 503 q 847 547 848 532 q 849 576 846 562 q 855 598 852 587 q 863 620 859 609 q 863 628 864 625 q 857 633 863 631 q 852 636 854 635 q 848 637 849 637 q 818 639 833 640 q 789 633 803 637 q 782 629 784 632 q 779 621 780 625 q 770 594 774 608 q 761 568 766 581 q 715 465 738 517 q 669 362 692 414 q 659 340 665 351 q 648 320 654 330 q 644 315 646 317 q 640 309 643 312 q 639 312 639 311 q 639 315 639 313 q 638 328 639 321 q 639 342 637 335 q 647 380 643 361 q 656 418 651 399 q 665 450 661 434 q 673 481 669 465 q 674 492 674 487 q 670 500 674 496 q 652 510 663 509 q 633 505 640 511 q 631 504 632 505 q 628 502 629 503 q 629 507 628 505 q 629 510 629 509 q 631 534 631 522 q 628 557 631 547 q 613 581 624 572 q 587 589 602 589 q 573 587 581 589 q 559 583 566 586 q 509 553 532 572 q 469 511 487 534 q 466 508 468 510 q 461 505 464 506 q 414 478 438 491 q 366 453 391 465 q 349 443 358 448 q 331 434 340 438 q 317 447 324 441 q 304 460 311 453 q 260 495 282 477 q 214 532 237 513 q 176 564 195 547 q 142 602 157 582 q 125 635 132 618 q 118 671 119 652 q 123 719 117 696 q 142 762 130 742 q 180 811 159 789 q 225 853 202 833 q 278 891 251 873 q 334 925 305 909 q 416 966 374 947 q 500 998 457 985 q 591 1018 545 1012 q 685 1019 637 1024 q 722 1013 704 1017 q 755 998 739 1008 q 778 982 768 991 q 793 959 788 972 q 798 930 798 944 q 795 902 798 916 q 773 849 788 873 q 738 804 758 825 q 666 745 705 769 q 582 705 627 720 q 530 690 556 696 q 476 682 503 685 q 433 683 454 681 q 389 693 411 685 q 363 706 376 699 q 342 726 351 713 q 338 728 340 727 q 332 728 336 730 q 329 724 330 727 q 330 718 328 720 q 333 707 331 712 q 338 699 335 703 q 354 677 345 686 q 374 662 363 669 q 420 643 396 648 q 469 636 444 637 q 544 640 507 635 q 617 655 581 646 q 713 696 669 670 q 795 762 758 722 q 845 835 825 796 q 869 918 865 873 q 869 963 872 941 q 856 1005 867 985 q 827 1042 845 1027 q 788 1070 810 1058 q 723 1094 757 1086 q 654 1103 689 1101 q 631 1103 643 1103 q 608 1103 618 1103 q 524 1093 566 1101 q 444 1069 483 1084 q 383 1046 412 1058 q 326 1019 354 1034 q 205 949 263 987 q 100 859 148 910 q 57 804 76 833 q 26 742 38 774 q 20 721 23 731 q 16 701 18 711 q 16 699 15 700 q 14 697 16 699 q 14 688 14 693 q 14 678 14 684 q 17 671 16 675 q 18 663 18 667 q 37 619 24 640 q 64 579 49 598 q 113 531 87 553 q 168 488 140 509 q 216 454 191 472 q 266 419 241 437 q 274 413 270 416 q 282 406 278 410 q 275 402 278 404 q 269 399 271 400 q 205 363 236 382 q 145 323 174 345 q 113 294 129 309 q 85 262 96 279 q 61 200 66 232 q 69 134 56 168 q 80 115 73 123 q 95 100 87 107 q 101 97 98 99 q 107 94 104 95 q 125 91 117 92 q 142 87 134 90 q 159 87 151 87 q 175 87 167 87 q 227 99 202 90 q 275 123 252 109 q 334 180 311 148 q 366 255 357 213 q 374 315 374 285 q 365 376 374 346 q 363 381 365 378 q 362 387 362 384 q 359 392 361 389 q 357 399 358 395 q 394 420 376 410 q 431 441 412 431 q 431 441 431 441 q 433 441 431 441 q 430 433 431 437 q 429 427 429 430 q 418 378 422 403 q 415 328 414 354 q 425 276 418 301 q 449 229 433 251 q 486 210 461 210 q 524 228 510 210 q 534 241 529 235 q 541 255 538 248 q 559 293 551 274 q 576 331 568 312 q 577 333 576 332 q 579 336 578 334 q 577 319 578 327 q 576 302 576 311 q 576 278 575 290 q 582 255 578 266 q 593 237 586 244 q 610 229 600 231 q 625 231 618 228 q 637 239 632 235 q 653 254 646 245 q 666 274 661 263 q 698 331 682 302 q 727 388 713 359 q 755 452 742 419 q 784 515 769 484 q 785 519 784 518 q 787 524 785 521 q 793 498 789 510 q 800 473 796 486 q 810 445 804 458 q 823 418 817 431 q 827 407 827 411 q 822 397 826 403 q 785 352 803 374 q 749 308 766 330 q 741 298 745 302 q 734 288 736 293 q 731 280 732 283 q 728 273 730 277 q 731 259 727 266 q 743 251 735 252 q 759 249 751 250 q 773 250 766 248 q 821 260 799 251 q 864 283 844 269 q 899 329 890 302 q 902 387 909 355 q 897 403 901 395 q 891 419 894 411 q 890 426 890 423 q 892 433 891 429 q 932 494 914 463 q 967 559 951 526 q 968 561 967 560 q 970 563 968 562 q 984 509 975 536 q 1008 457 993 481 q 993 444 1000 450 q 979 430 986 437 q 952 396 964 414 q 933 358 940 378 q 929 340 930 349 q 929 321 928 331 q 941 298 930 307 q 967 293 952 289 q 1025 315 998 300 q 1072 357 1051 331 q 1087 394 1085 374 q 1084 434 1089 414 q 1080 446 1082 439 q 1077 457 1078 452 q 1092 463 1084 460 q 1107 467 1100 465 q 1187 474 1147 476 q 1267 457 1227 472 q 1308 434 1290 449 q 1336 397 1325 419 q 1343 345 1350 370 q 1310 302 1336 320 q 1305 300 1308 301 q 1299 296 1302 298 q 1299 292 1299 294 q 1298 289 1298 290 q 1300 287 1298 288 q 1303 286 1302 286 q 1319 290 1312 286 q 1333 298 1326 293 q 1360 325 1350 309 q 1373 361 1371 340 q 1373 362 1374 362 q 1375 363 1373 362 q 1375 372 1375 368 q 1375 381 1375 377 q 1373 382 1373 382 q 1373 384 1374 382 l 1374 384 m 316 311 q 298 244 313 274 q 255 191 282 214 q 222 168 240 178 q 184 156 205 159 q 170 155 178 155 q 156 157 163 155 q 142 171 145 163 q 138 189 138 179 q 143 218 138 203 q 155 244 148 232 q 178 275 164 262 q 206 301 191 289 q 256 337 231 320 q 307 369 281 354 q 309 370 308 369 q 309 370 309 370 q 315 340 313 355 q 316 311 317 326 l 316 311 m 589 521 q 585 497 587 509 q 579 475 582 486 q 553 398 567 435 q 522 323 538 361 q 514 310 518 316 q 507 297 510 304 q 505 295 506 296 q 503 293 505 294 q 495 289 499 289 q 488 296 491 289 q 484 310 486 302 q 480 326 481 317 q 479 335 479 330 q 479 346 479 340 q 490 416 479 382 q 519 480 500 449 q 536 504 528 492 q 559 524 545 515 q 567 528 563 526 q 576 532 571 530 q 587 530 583 533 q 589 521 590 528 l 589 521 m 776 283 q 809 322 792 302 q 842 361 826 342 q 818 308 845 339 q 776 283 791 277 l 776 283 m 989 336 q 982 332 986 334 q 974 328 978 331 q 970 328 971 327 q 968 332 968 330 q 968 337 968 335 q 970 340 968 339 q 989 385 977 365 q 1020 422 1001 406 q 1021 422 1020 422 q 1021 422 1021 422 q 1021 373 1031 397 q 989 336 1012 349 l 989 336 z "},"":{"ha":1389,"x_min":281,"x_max":1108,"o":"m 694 743 l 694 743 q 694 743 694 743 q 694 743 694 743 q 694 743 694 743 q 694 743 694 743 l 694 743 q 734 764 715 745 q 754 783 754 783 q 723 769 738 773 q 694 765 708 765 q 666 769 681 765 q 635 783 651 773 q 654 764 635 783 q 694 743 674 745 l 694 743 m 625 241 l 610 241 q 588 241 600 241 q 570 241 576 241 l 560 241 q 547 239 552 241 q 540 236 543 237 q 536 228 537 232 q 538 218 536 224 q 554 193 544 203 q 568 179 564 182 q 579 172 572 175 q 594 170 586 170 q 607 172 601 170 q 617 179 613 175 q 637 205 629 193 q 646 221 644 217 q 647 228 647 224 q 644 236 647 232 q 637 240 642 239 q 625 241 632 241 l 625 241 m 410 741 q 415 711 408 724 q 422 699 422 699 q 425 720 422 711 q 430 735 427 728 q 437 698 431 718 q 458 661 442 678 q 507 633 469 648 q 578 647 545 618 q 581 638 579 643 q 583 629 582 633 q 583 593 589 612 q 578 574 578 574 q 594 597 578 574 q 608 644 610 620 q 640 657 625 646 q 654 686 655 669 q 629 680 654 686 q 576 707 604 674 q 513 758 562 724 q 396 774 465 792 q 410 771 403 773 q 426 766 418 769 q 426 766 426 766 q 425 766 426 766 q 415 756 419 764 q 410 741 411 749 l 410 741 m 472 745 q 530 705 503 727 q 570 663 557 682 l 570 663 q 570 663 570 663 q 570 663 570 663 q 537 652 560 658 q 487 667 514 647 q 468 705 469 680 q 472 745 467 730 l 472 745 m 829 241 l 819 241 q 801 241 812 241 q 779 241 789 241 l 765 241 q 753 240 758 241 q 745 236 747 239 q 742 228 742 232 q 743 221 742 224 q 752 205 745 217 q 772 179 760 193 q 782 172 776 175 q 795 170 788 170 q 810 172 803 170 q 821 179 817 175 q 835 193 825 182 q 850 218 845 203 q 852 228 853 224 q 849 236 852 232 q 842 239 846 237 q 829 241 837 241 l 829 241 m 781 644 q 795 597 779 620 q 811 574 811 574 q 806 593 811 574 q 806 629 800 612 q 808 638 807 633 q 811 647 810 643 q 882 633 844 618 q 930 661 920 648 q 952 698 947 678 q 959 735 958 718 q 964 720 962 728 q 967 699 967 711 q 974 711 967 699 q 979 741 981 724 q 974 756 978 749 q 964 766 970 764 q 964 766 964 766 q 963 766 963 766 q 979 771 971 769 q 993 774 986 773 q 876 758 924 792 q 812 707 827 724 q 760 680 785 674 q 735 686 735 686 q 749 657 734 669 q 781 644 764 646 l 781 644 m 819 663 q 819 663 819 663 q 819 663 819 663 q 859 705 831 682 q 917 745 886 727 q 921 705 922 730 q 902 667 920 680 q 852 652 875 647 q 819 663 829 658 q 819 663 819 663 q 819 663 819 663 l 819 663 m 1036 463 q 1017 408 1032 433 q 983 366 1002 382 q 977 448 978 404 q 975 502 975 491 q 986 541 975 526 q 1001 559 997 556 q 1010 564 1005 562 q 1020 570 1015 567 q 1078 606 1048 585 q 1108 665 1108 628 q 1096 704 1108 690 q 1074 724 1084 718 q 1072 726 1073 726 q 1069 728 1070 727 q 1063 733 1066 731 q 1059 738 1061 735 q 1053 784 1053 754 q 1057 819 1053 814 q 1074 848 1057 821 q 1082 905 1090 875 q 1071 926 1078 917 q 1051 941 1063 936 q 1032 949 1043 947 q 1009 952 1021 951 q 1008 958 1009 955 q 1006 964 1008 962 q 1004 973 1005 968 q 1005 982 1004 978 q 1006 996 1005 990 q 1009 1006 1006 1002 q 1048 1036 1023 1028 q 1073 1044 1073 1044 l 1099 1050 l 1081 1070 q 1055 1090 1081 1072 q 981 1108 1028 1108 q 955 1106 968 1108 q 929 1100 941 1104 q 860 1059 888 1088 q 821 1015 831 1029 q 811 1018 817 1016 q 800 1021 806 1020 q 806 1076 793 1047 q 819 1104 819 1104 q 800 1103 819 1104 q 746 1072 780 1101 q 737 1103 742 1082 q 743 1153 732 1124 q 677 1112 694 1135 q 658 1063 661 1088 q 644 1095 646 1073 q 642 1123 643 1116 q 604 1092 629 1122 q 581 1019 579 1062 q 574 1017 578 1017 q 568 1015 571 1016 q 529 1059 557 1029 q 460 1100 500 1088 q 434 1107 448 1104 q 408 1109 420 1109 q 334 1090 361 1109 q 308 1070 308 1072 l 290 1050 l 316 1044 q 341 1036 316 1044 q 380 1006 366 1028 q 383 996 382 1002 q 384 982 384 990 q 385 973 385 978 q 382 964 384 968 q 380 958 381 962 q 380 952 380 955 q 357 949 368 951 q 338 941 346 947 q 318 926 326 936 q 307 905 311 917 q 315 848 298 875 q 332 819 332 821 q 336 784 336 814 q 330 738 336 754 q 326 733 328 735 q 320 728 323 731 q 317 726 319 727 q 315 724 316 726 q 293 704 305 718 q 281 665 281 690 q 311 606 281 628 q 369 570 340 585 q 379 564 374 567 q 388 559 384 562 q 403 541 392 556 q 414 502 414 526 q 412 448 414 491 q 406 366 411 404 q 372 408 387 382 q 353 463 357 433 q 323 425 353 463 q 308 308 293 387 q 372 207 320 236 q 492 172 425 178 q 559 79 515 119 q 694 38 602 38 l 694 38 q 694 38 694 38 q 694 38 694 38 q 694 38 694 38 q 694 38 694 38 l 694 38 q 830 79 787 38 q 897 172 873 119 q 1017 207 964 178 q 1081 308 1069 236 q 1066 425 1096 387 q 1036 463 1036 463 l 1036 463 m 941 1070 q 960 1074 951 1073 q 981 1076 970 1076 q 1013 1072 998 1076 q 1034 1065 1027 1069 q 1024 1060 1029 1063 q 1013 1054 1019 1057 q 1004 1055 1009 1054 q 993 1055 998 1055 q 960 1050 975 1055 q 930 1036 944 1046 q 900 1008 910 1021 q 886 987 890 996 q 878 991 882 989 q 869 996 875 993 q 865 998 868 997 q 860 1000 863 1000 q 891 1038 869 1015 q 941 1070 913 1061 l 941 1070 m 987 1031 q 985 1027 986 1029 q 982 1024 983 1025 q 975 1004 977 1015 q 972 985 974 994 q 970 964 972 974 q 963 948 968 955 q 950 945 956 947 q 939 943 944 944 q 929 953 935 947 q 916 966 924 959 q 925 989 918 974 q 945 1016 932 1005 q 964 1026 954 1023 q 987 1031 975 1029 l 987 1031 m 376 1054 q 365 1060 370 1057 q 355 1065 359 1063 q 376 1072 362 1069 q 408 1076 391 1076 q 429 1074 419 1076 q 448 1070 438 1073 q 498 1038 476 1061 q 529 1000 519 1015 q 524 998 526 1000 q 519 996 521 997 q 511 991 514 993 q 503 987 507 989 q 489 1009 499 997 q 458 1036 479 1021 q 429 1050 445 1046 q 396 1055 414 1055 q 385 1055 391 1055 q 376 1054 380 1054 l 376 1054 m 473 966 q 460 953 465 959 q 450 943 454 947 q 439 945 445 944 q 426 948 433 947 l 401 1031 q 425 1026 414 1029 q 444 1016 435 1023 l 473 966 l 473 966 m 403 587 q 394 591 399 589 q 385 597 389 594 q 340 625 361 610 q 319 663 319 640 q 325 689 319 681 q 339 703 331 697 l 345 709 q 342 688 343 697 q 339 675 340 678 q 353 700 339 675 q 373 772 366 724 q 371 821 374 791 q 362 865 368 850 q 361 849 362 857 q 361 834 361 841 q 360 837 361 836 q 358 838 359 838 q 343 863 353 845 q 338 897 334 882 q 342 906 339 902 q 353 914 346 910 q 366 918 358 917 q 385 920 374 920 q 425 915 406 920 q 457 907 445 910 q 540 865 498 894 q 595 825 582 836 q 597 825 597 825 q 597 825 597 825 l 609 815 l 601 829 q 571 867 601 829 q 486 929 541 905 q 500 943 490 935 q 533 963 510 951 q 608 988 568 979 q 694 997 648 997 q 781 988 741 997 q 856 963 821 979 q 889 943 879 951 q 903 929 899 935 q 818 867 848 905 q 788 829 788 829 l 780 815 l 792 825 q 792 825 792 825 q 793 825 792 825 q 849 865 807 836 q 932 907 891 894 q 964 915 944 910 q 1004 920 983 920 q 1023 918 1015 920 q 1036 914 1031 917 q 1046 906 1043 910 q 1051 897 1050 902 q 1046 863 1055 882 q 1031 838 1036 845 q 1029 837 1029 838 q 1028 834 1028 836 q 1027 849 1028 841 q 1027 865 1027 857 q 1018 821 1021 850 q 1016 772 1015 791 q 1036 700 1023 724 q 1050 675 1050 675 q 1048 687 1050 678 q 1044 708 1046 696 q 1047 706 1046 707 q 1050 704 1048 705 l 1050 703 q 1064 689 1058 697 q 1070 663 1070 681 q 1049 625 1070 640 q 1004 597 1028 610 q 995 591 1000 594 q 986 587 990 589 q 958 560 971 579 q 944 513 945 541 q 945 439 943 488 q 952 347 948 389 q 909 336 932 339 q 865 332 887 334 q 859 347 863 339 q 853 361 856 354 q 829 422 852 365 q 796 496 807 479 q 821 380 804 433 q 848 301 837 328 q 835 303 841 302 q 822 304 829 304 q 772 304 822 304 q 694 304 722 304 q 694 304 694 304 q 694 304 694 304 q 694 304 694 304 q 694 304 694 304 q 617 304 667 304 q 567 304 567 304 q 554 303 560 304 q 541 301 548 302 q 568 380 552 328 q 593 496 585 433 q 559 422 582 479 q 536 361 537 365 q 530 347 533 354 q 524 332 526 339 q 479 336 502 334 q 437 347 457 339 q 444 439 441 389 q 445 513 446 488 q 431 560 444 541 q 403 587 418 579 l 403 587 m 491 279 q 489 278 490 279 q 488 277 488 277 q 474 247 476 264 q 479 208 472 229 q 407 224 442 208 q 353 271 372 240 q 334 348 332 304 q 345 400 336 392 q 412 324 362 345 q 506 301 461 304 q 498 289 502 294 q 491 279 494 283 l 491 279 m 879 209 q 831 124 868 179 q 694 68 793 69 q 558 124 595 69 q 510 209 521 179 q 504 239 503 227 q 511 259 505 251 q 529 270 517 264 q 566 275 541 275 l 600 275 q 642 275 618 275 q 694 275 666 275 q 747 275 723 275 q 789 275 770 275 l 823 275 q 860 270 848 275 q 878 259 872 264 q 885 239 884 251 q 879 209 886 227 l 879 209 m 1036 271 q 982 224 1017 240 q 910 208 947 208 q 915 247 917 229 q 901 277 913 264 q 900 278 901 277 q 898 279 899 279 q 891 289 895 283 q 883 301 887 294 q 977 324 928 304 q 1044 400 1027 345 q 1055 348 1053 392 q 1036 271 1057 304 l 1036 271 z "},"":{"ha":1389,"x_min":203,"x_max":1168,"o":"m 583 857 q 547 842 562 857 q 532 806 532 827 q 547 769 532 784 q 583 754 562 754 q 619 769 604 754 q 635 806 635 784 q 619 842 635 827 q 583 857 604 857 l 583 857 m 583 810 q 562 815 571 810 q 553 829 553 821 q 562 841 553 836 q 583 846 571 846 q 604 841 595 846 q 613 829 613 836 q 604 815 613 821 q 583 810 595 810 l 583 810 m 1168 605 q 1097 638 1149 624 q 986 664 1046 652 q 870 682 926 675 q 784 693 814 689 q 789 707 787 700 q 793 722 792 713 q 810 728 802 724 q 829 734 819 731 q 834 721 830 731 q 841 705 838 711 q 987 767 962 701 q 1016 859 1012 833 q 1029 911 1021 883 q 1077 982 1036 939 q 942 961 1016 1000 q 838 854 868 922 q 816 861 827 859 q 793 867 804 864 q 739 963 785 898 q 585 1028 692 1028 q 446 1000 514 1028 q 326 922 378 972 q 275 863 297 895 q 237 793 252 830 q 212 711 220 754 q 203 623 203 669 q 227 469 203 543 q 286 341 251 396 q 361 254 321 286 q 431 221 400 221 q 479 237 458 221 q 506 271 500 254 q 522 230 510 259 q 537 190 533 201 q 568 168 544 176 q 606 174 593 159 q 652 163 624 164 q 697 189 680 161 q 758 197 731 180 q 784 239 784 214 q 808 258 800 239 q 812 296 817 277 q 788 348 810 309 q 755 403 766 387 q 820 382 777 385 q 869 403 863 380 q 950 384 906 374 q 998 416 994 393 q 1081 424 1042 404 q 1112 475 1120 444 q 1185 532 1183 479 q 1168 605 1187 586 l 1168 605 m 924 770 q 884 781 906 777 q 846 785 863 785 q 806 777 823 785 q 766 768 789 768 q 753 768 762 768 q 734 772 743 769 q 749 763 741 766 q 770 760 757 760 q 793 763 779 760 q 822 770 808 766 q 822 765 822 768 q 822 760 822 762 q 774 742 798 754 q 743 726 751 730 q 736 795 727 762 q 758 844 745 827 q 864 814 819 844 q 924 770 909 784 l 924 770 m 959 774 l 947 785 q 927 802 937 795 q 907 818 917 810 q 941 878 922 848 q 985 928 960 907 q 933 888 958 917 q 894 826 909 860 q 878 836 886 831 q 863 844 871 840 q 929 924 883 890 q 1031 960 975 958 q 992 870 994 926 q 959 774 990 814 l 959 774 m 857 732 q 850 753 853 741 q 848 774 846 766 q 865 773 854 774 q 878 770 875 772 q 876 760 876 766 q 875 753 875 753 q 879 760 876 754 q 884 769 882 766 q 912 764 897 768 q 937 754 928 760 q 906 740 926 747 q 857 732 886 732 l 857 732 m 749 869 q 707 768 700 822 q 732 686 715 713 q 662 616 708 644 q 559 575 616 589 q 662 589 623 575 q 723 618 701 602 q 745 639 736 629 q 757 654 753 648 q 861 643 804 651 q 969 625 918 635 q 1057 606 1020 614 q 1103 591 1095 597 q 1113 580 1108 587 q 1119 563 1118 572 q 945 583 1048 574 q 808 593 842 591 q 864 583 821 591 q 958 566 907 575 q 1053 547 1008 556 q 1112 534 1097 538 q 1082 511 1103 519 q 1031 510 1062 503 q 1021 467 1047 487 q 948 463 994 448 q 924 426 958 439 q 845 437 891 412 q 802 412 845 414 q 736 437 760 411 q 739 428 736 433 q 742 422 741 423 q 688 317 735 355 q 586 278 642 278 q 455 304 517 278 q 347 376 393 330 q 273 485 300 422 q 245 623 245 548 q 272 766 245 700 q 345 882 298 833 q 452 958 391 930 q 585 985 514 985 q 702 939 663 985 q 749 869 741 894 l 749 869 z "},"":{"ha":1389,"x_min":205,"x_max":1184,"o":"m 418 956 l 581 956 l 581 500 q 512 284 581 346 q 326 222 444 222 q 262 227 296 222 q 205 240 229 232 l 224 372 q 261 362 240 366 q 307 358 282 358 q 388 388 358 358 q 418 500 418 418 l 418 956 l 418 956 m 723 401 q 802 370 754 384 q 903 357 850 357 q 988 378 959 357 q 1017 435 1017 400 q 989 491 1017 468 q 897 536 962 514 q 752 621 807 568 q 697 751 697 673 q 770 906 697 844 q 971 968 844 968 q 1078 958 1032 968 q 1156 932 1123 947 l 1119 800 q 1059 823 1097 811 q 968 836 1021 836 q 890 814 916 836 q 864 765 864 793 q 895 711 864 731 q 997 663 926 690 q 1139 576 1093 628 q 1184 446 1184 524 q 1113 289 1184 355 q 894 222 1042 222 q 776 237 831 222 q 689 267 720 251 l 723 401 l 723 401 z "},"":{"ha":1389,"x_min":203,"x_max":1185,"o":"m 203 1154 l 293 152 l 694 41 l 1096 152 l 1185 1154 l 203 1154 l 203 1154 m 574 894 l 556 701 l 977 701 l 972 669 l 944 346 l 943 324 l 690 255 l 439 324 l 422 517 l 545 517 l 553 419 l 690 382 l 827 419 l 842 579 l 422 579 l 425 612 l 454 935 l 463 1025 l 954 1025 l 959 956 l 977 764 l 853 764 l 841 890 l 716 898 l 693 898 l 693 898 l 574 894 l 574 894 z "},"":{"ha":1389,"x_min":258,"x_max":1183,"o":"m 704 259 q 695 260 700 259 q 685 263 690 262 q 683 264 684 264 q 681 266 682 264 q 671 269 675 267 q 662 271 667 270 q 661 271 662 271 q 659 273 661 271 q 651 275 655 274 q 643 278 647 277 q 641 279 642 278 q 639 279 640 279 q 630 283 635 282 q 621 288 625 285 q 619 288 620 288 q 617 289 618 289 q 610 292 614 290 q 602 296 606 294 q 601 296 602 296 q 598 298 600 297 q 593 301 595 300 q 587 304 590 302 q 583 306 585 305 q 579 308 582 307 q 573 311 576 309 q 566 315 570 313 q 564 317 564 316 q 562 317 563 317 q 552 323 556 320 q 543 328 548 326 q 541 330 543 330 q 538 332 540 331 q 532 336 536 334 q 526 340 529 338 q 524 342 525 342 q 522 343 522 343 q 515 348 518 346 q 510 353 513 350 q 507 354 509 353 q 505 357 506 355 q 499 360 502 358 q 494 365 496 362 q 491 367 492 366 q 488 369 490 368 q 482 374 486 372 q 475 380 479 377 q 474 380 475 380 q 473 381 473 381 q 466 387 469 384 q 460 395 463 391 q 457 396 458 395 q 456 397 456 397 q 450 403 453 400 q 445 408 448 406 q 443 410 444 410 q 441 412 442 411 q 435 418 438 415 q 429 426 431 422 q 429 426 429 426 q 427 426 429 426 q 421 433 425 430 q 415 441 418 437 q 413 442 414 441 q 412 445 412 444 q 408 450 410 448 q 403 456 406 453 q 401 458 401 457 q 399 460 400 458 q 393 467 396 464 q 389 473 391 471 q 330 579 353 522 q 298 696 307 636 q 298 815 289 755 q 335 930 307 875 l 267 845 q 220 746 235 799 q 206 639 206 693 q 220 530 206 585 q 258 426 233 476 q 260 422 259 425 q 263 418 262 419 q 264 414 263 415 q 266 411 266 412 q 267 410 266 411 q 269 408 267 408 q 269 404 269 406 q 271 401 270 403 q 275 396 273 399 q 278 391 277 393 q 279 388 278 389 q 281 385 281 387 q 285 379 283 382 q 289 373 286 376 q 290 371 289 372 q 292 369 292 370 q 297 361 294 365 q 302 353 300 357 q 302 353 302 353 q 302 353 302 353 q 303 352 302 353 q 304 350 304 351 q 309 344 307 347 q 315 338 312 340 q 316 335 315 336 q 317 332 317 334 q 322 327 320 330 q 327 321 324 324 q 329 320 328 321 q 330 317 330 319 q 336 311 334 315 q 343 304 339 307 q 343 304 343 304 q 343 304 343 304 q 343 303 343 304 q 343 302 343 302 q 349 296 346 300 q 355 289 353 293 q 358 288 357 289 q 359 285 359 286 q 365 281 362 283 q 370 275 368 278 q 372 273 372 274 q 374 271 373 273 q 381 265 377 269 q 388 259 385 262 q 388 259 388 259 q 388 259 388 259 q 390 258 389 258 q 391 256 391 258 q 397 251 393 254 q 403 247 400 248 q 406 244 404 245 q 408 241 407 243 q 414 238 411 240 q 419 233 416 236 q 422 232 420 233 q 425 229 423 231 q 431 226 427 228 q 437 221 434 224 q 439 219 438 220 q 441 218 439 218 q 441 218 441 218 q 442 217 442 217 q 448 214 445 216 q 453 210 450 212 q 456 208 454 209 q 458 206 457 208 q 467 201 463 203 q 476 195 472 198 q 479 195 477 195 q 481 193 480 194 q 488 189 484 191 q 495 184 491 187 q 498 183 496 184 q 502 182 500 182 q 507 179 505 180 q 511 176 509 178 q 512 176 511 176 q 514 175 513 175 q 515 174 514 175 q 518 174 517 174 q 525 170 521 171 q 533 167 529 168 q 534 165 533 165 q 536 165 536 165 q 545 161 540 163 q 553 157 549 159 q 556 157 555 157 q 557 156 557 156 q 567 153 563 155 q 575 149 571 151 q 576 149 575 149 q 576 149 576 149 q 587 146 582 148 q 595 142 591 144 q 598 142 597 142 q 600 141 600 141 q 610 138 605 140 q 620 136 614 137 q 880 143 776 107 q 1046 233 985 179 q 1134 338 1108 288 q 1160 388 1160 388 q 1069 306 1122 338 q 958 258 1017 274 q 833 243 898 243 q 704 259 769 244 l 704 259 m 553 598 q 568 576 560 587 q 586 557 576 566 q 593 550 590 553 q 600 543 597 547 q 602 541 601 543 q 604 540 602 540 q 611 532 608 536 q 618 526 614 529 q 618 526 618 526 q 618 525 618 525 q 618 525 618 525 q 618 525 618 525 q 627 518 623 522 q 636 511 631 514 q 637 509 636 510 q 639 509 639 509 q 648 502 644 505 q 656 495 652 499 q 657 495 656 495 q 658 495 658 495 q 661 492 659 494 q 666 490 663 491 q 667 489 666 490 q 669 487 669 488 q 675 484 673 486 q 682 479 678 481 q 683 479 682 479 q 684 479 684 479 q 690 475 686 476 q 696 472 693 473 q 697 471 696 472 q 700 469 699 471 q 703 468 701 469 q 708 465 705 467 q 708 465 708 465 q 709 465 708 465 q 718 461 713 463 q 726 457 722 460 q 728 456 727 457 q 730 456 728 456 q 736 453 732 454 q 743 450 739 452 q 746 450 745 450 q 749 448 747 449 q 755 446 751 446 q 761 444 758 445 q 764 443 762 444 q 768 442 766 442 q 777 439 772 441 q 785 437 781 437 q 983 444 906 416 q 1105 514 1061 472 q 1166 594 1150 556 q 1183 632 1183 632 q 1042 528 1133 559 q 846 525 951 498 q 838 528 842 526 q 829 530 833 529 q 826 531 827 530 q 823 532 825 532 q 817 534 819 533 q 810 536 814 536 q 807 538 808 537 q 804 538 806 538 q 797 541 800 540 q 791 544 793 543 q 789 545 789 544 q 787 545 788 545 q 779 550 783 548 q 770 553 774 552 q 766 555 768 555 q 761 557 764 556 q 760 559 761 559 q 757 560 758 560 q 751 563 754 562 q 746 567 749 564 q 745 567 746 567 q 743 568 745 567 q 737 572 741 570 q 731 575 734 574 q 728 577 730 576 q 727 578 727 578 q 722 581 724 579 q 718 583 720 582 q 709 590 713 587 q 701 597 705 593 q 699 598 700 597 q 697 600 697 600 q 616 684 651 636 q 564 788 582 732 q 551 907 547 845 q 587 1021 556 970 l 537 949 q 490 798 490 882 q 526 644 490 715 q 539 621 532 632 q 553 598 547 609 l 553 598 m 894 709 q 899 707 897 708 q 902 707 901 707 q 904 706 903 707 q 906 705 905 705 q 911 703 909 704 q 917 701 914 703 q 1099 736 1051 675 q 1157 812 1147 798 q 1074 754 1126 766 q 956 757 1021 742 q 945 760 951 758 q 935 764 940 762 q 922 769 929 766 q 910 774 916 772 q 887 787 898 780 q 865 802 876 793 q 779 922 807 846 q 789 1066 751 997 l 762 1028 q 732 939 735 987 q 747 846 728 891 q 807 763 768 799 q 894 709 846 727 l 894 709 z "},"":{"ha":1389,"x_min":260,"x_max":1168,"o":"m 720 974 q 682 958 707 970 q 633 933 656 947 q 544 897 581 903 q 487 905 507 890 q 472 920 473 916 q 481 932 471 925 q 503 939 487 936 q 534 940 519 941 q 562 941 551 939 q 572 947 572 943 q 522 960 574 960 q 457 947 471 960 q 452 893 429 918 q 536 863 476 868 q 595 865 571 860 q 673 895 620 871 q 792 936 742 926 q 868 933 842 945 q 889 908 887 922 q 873 887 891 894 q 819 882 850 879 q 777 895 787 884 q 752 904 768 907 q 736 884 736 901 q 819 850 736 853 q 932 878 902 848 q 900 961 979 925 q 720 974 821 997 l 720 974 m 262 906 q 252 832 199 872 q 441 769 304 792 q 633 753 528 755 q 838 758 739 750 q 1018 782 937 765 q 1135 823 1099 799 q 1160 864 1158 838 q 1141 901 1161 890 q 1124 906 1127 907 q 1120 892 1120 905 q 1090 854 1120 871 q 1007 825 1061 837 q 877 806 954 812 q 705 799 800 799 q 520 806 601 799 q 386 827 439 814 q 307 861 332 841 q 289 905 282 880 q 291 920 294 920 q 262 906 288 920 l 262 906 m 262 751 q 271 718 266 739 q 282 678 277 696 q 290 634 293 644 q 260 597 286 624 q 206 461 201 536 q 278 336 212 387 q 349 317 301 320 q 412 328 397 315 q 416 338 418 335 q 401 340 414 340 q 344 372 381 340 q 290 433 307 403 q 277 504 275 464 q 296 566 278 544 l 315 590 l 326 564 q 350 520 330 553 q 395 452 370 487 q 441 378 419 416 q 471 320 464 339 q 495 277 481 290 q 547 243 509 263 q 612 218 585 225 q 699 209 640 212 q 888 235 812 203 q 975 320 963 266 q 999 370 978 334 q 1046 445 1020 407 q 1121 572 1095 518 q 1168 696 1147 625 q 1181 766 1187 758 q 1130 753 1176 774 q 1051 726 1096 738 q 949 709 1006 715 q 825 700 892 703 q 675 700 757 697 q 427 720 509 705 q 263 777 345 735 q 260 771 260 779 q 262 751 259 764 l 262 751 z "},"":{"ha":1389,"x_min":281,"x_max":1108,"o":"m 694 873 l 281 1109 l 281 81 l 694 317 l 1108 81 l 1108 1109 l 694 873 l 694 873 m 488 595 l 694 713 l 901 595 l 694 477 l 488 595 l 488 595 m 418 883 l 566 799 l 418 715 l 418 883 l 418 883 m 418 475 l 553 397 l 418 320 l 418 475 l 418 475 m 971 320 l 836 397 l 971 475 l 971 320 l 971 320 m 823 799 l 971 883 l 971 715 l 823 799 l 823 799 z "},"":{"ha":1389,"x_min":203,"x_max":1185,"o":"m 692 810 l 602 598 l 795 598 l 693 811 l 692 810 l 692 810 m 693 1115 l 203 943 l 281 302 l 693 75 l 1108 305 l 1185 947 l 693 1115 l 693 1115 m 901 354 l 834 507 l 563 507 l 502 355 l 389 354 l 692 1027 l 1005 354 l 901 354 l 901 354 z "},"":{"ha":1389,"x_min":203,"x_max":1185,"o":"m 1077 1027 l 312 1027 q 235 996 267 1027 q 203 920 203 964 l 203 595 q 237 427 203 506 q 331 290 271 349 q 470 197 391 231 q 640 163 549 163 l 749 163 q 919 197 840 163 q 1058 290 998 231 q 1152 427 1118 349 q 1185 595 1185 506 l 1185 920 q 1154 996 1185 964 q 1077 1027 1122 1027 l 1077 1027 m 694 326 q 567 351 627 326 q 463 420 507 376 q 392 523 418 464 q 366 650 366 582 l 366 811 l 530 811 l 530 650 q 578 534 530 582 q 694 487 627 487 q 810 534 762 487 q 859 650 859 582 l 1023 650 q 997 523 1023 582 q 926 420 971 464 q 822 351 882 376 q 694 326 762 326 l 694 326 m 1020 703 l 861 743 l 899 901 l 1061 860 l 1020 703 l 1020 703 z "},"":{"ha":1389,"x_min":203,"x_max":1172,"o":"m 815 1034 q 850 1010 815 1034 q 932 943 886 986 q 1023 837 978 899 q 1090 697 1069 774 q 1115 490 1128 557 q 1101 422 1101 422 q 1120 398 1101 422 q 1162 320 1139 374 q 1184 198 1196 239 q 1172 157 1172 157 q 1157 197 1172 157 q 1059 248 1142 237 q 930 212 985 259 q 734 167 876 164 q 632 177 693 168 q 500 217 571 186 q 352 309 429 248 q 203 473 275 369 q 366 387 274 433 q 571 350 457 342 q 720 386 685 359 q 754 412 754 412 q 706 453 754 412 q 589 562 658 494 q 442 718 519 629 q 305 901 365 806 q 420 808 350 861 q 557 707 491 755 q 669 626 623 659 q 713 595 716 593 q 629 680 680 621 q 532 800 579 739 q 451 906 484 860 q 418 952 418 952 q 488 893 418 952 q 644 763 557 834 q 807 633 731 692 q 897 575 883 574 q 914 623 902 587 q 926 717 926 659 q 903 854 925 774 q 815 1034 880 935 l 815 1034 z "},"":{"ha":1389,"x_min":369,"x_max":998,"o":"m 909 905 q 840 884 872 903 q 784 837 807 865 q 738 770 757 806 q 707 696 719 734 q 661 736 684 715 q 602 768 639 757 q 545 772 574 776 q 487 747 515 768 q 465 723 475 736 q 452 696 456 709 q 456 630 441 659 q 481 589 471 601 l 511 556 q 524 540 517 552 q 525 510 530 528 q 499 481 519 491 q 454 477 479 471 q 432 488 444 480 q 425 507 420 496 q 429 515 426 511 q 433 524 431 519 q 436 529 435 526 q 437 533 437 532 q 435 564 441 548 q 415 583 430 579 q 387 583 400 587 q 369 560 374 578 q 376 508 362 540 q 445 460 391 476 q 554 468 507 441 q 609 538 601 495 q 602 590 613 567 q 567 639 590 613 l 543 667 q 529 696 532 678 q 537 727 526 713 q 563 745 548 741 q 601 743 578 750 q 654 713 635 734 q 700 674 674 693 q 682 607 689 640 q 669 543 674 574 l 663 513 q 627 363 646 418 q 574 278 609 308 q 556 267 567 273 q 529 260 545 260 q 518 263 521 259 q 515 270 515 267 q 519 279 515 275 q 525 285 522 282 q 536 293 530 288 q 541 312 541 298 q 528 340 540 328 q 496 353 515 353 q 465 338 481 351 q 448 300 448 324 q 471 256 449 274 q 530 240 494 239 q 589 255 549 241 q 671 320 629 269 q 741 441 722 378 q 772 553 761 505 l 787 640 q 801 640 793 640 q 815 639 808 639 q 909 663 878 637 q 941 711 940 688 q 932 737 941 726 q 910 749 924 749 q 890 742 901 749 q 878 722 880 735 q 886 696 875 708 q 880 673 898 685 q 846 661 868 665 q 791 661 823 656 l 799 704 q 831 824 811 764 q 907 886 852 884 q 922 884 911 886 q 933 873 933 883 q 932 867 933 869 q 928 857 930 865 q 922 846 924 852 q 920 836 920 841 q 932 811 921 821 q 959 802 943 802 q 990 820 982 803 q 998 848 998 837 q 972 890 997 875 q 909 905 947 906 l 909 905 z "},"":{"ha":1389,"x_min":203,"x_max":1185,"o":"m 1185 595 q 1147 404 1185 494 q 1042 248 1108 315 q 886 143 975 182 q 694 104 796 104 q 503 143 593 104 q 347 248 414 182 q 242 404 281 315 q 203 595 203 494 q 242 787 203 697 q 347 943 281 876 q 503 1048 414 1009 q 694 1086 593 1086 q 886 1048 796 1086 q 1042 943 975 1009 q 1147 787 1108 876 q 1185 595 1185 697 l 1185 595 m 909 905 q 840 884 872 903 q 784 837 807 865 q 738 770 757 806 q 707 696 719 734 q 661 736 684 715 q 602 768 639 757 q 545 772 574 776 q 487 747 515 768 q 465 723 475 736 q 452 696 456 709 q 456 630 441 659 q 481 589 471 601 l 511 556 q 524 540 517 552 q 525 510 530 528 q 499 481 519 491 q 454 477 479 471 q 432 488 444 480 q 425 507 420 496 q 429 515 426 511 q 433 524 431 519 q 436 529 435 526 q 437 533 437 532 q 435 564 441 548 q 415 583 430 579 q 387 583 400 587 q 369 560 374 578 q 376 508 362 540 q 445 460 391 476 q 554 468 507 441 q 609 538 601 495 q 602 590 613 567 q 567 639 590 613 l 543 667 q 529 696 532 678 q 537 727 526 713 q 563 745 548 741 q 601 743 578 750 q 654 713 635 734 q 700 674 674 693 q 682 607 689 640 q 669 543 674 574 l 663 513 q 627 363 646 418 q 574 278 609 308 q 556 267 567 273 q 529 260 545 260 q 518 263 521 259 q 515 270 515 267 q 519 279 515 275 q 525 285 522 282 q 536 293 530 288 q 541 312 541 298 q 528 340 540 328 q 496 353 515 353 q 465 338 481 351 q 448 300 448 324 q 471 256 449 274 q 530 240 494 239 q 589 255 549 241 q 671 320 629 269 q 741 441 722 378 q 772 553 761 505 l 787 640 q 801 640 793 640 q 815 639 808 639 q 909 663 878 637 q 941 711 940 688 q 932 737 941 726 q 910 749 924 749 q 890 742 901 749 q 878 722 880 735 q 886 696 875 708 q 880 673 898 685 q 846 661 868 665 q 791 661 823 656 l 799 704 q 831 824 811 764 q 907 886 852 884 q 922 884 911 886 q 933 873 933 883 q 932 867 933 869 q 928 857 930 865 q 922 846 924 852 q 920 836 920 841 q 932 811 921 821 q 959 802 943 802 q 990 820 982 803 q 998 848 998 837 q 972 890 997 875 q 909 905 947 906 l 909 905 z "},"":{"ha":1389,"x_min":152,"x_max":1237,"o":"m 389 852 l 389 537 q 396 500 389 509 q 431 483 403 491 l 422 430 q 393 435 407 433 q 365 444 378 438 q 334 473 340 453 q 327 517 327 494 q 327 651 327 585 q 327 785 327 718 l 327 803 q 304 801 315 802 q 283 799 293 800 q 265 787 271 796 q 259 764 259 779 q 258 725 258 745 q 258 686 258 705 q 257 668 258 677 q 255 650 256 659 q 245 620 254 633 q 224 597 237 606 q 224 595 224 595 q 224 594 224 594 q 252 558 245 579 q 258 514 258 537 q 258 476 258 495 q 258 439 258 457 q 267 401 258 411 q 305 389 277 391 l 312 388 l 312 339 q 273 342 292 339 q 236 353 254 345 q 209 381 217 363 q 201 419 201 399 q 199 460 199 439 q 199 503 199 481 q 199 511 199 507 q 199 518 199 515 q 187 555 198 544 q 152 571 176 567 q 152 574 152 572 q 152 576 152 575 q 152 596 152 586 q 152 617 152 606 l 153 618 q 189 637 179 625 q 199 677 199 650 q 199 710 199 693 q 199 745 199 727 q 200 767 199 755 q 203 791 201 779 q 225 830 208 815 q 273 849 243 845 q 290 851 281 850 q 307 852 298 852 q 347 852 327 852 q 389 852 368 852 l 389 852 l 389 852 m 499 556 q 512 512 495 532 q 555 487 529 492 q 605 486 581 483 q 654 496 629 490 q 659 474 656 486 q 662 452 661 463 q 660 448 662 450 q 655 444 658 445 q 582 431 618 433 q 509 442 545 429 q 469 467 486 452 q 445 506 453 483 q 431 578 430 541 q 448 650 431 614 q 522 715 471 701 q 617 708 574 728 q 659 673 644 696 q 677 624 673 651 q 680 591 680 608 q 681 556 681 574 q 589 556 635 556 q 499 556 544 556 l 499 556 l 499 556 m 617 604 q 602 651 617 633 q 559 669 586 669 q 516 648 534 667 q 499 604 498 629 l 617 604 l 617 604 m 1078 339 l 1078 388 l 1092 389 q 1122 400 1112 391 q 1131 430 1131 410 q 1131 469 1131 449 q 1131 507 1131 488 q 1133 526 1133 517 q 1134 544 1133 534 q 1145 573 1137 560 q 1168 595 1153 586 q 1137 636 1142 612 q 1131 686 1133 661 q 1131 722 1131 704 q 1131 757 1131 739 q 1121 791 1131 781 q 1086 802 1111 800 l 1078 803 l 1078 852 q 1119 849 1099 852 q 1158 834 1139 846 q 1181 807 1175 823 q 1190 772 1188 791 q 1190 726 1190 749 q 1191 680 1190 703 q 1191 666 1191 673 q 1194 654 1191 659 q 1208 629 1198 637 q 1237 620 1219 620 l 1237 571 q 1209 563 1221 571 q 1194 537 1198 555 q 1192 525 1192 532 q 1191 511 1191 518 q 1190 466 1190 488 q 1190 420 1190 444 q 1169 366 1188 385 q 1115 342 1150 346 q 1097 340 1105 340 q 1078 339 1088 339 l 1078 339 l 1078 339 m 1089 708 l 1078 658 q 1038 668 1058 665 q 998 669 1019 671 q 977 661 985 666 q 968 646 970 655 q 972 627 967 636 q 989 613 977 618 q 1008 604 998 608 q 1029 595 1019 601 q 1042 590 1036 593 q 1054 585 1048 587 q 1095 551 1084 571 q 1101 498 1105 530 q 1084 458 1100 475 q 1038 435 1067 442 q 969 431 1004 429 q 901 446 935 433 l 910 496 q 939 489 925 492 q 968 483 954 486 q 993 482 981 481 q 1017 484 1005 483 q 1031 490 1025 486 q 1039 503 1038 494 q 1038 520 1040 513 q 1028 532 1035 528 q 1008 543 1019 538 q 987 552 998 548 q 963 563 975 557 q 939 575 951 568 q 905 641 905 594 q 945 705 906 688 q 968 714 956 711 q 994 719 981 718 q 1041 719 1017 723 q 1089 708 1065 715 l 1089 708 m 882 709 l 869 658 q 831 668 850 665 q 791 669 811 671 q 770 661 777 666 q 761 646 762 655 q 764 627 758 635 q 781 613 769 618 q 803 604 792 608 q 825 594 814 600 q 836 590 830 593 q 846 585 841 587 q 887 549 876 570 q 894 494 898 528 q 871 456 890 472 q 823 434 853 439 q 764 431 793 430 q 705 441 734 433 q 696 447 699 444 q 694 458 693 450 q 699 477 697 468 q 703 496 701 487 q 732 489 718 492 q 761 483 746 486 q 785 482 773 481 q 810 484 798 483 q 824 490 818 486 q 831 505 830 495 q 830 520 833 513 q 821 532 827 528 q 797 544 808 538 q 774 555 785 549 q 753 565 764 560 q 731 575 742 570 q 698 642 697 595 q 738 707 699 688 q 773 718 755 715 q 810 720 791 722 q 845 715 827 719 q 882 709 863 712 l 882 709 l 882 709 z "},"":{"ha":1389,"x_min":152,"x_max":1237,"o":"m 286 696 q 303 694 296 696 q 316 690 311 693 q 325 685 321 688 q 328 678 328 682 q 327 668 328 673 q 323 656 326 663 q 318 646 320 651 q 315 637 316 642 q 312 636 313 636 q 309 637 311 636 q 309 639 309 637 q 308 642 308 640 q 309 648 309 644 q 309 658 309 652 q 308 669 309 665 q 304 678 307 674 q 296 684 300 682 q 286 685 292 685 q 273 683 279 685 q 263 677 267 681 q 256 666 259 673 q 254 652 254 659 q 256 639 254 646 q 262 627 258 632 q 269 614 264 620 q 278 602 273 608 q 286 589 282 595 q 294 575 290 582 q 299 561 297 568 q 301 544 301 553 q 295 517 301 529 q 277 496 289 505 q 249 484 264 488 q 213 480 233 480 q 188 482 199 480 q 168 490 176 484 q 156 499 160 494 q 152 510 152 505 q 153 513 152 511 q 155 518 153 515 q 157 525 156 522 q 161 532 159 528 q 165 538 163 534 q 170 545 168 541 q 175 551 172 548 q 180 556 178 553 q 183 556 182 556 q 186 555 184 556 q 187 552 187 553 q 186 549 187 551 q 182 545 183 548 q 179 540 180 543 q 177 533 178 537 q 176 525 176 529 q 178 511 176 517 q 186 499 180 505 q 198 492 191 495 q 212 490 205 490 q 232 493 224 490 q 247 502 240 496 q 256 516 252 509 q 259 532 259 524 q 257 547 259 540 q 251 562 255 555 q 244 575 248 568 q 236 589 240 582 q 228 602 232 595 q 220 616 224 609 q 215 629 217 623 q 213 644 213 636 q 218 664 213 655 q 232 681 222 673 q 255 692 241 688 q 286 696 269 696 l 286 696 m 517 692 q 519 689 518 690 q 519 686 519 688 q 517 684 519 685 q 511 682 515 682 q 498 682 506 682 q 483 681 491 682 q 466 680 475 681 q 448 678 457 680 q 433 638 439 658 q 420 598 426 618 q 412 563 415 579 q 410 534 410 547 q 415 513 410 521 q 431 506 420 506 q 454 515 442 506 q 480 544 467 525 q 483 545 481 545 q 484 544 484 545 q 486 541 486 543 q 486 538 487 540 q 470 516 479 526 q 450 498 461 506 q 428 484 438 488 q 407 480 418 480 q 388 483 396 480 q 374 491 380 486 q 366 503 369 495 q 363 519 363 510 q 367 549 363 532 q 376 587 370 566 q 389 631 381 609 q 406 674 396 652 q 385 671 395 673 q 365 667 374 670 q 363 669 363 669 q 363 671 362 670 q 366 675 365 674 q 370 680 368 677 q 376 683 373 681 q 384 686 380 685 q 391 688 388 688 q 399 689 395 689 q 401 689 400 689 q 406 689 403 689 q 408 689 407 689 q 412 689 410 689 q 423 713 418 701 q 434 736 429 726 q 446 759 441 749 q 458 779 452 769 q 465 784 461 781 q 472 788 468 787 q 481 793 476 791 q 490 796 486 795 q 497 798 494 798 q 503 799 500 799 q 507 798 506 799 q 507 796 509 798 q 494 773 500 785 q 480 747 487 761 q 466 720 472 734 q 453 690 460 705 q 469 691 461 690 q 486 692 477 692 q 501 692 494 692 q 517 692 509 692 l 517 692 m 1027 1112 q 1039 1111 1034 1112 q 1047 1107 1044 1109 q 1054 1099 1051 1103 q 1059 1089 1057 1095 q 1061 1078 1061 1084 q 1059 1066 1061 1073 q 1056 1053 1058 1059 q 1050 1039 1054 1046 q 1048 1038 1048 1038 q 1046 1039 1047 1038 q 1044 1040 1044 1039 q 1042 1043 1043 1042 q 1041 1053 1043 1048 q 1035 1059 1039 1057 q 1024 1065 1031 1063 q 1008 1066 1017 1066 q 973 1060 990 1066 q 939 1040 956 1054 q 904 1011 921 1028 q 871 972 887 994 q 839 928 854 952 q 808 876 823 903 q 783 821 795 849 q 760 764 770 792 q 741 705 749 734 q 726 648 732 677 q 717 593 720 618 q 713 544 713 567 q 718 524 713 530 q 728 518 722 518 q 739 520 734 518 q 747 526 743 522 q 758 537 753 530 q 770 552 764 544 q 773 552 772 552 q 774 552 774 552 q 777 549 776 551 q 776 545 777 548 q 758 523 768 533 q 736 503 747 513 q 715 491 726 495 q 696 487 704 487 q 682 489 688 487 q 673 496 677 491 q 669 507 670 500 q 667 519 667 513 q 671 564 667 540 q 684 618 675 589 q 703 680 692 648 q 728 745 715 711 q 760 810 743 777 q 793 876 776 844 q 831 939 812 909 q 871 994 850 968 q 911 1042 891 1020 q 951 1080 930 1063 q 990 1104 971 1096 q 1027 1112 1009 1112 l 1027 1112 m 279 77 q 268 79 273 77 q 259 84 263 81 q 252 92 255 87 q 248 100 250 96 q 246 112 247 106 q 247 125 245 118 q 250 138 248 132 q 256 152 252 145 q 258 153 258 153 q 260 152 259 153 q 263 150 262 151 q 264 148 264 149 q 265 138 263 142 q 271 132 267 134 q 282 126 275 127 q 298 125 289 125 q 334 131 316 125 q 369 149 351 137 q 402 180 385 163 q 435 217 419 197 q 468 263 453 239 q 498 315 483 288 q 524 370 511 342 q 547 427 537 399 q 566 485 557 456 q 581 543 574 514 q 589 597 586 571 q 593 647 593 624 q 589 666 593 659 q 578 673 586 673 q 568 671 574 673 q 559 665 563 669 q 548 653 553 659 q 536 639 543 647 q 534 637 534 637 q 532 639 533 637 q 530 642 530 640 q 530 644 530 643 q 549 668 538 658 q 570 686 559 678 q 592 699 582 694 q 612 704 602 704 q 625 701 620 704 q 633 694 631 699 q 638 684 636 689 q 640 670 640 678 q 636 626 640 651 q 623 572 632 601 q 604 511 614 543 q 578 446 593 479 q 548 380 564 414 q 513 315 532 347 q 475 252 494 282 q 435 197 456 222 q 395 149 415 170 q 355 111 376 127 q 316 86 335 95 q 279 77 297 77 l 279 77 m 848 480 q 821 490 830 480 q 812 518 812 499 q 813 533 812 525 q 817 549 814 541 q 820 568 818 559 q 825 586 822 576 q 832 605 829 595 q 840 625 836 614 q 849 644 844 635 q 860 662 854 652 q 851 656 856 659 q 842 650 846 652 q 834 644 838 647 q 827 636 830 640 q 825 636 826 636 q 822 637 823 636 q 822 640 822 639 q 822 643 822 642 q 840 659 829 651 q 863 674 850 666 q 889 688 876 682 q 914 700 902 694 q 918 699 916 700 q 920 697 920 699 q 921 696 921 697 q 921 692 921 694 q 897 655 907 674 q 878 616 886 636 q 865 575 869 595 q 861 536 861 555 q 865 517 861 524 q 876 511 868 511 q 888 515 882 511 q 903 526 895 518 q 920 543 911 533 q 937 564 928 552 q 954 590 945 576 q 972 618 963 604 q 990 649 982 633 q 1006 681 998 665 q 1010 685 1006 682 q 1020 690 1015 688 q 1033 694 1027 693 q 1046 696 1039 696 q 1053 694 1051 696 q 1053 689 1055 692 q 1042 668 1047 678 q 1032 648 1036 658 q 1024 629 1028 639 q 1017 610 1020 620 q 1013 591 1015 601 q 1009 572 1010 582 q 1007 553 1008 563 q 1006 532 1006 543 q 1010 511 1006 518 q 1020 505 1013 505 q 1035 511 1027 505 q 1053 529 1043 517 q 1055 530 1054 530 q 1057 529 1055 530 q 1059 528 1058 529 q 1059 525 1059 526 q 1044 505 1051 514 q 1027 491 1036 496 q 1010 483 1019 486 q 996 480 1002 480 q 969 490 978 480 q 960 521 960 500 q 964 564 960 543 q 975 606 968 585 q 943 555 959 578 q 907 514 926 532 q 875 488 890 496 q 848 480 860 480 l 848 480 m 1196 696 q 1213 694 1206 696 q 1226 690 1221 693 q 1234 685 1232 688 q 1237 678 1237 682 q 1236 668 1237 673 q 1233 656 1236 663 q 1228 646 1230 651 q 1223 637 1226 642 q 1222 636 1223 636 q 1219 637 1221 636 q 1217 639 1218 637 q 1217 642 1217 640 q 1219 648 1218 644 q 1219 658 1219 652 q 1218 669 1219 665 q 1214 678 1217 674 q 1206 684 1210 682 q 1196 685 1202 685 q 1183 683 1190 685 q 1173 677 1177 681 q 1166 666 1168 673 q 1164 652 1164 659 q 1166 639 1164 646 q 1171 627 1168 632 q 1179 614 1175 620 q 1187 602 1183 608 q 1196 589 1192 595 q 1203 575 1200 582 q 1209 561 1207 568 q 1211 544 1211 553 q 1205 517 1211 529 q 1187 496 1199 505 q 1158 484 1175 488 q 1123 480 1142 480 q 1097 482 1108 480 q 1078 490 1086 484 q 1065 499 1070 494 q 1061 510 1061 505 q 1061 513 1061 511 q 1063 518 1062 515 q 1067 525 1065 522 q 1070 532 1069 528 q 1075 538 1073 534 q 1080 545 1077 541 q 1085 551 1082 548 q 1090 556 1088 553 q 1093 556 1092 556 q 1096 555 1095 556 q 1097 552 1096 553 q 1096 549 1097 551 q 1091 545 1093 548 q 1088 540 1089 543 q 1086 533 1086 537 q 1085 525 1085 529 q 1088 511 1085 517 q 1096 499 1090 505 q 1107 492 1101 495 q 1122 490 1114 490 q 1141 493 1133 490 q 1156 502 1150 496 q 1165 516 1162 509 q 1168 532 1168 524 q 1166 547 1168 540 q 1161 562 1165 555 q 1154 575 1157 568 q 1146 589 1150 582 q 1137 602 1141 595 q 1130 616 1134 609 q 1124 629 1126 623 q 1123 644 1123 636 q 1128 664 1123 655 q 1141 681 1133 673 q 1164 692 1150 688 q 1196 696 1177 696 l 1196 696 z "},"":{"ha":1389,"x_min":153,"x_max":1236,"o":"m 650 279 l 650 1001 q 648 1010 650 1006 q 643 1017 646 1015 q 636 1023 640 1021 q 627 1024 632 1024 l 288 1024 q 279 1023 283 1024 q 271 1017 275 1021 q 267 1010 269 1015 q 266 1001 266 1006 l 266 279 q 267 270 266 274 q 271 263 269 266 q 279 258 275 260 q 288 256 283 256 l 627 256 q 636 258 632 256 q 643 263 640 260 q 648 270 646 266 q 650 279 650 274 l 650 279 m 1123 551 l 1123 1001 q 1122 1010 1123 1006 q 1118 1017 1120 1015 q 1109 1023 1114 1021 q 1101 1024 1105 1024 l 762 1024 q 753 1023 757 1024 q 746 1017 749 1021 q 741 1010 743 1015 q 739 1001 739 1006 l 739 551 q 741 541 739 545 q 746 534 743 537 q 753 529 749 530 q 762 528 757 528 l 1101 528 q 1109 529 1105 528 q 1118 534 1114 530 q 1122 541 1120 537 q 1123 551 1123 545 l 1123 551 m 1236 1092 l 1236 99 q 1232 81 1236 90 q 1223 66 1229 73 q 1208 56 1217 60 q 1191 53 1200 53 l 198 53 q 180 56 189 53 q 165 66 172 60 q 157 81 160 73 q 153 99 153 90 l 153 1092 q 157 1109 153 1101 q 165 1123 160 1116 q 180 1133 172 1130 q 198 1137 189 1137 l 1191 1137 q 1208 1133 1200 1137 q 1223 1123 1217 1130 q 1232 1109 1229 1116 q 1236 1092 1236 1101 l 1236 1092 z "},"":{"ha":1389,"x_min":156,"x_max":1237,"o":"m 1210 1092 q 1091 1037 1153 1061 q 965 998 1029 1013 q 834 973 901 982 q 700 964 768 964 q 564 973 631 964 q 433 998 498 982 q 307 1037 369 1013 q 189 1092 245 1061 q 183 1095 186 1093 q 178 1096 180 1096 q 165 1093 171 1096 q 156 1085 160 1090 q 151 1067 151 1078 q 161 1050 152 1057 q 281 975 218 1008 q 411 918 343 941 q 553 883 480 895 q 700 871 625 871 l 700 871 q 846 883 773 871 q 987 918 918 895 q 1118 975 1055 941 q 1237 1050 1180 1008 l 1210 1092 m 1047 850 q 981 828 1015 838 q 918 811 948 818 q 907 806 911 810 q 901 796 902 802 q 826 675 878 735 q 715 555 774 616 q 709 551 712 553 q 700 548 705 548 q 690 550 694 548 q 685 555 686 552 q 572 675 624 616 q 499 795 521 734 q 492 806 496 802 q 480 811 487 810 q 417 828 450 818 q 351 850 384 838 q 347 852 349 852 q 343 852 346 852 q 337 851 340 852 q 331 848 334 850 q 325 840 327 845 q 323 830 323 834 q 349 728 328 779 q 406 627 369 678 q 482 531 439 576 q 567 442 525 486 q 711 281 647 361 q 781 114 776 202 q 789 100 783 106 q 802 95 795 95 l 926 95 q 935 97 930 95 q 941 102 939 99 q 945 109 944 104 q 947 117 947 113 q 922 236 944 176 q 856 358 899 296 q 837 385 846 372 q 818 410 827 397 q 814 420 814 415 q 819 429 815 426 q 825 435 822 433 q 831 442 827 438 q 916 531 873 486 q 993 627 959 576 q 1050 728 1029 678 q 1076 829 1070 779 l 1047 850 m 566 350 q 561 355 564 353 q 552 357 557 357 q 541 353 545 357 q 534 346 536 349 q 475 231 495 288 q 452 117 454 174 q 453 109 452 113 q 457 102 454 104 q 464 97 460 99 q 472 95 468 95 l 597 95 q 610 100 604 95 q 617 114 616 106 q 627 169 618 141 q 651 225 636 197 q 654 243 656 235 q 648 256 652 252 q 614 298 633 277 q 566 350 594 320 l 566 350 m 700 787 q 745 788 728 787 q 769 789 762 789 q 782 784 776 789 q 788 770 788 779 q 787 766 788 768 q 787 762 787 764 q 764 721 783 753 q 713 656 746 689 q 706 652 709 654 q 700 651 703 651 l 700 651 q 692 652 696 651 q 685 656 689 654 q 634 721 652 689 q 613 762 616 753 q 611 766 612 764 q 610 770 610 768 q 616 784 610 779 q 629 789 623 789 q 653 788 636 789 q 699 787 670 787 l 700 787 l 700 787 z "},"":{"ha":1389,"x_min":259,"x_max":1130,"o":"m 446 1101 q 393 1079 415 1101 q 372 1025 372 1057 q 393 972 372 994 q 446 951 415 951 q 500 972 477 951 q 522 1025 522 994 q 500 1079 522 1057 q 446 1101 477 1101 l 446 1101 m 943 1101 q 889 1079 911 1101 q 867 1025 867 1057 q 889 972 867 994 q 943 951 911 951 q 996 972 974 951 q 1017 1025 1017 994 q 996 1079 1017 1057 q 943 1101 974 1101 l 943 1101 m 694 1171 q 641 1148 663 1171 q 618 1095 618 1126 q 641 1042 618 1063 q 694 1020 663 1020 q 748 1042 726 1020 q 770 1095 770 1063 q 748 1148 770 1126 q 694 1171 726 1171 l 694 1171 m 1097 894 q 1021 869 1059 880 q 948 849 983 857 q 935 842 940 848 q 926 831 929 837 q 841 691 901 760 q 712 552 781 623 q 705 547 709 549 q 694 544 701 544 q 684 547 688 544 q 677 552 680 549 q 548 691 608 623 q 463 830 488 760 q 454 842 460 837 q 442 849 449 846 q 368 869 406 857 q 292 895 330 880 q 287 896 289 895 q 283 897 285 897 q 275 895 279 897 q 269 891 271 894 q 261 882 263 887 q 259 871 259 876 q 289 753 266 811 q 354 635 312 694 q 443 525 393 578 q 543 422 492 472 q 631 328 587 374 q 708 236 674 282 q 764 142 742 190 q 789 42 787 94 q 798 26 791 33 q 814 20 804 20 l 958 20 q 966 22 962 20 q 974 27 971 24 q 979 36 978 31 q 981 45 981 41 q 951 183 978 114 q 876 324 925 252 q 854 355 865 340 q 831 384 844 369 q 828 397 827 391 q 833 407 829 403 q 840 414 837 411 q 848 422 844 418 q 946 525 897 472 q 1035 635 996 578 q 1100 753 1077 694 q 1130 869 1123 811 l 1097 894 m 540 315 q 534 320 537 317 q 524 323 530 323 q 511 318 515 323 q 505 311 506 313 q 435 176 458 243 q 408 45 411 110 q 410 36 408 41 q 415 27 411 31 q 422 22 418 24 q 431 20 427 20 l 575 20 q 591 26 585 20 q 600 42 598 33 q 611 105 601 73 q 639 171 621 137 q 643 192 646 182 q 636 206 640 202 q 595 255 618 229 q 540 315 572 281 l 540 315 m 694 821 q 748 822 728 821 q 774 823 768 823 q 790 817 784 823 q 796 802 796 811 q 796 797 796 799 q 795 793 796 795 q 770 744 791 781 q 711 670 749 707 q 703 665 707 666 q 694 663 699 663 l 694 663 q 687 665 692 663 q 678 670 682 666 q 619 744 640 707 q 594 793 598 781 q 593 797 593 795 q 593 802 593 799 q 600 817 593 811 q 614 823 606 823 q 641 822 621 823 q 694 821 661 821 l 694 821 l 694 821 z "},"":{"ha":1389,"x_min":317,"x_max":1069,"o":"m 1000 1082 q 920 1088 978 1095 q 788 1057 863 1081 q 664 956 723 1012 q 560 830 605 901 q 488 673 515 760 q 456 480 460 586 q 445 478 454 475 q 433 483 435 481 q 387 627 397 551 q 407 806 377 703 q 401 823 412 815 q 385 829 389 831 q 357 797 380 822 q 317 741 335 772 q 264 578 273 663 q 278 414 255 494 q 353 266 301 334 q 484 156 406 198 q 646 104 562 113 q 810 117 731 95 q 958 192 890 140 q 1069 321 1025 244 q 1125 535 1119 411 q 1114 775 1131 659 q 1063 979 1096 891 q 1000 1082 1029 1066 l 1000 1082 z "},"":{"ha":1389,"x_min":335,"x_max":1054,"o":"m 694 178 l 519 263 l 519 263 l 519 263 l 335 172 l 694 -3 l 1054 172 l 868 264 l 694 178 m 335 172 l 335 353 l 513 439 l 697 350 l 335 172 m 892 916 l 892 631 l 693 533 l 876 442 l 1054 529 l 1054 1017 l 892 916 m 1054 172 l 1054 172 l 1054 353 l 498 631 l 498 916 l 335 1017 l 335 529 l 1054 172 m 496 917 l 496 917 l 694 1013 l 891 917 l 1054 1017 l 694 1194 l 335 1017 l 496 917 l 496 917 z "},"":{"ha":1389,"x_min":220,"x_max":1169,"o":"m 1134 480 q 1160 535 1152 506 q 1169 595 1169 564 q 1153 675 1169 637 q 1107 743 1137 713 l 842 1008 q 776 1053 814 1036 q 694 1069 738 1069 q 613 1053 651 1069 q 547 1008 575 1036 l 547 1008 l 282 743 q 236 675 252 713 q 220 595 220 637 q 236 515 220 553 q 282 448 252 477 l 521 209 q 535 193 528 201 q 551 179 543 186 q 617 136 581 151 q 694 121 654 121 q 774 137 736 121 q 842 182 812 153 l 1100 441 q 1101 441 1100 441 q 1101 442 1101 442 l 1107 448 q 1122 463 1115 454 q 1134 480 1128 471 q 1134 480 1134 480 q 1134 480 1134 480 l 1134 480 l 1134 480 m 1092 595 q 1086 557 1092 575 q 1070 524 1080 538 q 1057 507 1063 514 q 1043 494 1050 499 l 1043 492 q 977 452 1012 463 q 911 441 943 441 q 880 443 895 441 q 853 448 865 445 q 716 523 784 465 q 613 669 648 581 q 652 656 632 661 q 694 652 673 652 q 835 706 776 652 q 902 838 894 760 l 1053 689 q 1082 646 1072 670 q 1092 595 1092 621 l 1092 595 m 694 991 q 787 954 749 991 q 826 860 826 916 q 787 768 826 806 q 694 730 749 730 q 602 768 640 730 q 563 860 563 806 q 602 954 563 916 q 694 991 640 991 l 694 991 m 336 502 q 307 545 317 521 q 297 595 297 568 q 307 646 297 621 q 336 688 317 670 l 438 791 q 410 652 418 723 q 407 513 401 582 q 412 465 408 488 q 419 419 415 441 l 336 502 l 336 502 m 510 762 q 547 633 518 697 q 620 517 576 570 q 718 427 663 465 q 834 373 773 389 q 874 366 854 368 q 913 363 894 363 q 913 363 913 363 q 914 363 913 363 l 788 237 q 745 208 769 218 q 694 198 720 198 q 659 203 675 198 q 627 217 642 209 l 627 218 q 614 226 620 221 q 604 236 609 231 q 602 236 602 236 q 601 237 602 236 l 576 263 q 513 374 537 308 q 483 518 488 439 q 486 641 479 579 q 510 762 494 703 l 510 762 z "},"":{"ha":1389,"x_min":216,"x_max":1173,"o":"m 1173 201 q 1148 142 1173 167 q 1089 117 1123 117 l 300 117 q 241 142 266 117 q 216 201 216 167 l 216 989 q 241 1049 216 1024 q 300 1074 266 1074 l 1089 1074 q 1148 1049 1123 1074 q 1173 989 1173 1024 l 1173 201 l 1173 201 m 1173 773 l 1086 831 q 1088 843 1088 837 q 1089 854 1089 849 q 1059 926 1089 897 q 987 956 1029 956 q 916 926 945 956 q 886 854 886 897 q 891 823 886 838 q 905 795 897 808 l 718 510 q 707 512 712 511 q 694 513 701 513 q 659 506 675 513 q 629 488 642 499 l 503 560 q 505 568 505 564 q 505 575 505 571 q 475 647 505 617 q 403 677 445 677 q 331 647 361 677 q 301 575 301 617 q 303 554 301 564 q 309 536 305 544 l 216 449 l 216 357 l 354 486 q 377 476 365 479 q 403 473 389 473 q 441 480 423 473 q 472 500 458 487 l 594 430 q 593 421 594 426 q 593 411 593 416 q 623 339 593 369 q 694 309 652 309 q 766 339 736 309 q 796 411 796 369 q 791 444 796 429 q 774 473 785 460 l 960 757 q 974 754 967 755 q 987 753 981 753 q 1021 759 1005 753 q 1050 774 1038 765 l 1173 692 l 1173 773 l 1173 773 z "},"":{"ha":1389,"x_min":171,"x_max":1215,"o":"m 891 1085 q 763 1060 827 1074 q 639 1029 699 1046 q 526 994 579 1013 q 433 956 473 975 q 279 840 340 913 q 186 665 217 766 q 174 608 176 631 q 171 538 171 585 q 208 347 170 433 q 323 191 245 262 q 466 103 388 133 q 633 73 544 73 q 764 91 701 73 q 882 142 827 109 q 979 222 936 175 q 1051 328 1023 269 q 1100 454 1076 381 q 1145 612 1124 528 q 1181 785 1165 696 q 1206 962 1198 875 q 1218 1085 1215 1057 q 1215 1118 1221 1114 q 1211 1118 1214 1118 q 1204 1118 1208 1118 q 1158 1114 1202 1118 q 1059 1105 1114 1109 q 955 1094 1005 1100 q 891 1085 905 1088 l 891 1085 m 642 799 q 646 763 643 793 q 652 694 650 732 q 658 631 655 658 q 661 602 661 604 q 673 611 662 602 q 700 635 685 620 q 769 693 736 669 q 807 715 802 718 q 793 683 814 712 q 734 610 773 654 l 692 563 l 766 559 q 908 539 902 552 q 787 517 914 526 l 694 510 l 739 458 q 797 389 777 416 q 812 358 817 362 q 779 376 808 355 q 708 433 750 396 l 661 475 l 654 384 q 642 283 648 313 q 628 266 635 254 q 616 335 623 275 q 609 434 609 395 q 608 464 609 452 q 605 476 606 476 q 595 470 604 476 q 579 454 587 464 q 500 386 547 420 q 453 361 453 351 q 475 398 453 369 q 529 463 498 427 l 572 510 l 481 517 q 382 527 407 524 q 358 536 358 530 q 410 551 358 544 q 518 560 461 559 q 553 562 538 560 q 567 564 567 563 q 555 582 567 567 q 526 617 543 597 q 456 714 448 705 q 555 644 465 723 q 589 614 574 627 q 606 602 605 602 q 608 615 608 602 q 609 646 609 628 q 614 732 609 680 q 625 800 620 785 q 633 812 628 812 q 642 799 639 811 l 642 799 z "},"":{"ha":1389,"x_min":195,"x_max":1194,"o":"m 518 304 q 449 349 473 315 q 425 438 425 384 q 426 465 425 454 q 431 486 427 475 q 469 532 442 513 q 532 559 495 552 q 556 568 549 563 q 563 582 563 572 q 565 592 563 585 q 570 608 567 600 q 602 670 582 643 q 647 708 623 697 q 689 725 671 722 q 736 728 707 728 q 805 717 779 728 q 861 674 831 705 l 883 651 l 902 658 q 1034 647 974 682 q 1099 543 1093 612 l 1101 517 l 1120 510 q 1178 466 1160 495 q 1194 392 1196 437 q 1178 341 1191 363 q 1145 308 1165 319 l 1131 300 l 833 300 q 595 300 662 300 q 518 304 528 301 l 518 304 l 518 304 m 296 345 q 243 372 269 351 q 205 419 218 393 q 197 444 198 435 q 195 479 195 452 q 197 513 195 505 q 203 534 198 522 q 239 581 216 562 q 293 606 262 600 q 304 610 298 608 q 311 614 309 613 q 312 623 311 616 q 313 639 313 629 q 347 734 315 692 q 429 793 378 777 q 486 800 454 802 q 547 785 517 798 q 559 785 555 783 q 583 814 563 788 q 614 845 594 829 q 654 871 635 861 q 696 886 674 882 q 743 891 718 891 q 870 850 814 891 q 949 742 926 808 q 956 712 956 720 q 947 704 955 704 q 934 703 943 704 q 916 699 925 701 l 892 692 l 872 713 q 764 765 829 757 q 639 743 700 773 q 596 715 616 732 q 562 675 576 697 q 541 636 552 659 q 530 605 530 613 q 524 596 530 600 q 500 587 518 593 q 414 528 445 568 q 382 434 382 488 q 387 393 382 415 q 399 358 392 372 q 403 349 401 353 q 404 343 404 345 q 353 342 401 342 q 296 345 305 342 l 296 345 l 296 345 z "},"":{"ha":1389,"x_min":388,"x_max":1004,"o":"m 964 1279 q 938 1253 963 1279 q 880 1192 913 1227 l 799 1107 l 766 979 l 675 978 q 475 965 548 975 q 388 939 401 955 q 386 934 385 936 q 391 928 387 932 q 474 905 408 914 q 625 892 540 895 q 798 894 709 890 q 945 910 886 898 q 1000 928 989 918 q 986 948 1010 939 q 918 964 968 956 q 838 972 867 972 q 827 973 830 972 q 825 978 825 974 q 829 996 825 979 q 838 1032 833 1012 l 850 1082 l 926 1164 q 980 1221 958 1196 q 1004 1248 1002 1246 q 988 1271 1005 1257 q 964 1279 971 1284 l 964 1279 m 391 903 q 396 850 391 901 q 408 741 401 800 q 419 633 414 682 q 425 582 425 583 q 427 583 426 581 q 431 591 429 586 q 481 681 449 643 q 544 726 513 719 q 570 726 559 730 q 594 709 582 722 q 610 684 608 697 q 602 666 612 671 q 591 667 597 663 q 581 682 586 671 q 541 696 566 708 q 490 636 517 684 q 453 543 460 587 q 469 498 446 498 q 494 511 477 498 q 526 543 511 525 q 541 564 536 555 q 551 589 545 572 q 557 608 553 600 q 563 617 562 616 q 568 619 564 618 q 574 620 571 620 q 581 616 579 618 q 583 606 582 614 q 581 591 583 600 q 575 570 579 582 q 562 528 570 552 q 541 463 553 505 q 535 444 538 453 q 530 434 532 435 q 521 427 526 427 q 513 434 515 427 q 511 446 510 438 q 518 472 513 453 q 524 494 521 484 q 529 507 528 505 q 524 507 529 510 q 511 495 519 503 q 472 469 491 476 q 442 468 453 461 q 437 469 438 469 q 437 464 437 468 q 447 353 437 448 q 458 255 457 258 q 503 237 465 247 q 583 220 540 227 q 692 214 617 214 q 800 220 766 214 q 857 231 829 224 q 901 243 886 237 q 926 264 922 251 q 943 382 930 277 q 952 471 948 434 q 956 509 956 509 q 950 505 956 509 q 937 494 944 500 q 909 474 921 480 q 884 468 897 468 q 868 471 873 468 q 860 480 863 473 q 862 498 857 488 q 882 526 867 507 q 904 555 899 548 q 909 566 909 562 q 892 568 909 575 q 865 547 876 560 q 856 534 861 541 q 848 522 850 528 q 827 478 841 511 q 803 419 812 445 q 789 391 796 400 q 776 381 783 381 q 767 385 772 381 q 762 392 762 389 q 768 414 762 397 q 787 456 774 430 q 800 484 795 472 q 806 496 806 496 q 802 495 806 498 q 793 488 799 492 q 770 473 783 479 q 751 468 758 468 q 736 472 743 468 q 730 480 730 476 q 728 484 730 484 q 713 476 726 483 q 683 469 693 465 q 673 491 673 473 l 673 502 l 662 490 q 628 470 646 475 q 598 473 610 465 q 591 493 591 479 q 600 530 591 507 q 624 588 613 571 q 646 600 635 605 q 650 588 651 595 q 639 560 648 581 q 622 512 623 528 q 635 500 621 496 q 664 524 648 505 q 690 572 680 544 q 696 587 693 581 q 703 597 700 594 q 712 600 707 601 q 720 593 718 600 q 720 581 722 589 q 709 553 718 572 q 699 526 703 537 q 696 509 696 515 q 697 498 696 500 q 704 496 699 496 q 720 504 711 498 q 731 515 730 510 q 770 616 738 536 q 807 701 803 697 q 814 706 811 705 q 821 705 817 707 q 827 702 825 704 q 830 697 829 700 q 827 684 830 694 q 818 663 823 674 q 777 564 798 617 q 757 506 757 510 q 758 500 757 502 q 760 498 758 498 q 777 506 765 498 q 803 526 789 514 q 821 543 817 537 q 829 557 826 549 q 843 589 837 582 q 857 593 849 597 q 862 589 861 591 q 861 581 863 586 q 861 574 861 576 q 861 571 861 571 q 867 574 863 571 q 875 582 871 578 q 905 600 891 597 q 930 595 918 604 q 937 589 936 593 q 939 578 939 586 q 930 553 939 568 q 905 518 922 538 q 894 505 898 511 q 890 498 890 499 q 892 496 890 496 q 897 495 894 495 q 925 514 901 495 q 958 543 949 533 q 965 587 960 545 q 981 728 970 629 q 994 856 989 803 q 1000 909 1000 909 q 995 909 1000 910 q 985 905 990 907 q 936 894 968 899 q 863 884 903 888 q 795 880 840 882 q 701 879 750 879 q 608 880 652 879 q 541 883 563 880 q 463 892 499 887 q 411 903 427 898 l 391 910 l 391 903 l 391 903 m 472 231 q 477 220 472 231 q 491 197 483 210 l 510 164 l 518 56 l 526 -54 l 534 -61 q 586 -81 549 -75 q 680 -90 623 -88 q 791 -83 745 -91 q 854 -61 838 -76 l 864 -54 l 869 57 l 876 167 l 894 197 q 906 220 901 210 q 911 229 911 229 q 906 229 911 231 q 892 225 901 228 q 817 208 865 216 q 722 198 769 201 q 598 204 669 195 q 487 227 528 213 q 476 230 480 229 q 472 231 472 231 l 472 231 z "}}}
